<svg width="337" height="361" viewBox="0 0 337 361" fill="none" xmlns="http://www.w3.org/2000/svg">
<path fill-rule="evenodd" clip-rule="evenodd" d="M54.9127 135.048C53.5156 134.296 52.3795 133.148 51.266 132.018C48.3936 129.102 45.4853 126.14 43.4922 122.565C43.3025 122.224 43.1159 121.834 43.2253 121.46C43.3348 121.086 43.9058 120.873 44.1194 121.199C47.5836 126.488 51.9584 131.178 56.9932 135.002C56.5405 135.611 55.5807 135.408 54.9127 135.048V135.048Z" fill="#00160A"/>
<path fill-rule="evenodd" clip-rule="evenodd" d="M262.709 224.159C256.98 226.399 250.351 229.762 249.736 235.884C257.52 229.896 267.135 226.322 276.94 225.773C270.166 234.307 261.613 241.423 251.988 246.53C243.344 251.117 232.401 256.009 231.659 265.766C240.942 254.712 255.215 248.02 269.65 247.953C260.415 261.479 245.607 271.073 229.488 273.973C230.041 278.129 247.913 287.032 253.118 288.745C256.826 304.671 258.431 325.326 262.139 341.252C263.051 345.171 263.854 349.675 261.454 352.905C259.073 356.109 254.577 356.66 250.595 356.943C234.902 358.059 213.429 359.175 197.736 360.29C195.857 351.778 193.978 343.265 192.099 334.752C165.627 337.21 52.1408 363.216 31.3144 349.573C-49.0822 296.907 53.4375 278.966 55.6407 214.844C56.1458 200.142 11.941 174.441 12.6428 159.418C13.1011 149.608 14.6197 140.025 19.4733 131.602C24.327 123.178 32.018 116.689 40.3771 111.726C28.8685 108.768 20.1513 97.2957 20.3845 85.4153C20.6178 73.5349 29.7785 62.4138 41.3944 59.9095C35.9177 53.3832 27.2941 50.3919 20.9951 44.6553C13.6572 37.9725 9.9699 27.1926 12.6428 17.6344C15.3157 8.07619 24.7267 0.555965 34.6425 0.979713C42.7875 1.32778 49.9553 6.47931 55.6407 12.3221C64.4581 21.3835 71.0158 32.6275 74.5612 44.7637C76.9243 52.8529 85.585 56.9681 92.899 61.1544C100.213 65.3406 107.808 72.6326 105.748 80.8041C103.023 69.6223 143.515 82.9412 180.238 86.2016C185.114 86.6344 190.361 87.2647 193.966 90.5767C199.145 95.3364 206.921 97.0723 213.633 94.9673C215.769 100.261 217.34 106.207 215.525 111.619C213.709 117.031 207.28 121.162 202.139 118.679C203.481 125.582 204.823 132.485 206.164 139.387C219.306 139.545 232.447 139.813 245.584 140.192C252.547 140.393 259.824 140.71 265.876 144.159C271.927 147.609 280.027 142.722 286.007 130.166C282.137 150.654 286.722 158.84 294.629 161.066C294.646 160.911 295.26 160.985 295.278 160.83C297.632 140.584 311.37 122.607 330.49 115.496C328.8 119.392 316.702 127.087 308.302 136.915C300.096 146.514 296.168 159.365 295.762 161.673C308.791 158.257 313.134 167.964 335.24 159.418C325.139 171.562 305.674 174.552 292.393 166C286.128 172.987 286.478 180.725 282.04 188.994C289.579 179.623 299.591 187.931 291.649 194.004C295.864 194.409 300.422 194.964 303.479 197.894C306.537 200.824 306.613 206.991 302.669 208.533C289.349 213.741 276.029 218.95 262.709 224.159Z" fill="#FF9701"/>
<path fill-rule="evenodd" clip-rule="evenodd" d="M241.088 177.984C241.571 177.067 242.094 176.106 242.981 175.572C243.869 175.037 245.23 175.148 245.708 176.067C246.216 177.045 245.46 178.224 244.572 178.877C243.683 179.529 242.591 179.989 242.014 180.929C245.133 182.984 248.252 185.039 251.371 187.094C253.814 188.704 256.578 191.003 256.078 193.885C255.785 195.575 254.352 196.889 252.757 197.52C251.162 198.15 249.408 198.216 247.693 198.265C236.17 198.597 224.635 198.539 213.116 198.09C212.317 198.059 211.425 197.985 210.893 197.388C210.48 196.925 210.395 196.266 210.329 195.65C209.665 189.518 209.002 183.387 208.339 177.256C208.315 177.029 208.292 176.793 208.373 176.58C208.714 175.685 210.053 176.236 210.802 176.834C216.105 181.066 224.582 180.569 229.354 175.746C230.507 174.58 232.469 174.731 233.951 175.434C235.432 176.136 236.671 177.279 238.157 177.972C237.999 177.113 238.756 176.206 239.63 176.21C240.503 176.213 241.254 177.126 241.088 177.984" fill="white"/>
<path fill-rule="evenodd" clip-rule="evenodd" d="M55.5219 110.313C55.5219 110.313 54.2347 94.8948 57.4748 89.9384C60.7148 84.982 73.0566 83.4897 73.0566 83.4897C73.0566 83.4897 106.883 83.0477 125.16 83.7463C143.436 84.4449 179.989 87.5773 179.989 87.5773C179.989 87.5773 184.738 88.6133 186.873 89.9384C189.008 91.2635 191.986 95.0238 191.986 95.0238C191.986 95.0238 198.467 95.9685 201.691 96.097C204.914 96.2254 207.868 95.6566 207.868 95.6566C207.868 95.6566 211.977 107.639 209.072 113.35C206.167 119.061 196.416 118.175 196.416 118.175L199.868 139.549C199.868 139.549 195.763 141.488 193.52 143.92C191.277 146.352 190.376 149.839 190.376 149.839L197.043 214.844C197.043 214.844 199.004 218.223 203.217 219.506C207.43 220.79 216.921 220.899 216.921 220.899C216.921 220.899 216.582 227.454 216.921 230.274C217.259 233.095 217.561 234.641 217.561 234.641L224.707 285.796C224.707 285.796 217.761 287.06 210.889 288.727C204.016 290.394 190.376 294.125 190.376 294.125C190.376 294.125 185.568 296.317 184.946 299.857C184.323 303.396 186.873 314.033 186.873 314.033L110.302 319.869C110.302 319.869 102.851 320.01 100.288 318.395C97.7246 316.78 97.0222 311.502 97.0222 311.502L86.6652 218.35C86.6652 218.35 70.1148 218.755 65.2811 215.995C60.4473 213.235 59.8627 203.046 59.8627 203.046C59.8627 203.046 60.6658 197.271 59.8627 193.264C59.5948 191.926 56.0944 177.431 54.9184 163.638C54.253 155.833 63.4369 149.839 63.4369 149.839L55.5219 110.313Z" fill="white"/>
<path fill-rule="evenodd" clip-rule="evenodd" d="M109.552 88.8687C108.956 89.708 109.455 90.9603 110.315 91.5249C111.175 92.0895 112.26 92.1531 113.288 92.1994C124.458 92.7021 135.629 93.2048 146.799 93.7075C147.888 93.7565 149.093 93.7672 149.918 93.0552C150.742 92.3431 150.633 90.645 149.557 90.4739C137.136 88.4989 124.531 87.6788 111.959 88.0274C111.076 88.0519 110.063 88.1486 109.552 88.8687" fill="#E7EAEE"/>
<path fill-rule="evenodd" clip-rule="evenodd" d="M159.251 168.933L156.348 155.31C156.348 155.31 156.212 158.12 154.675 159.262C153.138 160.405 150.1 159.955 150.1 159.955C150.1 159.955 149.619 150.443 151.758 147.546C153.897 144.65 156.004 147.385 160.066 146.459C164.126 145.533 163.285 142.484 168.002 143.842C172.718 145.199 176.204 155.294 176.204 155.294C176.204 155.294 172.505 156.534 170.932 156.216C169.358 155.898 169.742 153.989 169.742 153.989C169.742 153.989 168.626 153.514 168.911 156.861C169.049 158.487 170.28 160.932 170.932 164.131C171.175 165.322 170.932 167.999 170.932 167.999C170.932 167.999 166.734 168.427 163.108 169.203C159.481 169.979 159.251 168.933 159.251 168.933Z" fill="#E7EAEE"/>
<path fill-rule="evenodd" clip-rule="evenodd" d="M59.0975 68.1112C59.9228 67.261 60.363 66.117 60.743 64.9946C61.9281 61.4947 62.7356 57.8672 63.1471 54.1951C63.2213 53.5337 63.3427 52.7721 63.9166 52.4351C64.562 55.5836 63.7626 58.8284 62.9678 61.9426C62.269 64.6804 61.4952 67.5552 59.5133 69.5692C59.3128 69.773 59.0568 69.9806 58.7748 69.9335C58.3947 69.8699 58.2423 69.3647 58.378 69.004C58.5137 68.6433 58.8291 68.3878 59.0975 68.1112L59.0975 68.1112Z" fill="#00160A"/>
<path fill-rule="evenodd" clip-rule="evenodd" d="M258.304 95.5738C258.697 95.4689 259.097 95.7786 259.269 96.1473C259.44 96.516 259.452 96.9352 259.529 97.3345C259.827 98.8951 261.233 100.176 262.815 100.326C263.012 100.784 262.576 101.243 262.231 101.604C261.446 102.425 260.951 103.517 260.85 104.649C260.785 105.383 260.63 106.404 259.894 106.395C259.301 106.387 259.041 105.671 258.828 105.118C258.307 103.768 257.132 102.689 255.742 102.284C255.451 102.2 255.328 101.827 255.408 101.534C255.489 101.241 255.711 101.012 255.923 100.794C256.836 99.858 257.762 98.7496 257.752 97.4421C257.747 96.7349 257.621 95.7564 258.304 95.5738Z" fill="#FFB61D"/>
<path fill-rule="evenodd" clip-rule="evenodd" d="M285.967 218.399C284.742 219.658 284.308 221.629 284.891 223.286C284.245 223.575 283.762 222.685 283.443 222.054C282.963 221.106 282.057 220.386 281.026 220.132C282.519 219.19 283.449 217.418 283.374 215.654C283.974 215.262 284.646 216.078 284.819 216.773C284.991 217.469 285.251 218.374 285.967 218.399Z" fill="#E7EAEE"/>
<path fill-rule="evenodd" clip-rule="evenodd" d="M275.509 220.76C276.22 221.888 277.23 222.824 278.408 223.448C278.832 223.671 278.448 224.295 278.098 224.622C277.217 225.445 276.66 226.605 276.567 227.807C275.796 227.035 275.026 226.263 274.256 225.491C273.948 225.183 273.624 224.705 273.889 224.36C274.697 223.306 275.256 222.063 275.509 220.76Z" fill="#E7EAEE"/>
<path fill-rule="evenodd" clip-rule="evenodd" d="M224.054 84.9855C224.755 80.5211 226.449 76.1337 229.426 72.7338C232.403 69.3339 236.749 67.013 241.268 67.0166C245.787 67.0203 250.351 69.5796 252.229 73.69C253.201 75.8168 253.439 78.211 253.373 80.5483C253.247 84.9935 252.053 89.4049 249.92 93.3067C247.996 96.825 245.23 99.9898 241.639 101.775C238.048 103.56 233.573 103.799 230.082 101.826C227.318 100.264 225.384 97.4594 224.462 94.421C223.541 91.3825 223.561 88.1221 224.054 84.9855M251.674 81.6072C251.756 78.8392 251.299 75.9809 249.843 73.6251C248.959 72.1928 247.719 70.9815 246.267 70.1298C241.583 67.3832 235.209 68.8587 231.319 72.6463C227.429 76.4338 225.743 82.0317 225.569 87.4582C225.477 90.3528 225.788 93.3208 227.019 95.9424C228.249 98.564 230.501 100.806 233.306 101.527C236.976 102.469 240.849 100.695 243.727 98.2294C248.529 94.1161 251.488 87.9271 251.674 81.6072Z" fill="#FFB61D"/>
<path fill-rule="evenodd" clip-rule="evenodd" d="M270.297 81.8856C269.55 82.8625 268.768 84.1458 269.342 85.2339C269.547 85.6231 269.016 86.0763 268.594 85.9534C268.171 85.8306 267.931 85.3842 267.819 84.9588C267.706 84.5334 267.67 84.077 267.444 83.6993C267.218 83.3216 266.706 83.059 266.332 83.2918C265.801 83.2288 265.746 82.4281 266.055 81.991C266.364 81.554 266.871 81.2535 267.061 80.7532C267.212 80.357 267.131 79.9125 267.202 79.4947C267.273 79.077 267.629 78.631 268.039 78.7377C268.025 79.4718 268.11 80.2336 268.483 80.8664C268.855 81.4993 269.568 81.9728 270.297 81.8856Z" fill="#FFB61D"/>
<path fill-rule="evenodd" clip-rule="evenodd" d="M203.451 80.4392C204.035 79.7598 204.769 79.1785 205.63 78.9311C206.491 78.6837 207.49 78.8141 208.162 79.4062C208.894 80.0504 209.124 81.1269 208.968 82.0892C208.812 83.0516 208.327 83.926 207.816 84.7565C207.154 85.834 206.434 86.8765 205.661 87.8782C205.42 88.1911 205.155 88.5137 204.786 88.6531C204.297 88.8372 203.753 88.658 203.272 88.4568C201.58 87.7496 200.007 86.7575 198.641 85.5349C197.389 84.4154 196.235 82.7746 196.742 81.1739C197.065 80.154 198.052 79.4163 199.11 79.2588C200.168 79.1013 201.265 79.4742 202.106 80.1348C202.509 80.4509 203.117 80.8272 203.451 80.4392M198.106 81.0316C197.307 82.1309 198.174 83.6708 199.181 84.5835C200.437 85.7223 201.929 86.5636 203.406 87.3951C203.596 87.502 203.808 87.6126 204.021 87.5666C204.211 87.5256 204.352 87.3701 204.477 87.2217C205.478 86.0357 206.375 84.7616 207.153 83.4191C207.752 82.3863 208.192 80.869 207.227 80.1659C206.464 79.6097 205.351 80.0579 204.704 80.7458C204.056 81.4336 203.649 82.3319 202.942 82.9578C202.389 82.0873 201.802 81.1828 200.906 80.6719C200.011 80.1611 198.712 80.1976 198.106 81.0316H198.106Z" fill="#FFB61D"/>
<path fill-rule="evenodd" clip-rule="evenodd" d="M192.007 50.3981C193.838 48.9699 195.875 47.8048 198.035 46.9496C199.359 46.4254 200.87 46.0218 202.178 46.5833C204.275 47.4829 204.683 50.4938 203.58 52.4909C202.477 54.488 200.385 55.6988 198.393 56.8114C194.486 58.9932 190.58 61.1751 186.674 63.357C187.443 61.8216 186.575 60.0194 185.864 58.4561C184.264 54.9352 183.426 51.0698 183.425 47.2022C183.425 45.9804 183.517 44.7219 184.052 43.624C184.588 42.526 185.658 41.6154 186.879 41.5867C188.834 41.5407 190.133 43.5762 190.793 45.4167C191.37 47.0286 191.778 48.7012 192.007 50.3981ZM200.286 47.5989C197.126 48.2407 194.183 49.9028 192.001 52.2765C191.786 52.5103 191.369 52.4073 191.173 52.1576C190.977 51.908 190.939 51.5732 190.902 51.2579C190.655 49.1698 190.109 47.1174 189.285 45.183C188.826 44.1046 188.057 42.9138 186.885 42.8948C186.016 42.8807 185.261 43.5763 184.94 44.3838C184.62 45.1913 184.647 46.0902 184.708 46.9568C185.051 51.7897 186.323 56.555 188.433 60.9162C191.889 58.9797 195.344 57.0432 198.8 55.1067C199.878 54.5025 200.976 53.8833 201.814 52.9751C202.652 52.067 203.204 50.805 202.96 49.5933C202.717 48.3816 201.497 47.3528 200.286 47.5989Z" fill="#FFB61D"/>
<path fill-rule="evenodd" clip-rule="evenodd" d="M167.827 289.773C177.913 288.624 188.064 288.045 198.215 288.041C200.077 288.04 201.697 286.593 202.454 284.892C203.211 283.19 203.271 281.271 203.272 279.409C203.276 272.49 202.625 265.59 201.975 258.702C201.711 255.908 201.448 253.115 201.184 250.321C201.024 248.626 200.855 246.894 200.141 245.348C198.902 242.666 196.16 240.921 193.302 240.17C190.445 239.419 187.442 239.522 184.489 239.63C174.686 239.989 164.884 240.348 155.081 240.707C160.732 238.634 166.886 238.537 172.904 238.464C177.518 238.407 182.132 238.351 186.746 238.295C191.463 238.237 196.852 238.473 199.86 242.106C201.804 244.453 202.233 247.666 202.557 250.695C203.58 260.235 204.33 269.803 204.804 279.385C204.961 282.561 204.834 286.292 202.249 288.143C200.803 289.177 198.926 289.332 197.153 289.453C186.35 290.184 175.547 290.916 164.744 291.648C162.207 291.82 159.534 291.966 157.252 290.845C156.46 290.456 155.645 289.575 156.071 288.801C159.583 290.714 163.854 290.226 167.827 289.773V289.773Z" fill="#00160A"/>
<path fill-rule="evenodd" clip-rule="evenodd" d="M125.102 136.753C125.305 137.055 125.351 137.432 125.391 137.794C125.486 138.636 125.58 139.478 125.675 140.32C125.787 141.319 125.81 142.527 124.982 143.097C124.541 143.401 123.972 143.425 123.436 143.44C112.167 143.744 100.898 144.049 89.6288 144.353C88.9038 144.373 88.0648 144.342 87.6204 143.768C87.3415 143.409 87.2985 142.925 87.2724 142.471C87.1903 141.043 87.1674 139.612 87.2039 138.183C87.2094 137.965 87.2221 137.731 87.3571 137.56C87.5191 137.355 87.8042 137.305 88.0629 137.27C99.7066 135.693 111.507 135.277 123.233 136.029C123.926 136.074 124.717 136.177 125.102 136.753M124.639 142.23C123.495 141.612 124.648 139.799 124.232 138.567C123.874 137.508 122.516 137.258 121.4 137.194C110.774 136.589 100.093 136.967 89.5369 138.32C89.1481 138.37 88.7169 138.445 88.4808 138.758C88.2475 139.067 88.2896 139.496 88.3427 139.88C88.4249 140.473 88.5071 141.067 88.5893 141.661C88.6541 142.129 88.7529 142.654 89.146 142.916C89.4311 143.106 89.7981 143.104 90.1406 143.095C101.64 142.807 113.14 142.518 124.639 142.23Z" fill="#00160A"/>
<path fill-rule="evenodd" clip-rule="evenodd" d="M146.301 156.704C146.355 155.453 146.409 154.202 146.462 152.951C146.567 150.513 146.695 147.983 147.828 145.821C148.962 143.659 151.409 141.978 153.784 142.54C155.27 142.892 156.641 144.06 158.135 143.746C159.437 143.473 160.235 142.187 161.334 141.439C163.955 139.655 167.608 141.312 169.775 143.625C172.111 146.118 173.629 149.365 174.045 152.756C174.08 153.043 174.098 153.367 173.913 153.59C173.76 153.774 173.508 153.838 173.274 153.892C172.372 154.099 171.47 154.305 170.568 154.512C169.799 154.688 169.002 154.864 168.23 154.705C167.459 154.545 166.718 153.95 166.655 153.164C166.425 157.555 169.713 161.749 168.797 166.05C168.456 165.864 168.116 165.677 167.775 165.491C168.579 161.179 164.735 157.004 165.538 152.691C165.644 152.121 165.873 151.513 166.383 151.236C166.894 150.959 167.7 151.274 167.681 151.854C167.648 152.784 168.652 153.478 169.582 153.47C170.512 153.462 171.358 152.963 172.152 152.48C172.435 152.308 172.358 151.882 172.24 151.573C171.36 149.266 170.204 147.065 168.804 145.031C167.858 143.657 166.718 142.298 165.145 141.74C163.573 141.182 161.496 141.752 160.917 143.317C160.24 145.148 157.679 145.272 155.799 144.744C153.919 144.215 151.809 143.391 150.131 144.391C148.728 145.227 148.259 147.009 147.996 148.621C147.545 151.386 147.337 154.191 147.375 156.992C147.451 157.42 147.996 157.558 148.43 157.546C150.717 157.487 152.841 155.683 153.269 153.436C153.886 154.145 154.106 155.105 154.305 156.023C154.995 159.202 155.686 162.38 156.376 165.559C156.589 166.538 156.34 168.042 155.355 167.864C154.909 164.397 154.247 160.957 153.376 157.572C151.729 157.947 150.081 158.321 148.434 158.696C147.929 158.811 147.363 158.917 146.921 158.647C146.311 158.274 146.271 157.418 146.301 156.704Z" fill="#00160A"/>
<path fill-rule="evenodd" clip-rule="evenodd" d="M194.49 243.037C195.33 243.948 194.024 245.63 194.794 246.601C195.194 247.105 194.909 247.904 194.38 248.27C193.85 248.635 193.172 248.684 192.53 248.721C181.495 249.362 170.459 250.004 159.424 250.645C158.673 250.688 157.777 250.663 157.367 250.033C157.188 249.758 157.145 249.42 157.106 249.094C157.005 248.246 156.905 247.398 156.804 246.549C156.772 246.283 156.744 245.998 156.869 245.761C157.075 245.37 157.588 245.286 158.028 245.247C169.626 244.223 181.238 243.357 192.86 242.651C193.437 242.616 194.098 242.612 194.49 243.037ZM193.223 244.47C193.187 244.261 193.14 244.032 192.973 243.901C192.806 243.771 192.573 243.78 192.362 243.795C182.072 244.545 171.782 245.296 161.491 246.046C160.66 246.106 159.797 246.176 159.071 246.585C158.344 246.995 157.796 247.849 158.014 248.654C158.082 248.903 158.226 249.14 158.447 249.274C158.718 249.438 159.056 249.426 159.372 249.409C170.236 248.82 181.1 248.23 191.965 247.641C193.256 247.571 193.442 245.745 193.223 244.47Z" fill="#00160A"/>
<path fill-rule="evenodd" clip-rule="evenodd" d="M203.197 233.156C205.15 238.296 205.773 243.829 206.38 249.294C207.79 261.991 209.199 274.687 210.609 287.384C209.56 287.47 209.077 286.124 208.946 285.079C206.811 267.996 206.123 250.692 202.511 233.859C202.74 233.625 202.968 233.39 203.197 233.156Z" fill="#00160A"/>
<path fill-rule="evenodd" clip-rule="evenodd" d="M140.189 144.714C139.885 144.584 139.891 144.11 140.124 143.876C140.357 143.641 140.71 143.585 141.038 143.543C143.492 143.231 145.966 143.08 148.439 143.089C148.308 144.144 146.945 144.453 145.883 144.502C144.098 144.584 142.313 144.667 140.528 144.749C140.413 144.754 140.294 144.759 140.189 144.714L140.189 144.714Z" fill="#00160A"/>
<path fill-rule="evenodd" clip-rule="evenodd" d="M154.033 273.831C153.829 270.052 153.625 266.273 153.422 262.494C152.873 252.323 152.307 242.048 149.476 232.263C149.114 231.014 148.701 229.746 147.9 228.721C145.896 226.156 142.185 225.861 138.929 225.861C126.377 225.862 113.825 227.055 101.498 229.421C100.245 229.661 98.9426 229.937 97.9431 230.729C96.3549 231.988 95.9362 234.202 95.7887 236.223C95.5194 239.913 95.786 243.642 96.5776 247.257C96.1246 247.181 95.6716 247.106 95.2185 247.03C93.5575 243.571 92.8007 239.682 93.0433 235.852C93.1487 234.189 93.4546 232.495 94.3116 231.066C96.4431 227.511 101.135 226.658 105.256 226.216C115.713 225.097 126.209 224.342 136.718 223.956C140.948 223.8 145.728 223.918 148.631 226.999C150.092 228.549 150.831 230.631 151.412 232.68C153.428 239.796 153.985 247.232 154.531 254.609C155.065 261.816 155.599 269.024 156.132 276.231C156.258 277.925 156.382 279.646 156.039 281.309C154.922 286.73 149.149 290.028 143.653 290.684C138.157 291.339 132.624 290.083 127.09 289.991C119.647 289.867 112.161 291.846 104.821 290.61C102.707 290.254 100.459 289.505 99.2968 287.703C98.4906 286.454 98.3452 284.904 98.2218 283.422C97.3513 272.969 96.4807 262.515 95.6102 252.061C95.552 251.361 96.0725 250.318 96.6102 250.769C97.57 260.839 98.5298 270.908 99.4896 280.978C99.6195 282.341 99.7606 283.743 100.394 284.957C101.314 286.719 103.17 287.84 105.094 288.339C107.018 288.837 109.035 288.797 111.023 288.771C119.432 288.661 127.845 288.871 136.238 289.399C139.045 289.575 141.882 289.786 144.655 289.315C147.428 288.844 150.179 287.608 151.9 285.384C154.352 282.216 154.249 277.831 154.033 273.831V273.831Z" fill="#00160A"/>
<path fill-rule="evenodd" clip-rule="evenodd" d="M139.763 140.627C140.545 140.016 139.887 138.766 140.041 137.785C140.26 136.398 141.986 135.921 143.381 135.76C152.341 134.725 161.364 134.235 170.383 134.295C171.133 134.3 172.02 134.383 172.398 135.032C172.852 135.81 172.429 137.169 173.288 137.442C173.692 137.57 174.209 137.333 174.514 137.626C175.02 138.109 174.078 138.763 173.382 138.826C162.827 139.773 152.249 140.466 141.661 140.904C141.013 140.931 140.326 140.948 139.763 140.627M171.291 136.256C171.044 135.636 170.219 135.545 169.552 135.556C161.049 135.685 152.55 136.105 144.075 136.816C143.081 136.899 141.909 137.106 141.494 138.013C141.296 138.529 141.675 139.122 142.176 139.356C142.677 139.59 143.255 139.56 143.807 139.525C152.273 138.988 160.739 138.451 169.204 137.914C169.725 137.881 170.269 137.841 170.718 137.575C171.167 137.309 171.484 136.741 171.291 136.256Z" fill="#00160A"/>
<path fill-rule="evenodd" clip-rule="evenodd" d="M182.702 260.484C184.008 261.521 183.449 263.794 184.585 265.015C185.113 265.583 185.904 265.805 186.648 266.022C187.126 266.162 187.718 266.514 187.566 266.988C187.41 267.474 186.702 267.396 186.227 267.21C184.676 266.602 182.926 265.591 182.84 263.927C182.778 262.712 182.417 261.514 181.798 260.467C181.972 260.172 182.434 260.271 182.702 260.484V260.484Z" fill="#00160A"/>
<path fill-rule="evenodd" clip-rule="evenodd" d="M188.876 277.693C188.451 272.217 188.026 266.74 187.601 261.264C187.538 260.459 187.467 259.624 187.068 258.922C186.67 258.22 185.844 257.691 185.064 257.9C181.536 258.847 177.873 259.286 174.221 259.199C171.028 259.123 167.762 258.657 164.69 259.531C164.747 261.052 164.804 262.573 164.861 264.094C164.878 264.539 164.903 265.01 165.156 265.375C165.864 266.4 167.623 265.619 168.022 264.439C168.422 263.259 168.061 261.968 168.129 260.724C168.142 260.503 168.186 260.253 168.373 260.136C168.772 259.889 169.155 260.48 169.257 260.938C169.55 262.25 169.842 263.624 169.496 264.924C169.151 266.223 167.945 267.401 166.612 267.229C165.23 267.051 164.664 268.939 164.631 270.332C164.564 273.112 164.497 275.892 164.43 278.672C164.409 279.547 164.724 280.756 165.594 280.658C167.839 280.403 170.084 280.148 172.329 279.894C172.872 279.832 173.455 279.778 173.932 280.044C174.41 280.309 174.662 281.032 174.271 281.413C171.634 281.644 168.997 281.875 166.36 282.106C165.59 282.174 164.791 282.238 164.064 281.974C163.338 281.71 162.705 281.018 162.771 280.248C163.42 272.686 163.565 265.08 163.205 257.498C163.129 255.885 165.093 255.067 166.68 254.769C171.718 253.824 176.856 253.415 181.979 253.549C183.697 253.594 185.569 253.764 186.815 254.948C188.083 256.153 188.332 258.052 188.507 259.792C189.162 266.316 189.818 272.84 190.473 279.364C190.508 279.716 190.517 280.134 190.235 280.348C190.067 280.476 189.842 280.489 189.631 280.498C187.445 280.589 185.258 280.68 183.072 280.771C181.913 280.819 180.666 280.844 179.702 280.2C179.04 279.759 178.603 279.058 178.218 278.362C177.297 276.691 176.56 274.919 176.026 273.087C175.19 275.181 174.661 277.397 174.46 279.643C173.403 279.757 173.207 278.172 173.453 277.138C173.96 275.004 174.467 272.87 174.973 270.736C175.051 270.412 175.174 270.035 175.492 269.935C175.961 269.787 176.321 270.349 176.492 270.809C177.206 272.728 177.92 274.647 178.635 276.566C179.249 278.218 181.022 279.211 182.772 279.414C184.523 279.618 186.277 279.177 187.985 278.74C188.322 278.653 188.706 278.529 188.837 278.206C188.902 278.045 188.89 277.866 188.876 277.693ZM165.088 257.642C166.672 257.662 168.255 257.683 169.839 257.703C171.028 257.719 172.218 257.734 173.408 257.712C177.702 257.631 181.987 257.055 186.15 255.999C185.222 255.045 183.732 254.992 182.401 255.015C177.639 255.101 172.88 255.378 168.14 255.846C166.871 255.971 165.295 256.384 165.088 257.642L165.088 257.642Z" fill="#00160A"/>
<path fill-rule="evenodd" clip-rule="evenodd" d="M158.001 253.541C157.91 253.046 158.552 252.775 159.049 252.698C164.794 251.808 170.616 251.414 176.428 251.523C176.512 251.525 176.598 251.527 176.675 251.559C176.947 251.673 176.934 252.102 176.718 252.303C176.501 252.505 176.183 252.539 175.888 252.561C170.353 252.976 164.737 252.762 159.315 253.946C158.811 254.056 158.093 254.048 158.001 253.541L158.001 253.541Z" fill="#00160A"/>
<path fill-rule="evenodd" clip-rule="evenodd" d="M286.474 241.646C286.791 240.898 287.141 240.108 287.814 239.653C288.382 239.269 289.094 239.185 289.776 239.111C291.798 238.891 293.821 238.671 295.844 238.452C296.844 238.343 298.135 237.921 298.097 236.916C297.974 233.669 298.225 229.929 300.805 227.953C303.164 226.145 306.698 226.641 309.119 228.366C311.54 230.091 313.074 232.776 314.397 235.438C314.983 236.617 316.587 236.832 317.884 236.605C319.18 236.377 320.495 235.867 321.774 236.178C323.743 236.656 324.739 238.807 325.416 240.718C328.812 250.305 331.118 260.3 335.343 269.552C336.923 273.012 336.423 277.33 334.094 280.338C333.806 277.95 334.206 275.483 335.234 273.308C335.718 272.283 334.107 271.609 332.973 271.612C321.423 271.642 309.824 271.675 298.402 273.388C298.053 273.44 297.683 273.504 297.423 273.743C297.17 273.974 297.071 274.325 296.984 274.656C296.63 276.002 296.276 277.347 295.922 278.692C295.7 279.535 295.839 280.843 296.706 280.756C308.01 279.611 319.375 279.065 330.737 279.121C331.932 279.127 333.563 279.601 333.409 280.786C321.305 280.928 309.156 281.074 297.184 282.856C295.277 283.14 293.961 280.779 294.177 278.864C294.393 276.949 295.492 275.231 295.801 273.328C296.068 271.688 295.734 270.016 295.375 268.394C294.804 265.816 294.166 263.252 293.462 260.707C292.774 258.223 292.024 255.757 291.274 253.291C290.14 249.561 289.005 245.832 287.871 242.102C286.311 244.386 285.616 247.247 285.954 249.992C286.189 251.904 286.898 253.72 287.429 255.571C288.188 258.218 288.586 260.952 288.983 263.677C289.764 269.044 290.544 274.411 291.325 279.778C291.44 280.568 291.214 281.731 290.424 281.614C286.914 270.755 287.877 258.75 283.735 248.116C284.648 245.959 285.561 243.803 286.474 241.646ZM312.618 243.616C313.762 242.98 314.354 241.495 313.962 240.246C313.57 238.997 312.235 238.117 310.932 238.249C307.739 238.573 304.545 238.896 301.351 239.22C301.057 239.25 300.727 239.299 300.549 239.536C300.41 239.723 300.407 239.977 300.421 240.21C300.505 241.669 301.012 243.102 301.863 244.29C302.524 245.214 303.439 246.319 302.923 247.331C302.277 248.595 300.157 247.886 299.631 246.568C299.105 245.25 299.479 243.762 299.381 242.346C299.283 240.93 298.266 239.3 296.866 239.536C294.571 239.922 292.275 240.309 289.98 240.695C289.65 240.751 289.22 240.954 289.317 241.274C292.112 250.526 294.907 259.778 297.702 269.03C298.05 270.183 298.836 271.61 300.009 271.336C310.775 268.822 322.126 271.2 333.057 269.547C329.783 259.279 326.395 249.047 322.894 238.854C322.79 238.553 322.673 238.234 322.417 238.046C322.132 237.838 321.75 237.844 321.398 237.859C319.758 237.929 318.119 237.998 316.479 238.068C315.83 238.095 314.946 238.404 315.088 239.038C315.534 241.024 315.979 243.011 316.425 244.997C316.502 245.339 316.577 245.705 316.449 246.031C316.103 246.919 314.795 246.695 313.923 246.311C313.351 246.059 312.749 245.783 312.395 245.267C312.042 244.751 312.071 243.92 312.618 243.616ZM308.392 229.204C307.134 228.281 305.48 227.616 304.029 228.188C303.523 228.387 303.084 228.722 302.652 229.052C301.884 229.641 301.091 230.256 300.638 231.112C300.216 231.908 300.129 232.833 300.05 233.73C299.981 234.515 299.912 235.299 299.843 236.084C299.8 236.57 299.783 237.129 300.136 237.467C300.474 237.791 301.005 237.767 301.472 237.723C304.812 237.405 308.152 237.087 311.492 236.77C311.968 236.724 312.55 236.595 312.675 236.134C312.725 235.951 312.685 235.758 312.64 235.574C312.025 233.043 310.492 230.745 308.392 229.204M307.141 237.502C306.805 237.597 307.178 238.228 307.423 237.978C307.735 237.85 307.389 237.263 307.126 237.474L307.141 237.502Z" fill="#FFB61D"/>
<path fill-rule="evenodd" clip-rule="evenodd" d="M201.24 162.414C201.182 162.219 201.298 162.014 201.435 161.863C202.108 161.122 203.234 161.067 204.236 161.064C210.305 161.05 216.374 161.036 222.443 161.022C222.87 161.021 223.328 161.029 223.677 161.276C224.025 161.523 224.162 162.105 223.827 162.37C223.649 162.511 223.403 162.52 223.176 162.522C216.125 162.601 209.074 162.679 202.023 162.757C201.716 162.761 201.328 162.708 201.24 162.414Z" fill="#00160A"/>
<path fill-rule="evenodd" clip-rule="evenodd" d="M203.489 168.68C203.124 168.47 203.174 167.88 203.482 167.591C203.789 167.302 204.237 167.234 204.656 167.184C207.169 166.881 209.695 166.715 212.22 166.548C213.611 166.457 215.003 166.365 216.394 166.273C218.202 166.154 220.011 166.035 221.82 165.916C222.394 165.878 223.036 165.861 223.468 166.241C223.901 166.621 223.795 167.535 223.221 167.571C216.837 167.966 210.454 168.362 204.07 168.757C203.872 168.769 203.661 168.779 203.489 168.68L203.489 168.68Z" fill="#00160A"/>
<path fill-rule="evenodd" clip-rule="evenodd" d="M237.707 176.933C238.189 176.017 238.713 175.055 239.6 174.521C240.487 173.987 241.849 174.097 242.326 175.016C242.835 175.994 242.078 177.173 241.19 177.826C240.302 178.479 239.21 178.939 238.633 179.878C241.751 181.933 244.87 183.988 247.989 186.044C250.432 187.653 253.196 189.952 252.696 192.835C252.403 194.525 250.971 195.839 249.375 196.469C247.78 197.1 246.026 197.165 244.312 197.215C232.788 197.547 221.254 197.488 209.734 197.04C208.935 197.008 208.044 196.934 207.511 196.337C207.099 195.875 207.013 195.215 206.947 194.599C206.284 188.468 205.621 182.336 204.958 176.205C204.933 175.979 204.91 175.742 204.991 175.529C205.332 174.634 206.671 175.186 207.42 175.783C212.723 180.016 221.2 179.519 225.972 174.695C227.125 173.53 229.088 173.68 230.569 174.383C232.05 175.086 233.289 176.229 234.775 176.921C234.617 176.062 235.374 175.156 236.248 175.159C237.122 175.163 237.872 176.075 237.707 176.933ZM238.359 180.883C237.98 179.492 235.924 179.2 234.789 180.09C233.655 180.981 233.288 182.532 233.189 183.971C233.152 184.507 232.27 184.561 231.968 184.116C231.665 183.671 231.788 183.072 231.956 182.561C232.399 181.212 233.081 179.942 233.961 178.828C234.396 178.277 233.758 177.531 233.183 177.127C231.154 175.7 228.281 174.293 226.42 175.932C221.32 180.424 213.185 181.023 207.482 177.325C207.55 181.928 207.89 186.526 208.497 191.089C208.559 191.548 208.637 192.039 208.955 192.377C209.375 192.825 210.063 192.856 210.677 192.857C220.583 192.869 230.489 192.882 240.395 192.894C241.359 192.896 242.67 192.551 242.594 191.59C242.419 189.354 243.41 187.058 245.156 185.65C243.782 184.652 242.409 183.654 241.035 182.656C240.616 182.352 240.177 182.039 239.666 181.951C238.125 181.687 237.095 183.454 236.55 184.92C235.715 183.426 236.688 181.254 238.359 180.883ZM212.469 196.155C222.784 196.236 233.101 196.218 243.416 196.103C246.345 196.07 249.764 195.773 251.352 193.312C237.107 193.938 222.842 194.093 208.588 193.776C208.41 195.488 210.748 196.141 212.469 196.155M247.772 186.96C247.465 186.765 247.148 186.566 246.79 186.505C245.709 186.32 244.857 187.398 244.388 188.389C244.117 188.962 243.881 189.551 243.683 190.153C243.531 190.611 243.401 191.099 243.496 191.572C243.591 192.046 243.979 192.494 244.462 192.499C246.216 192.519 247.97 192.5 249.724 192.443C250.137 192.43 250.587 192.4 250.897 192.126C251.261 191.803 251.306 191.246 251.214 190.767C250.884 189.036 249.261 187.903 247.772 186.96ZM241.576 175.761C241.556 175.227 240.843 174.956 240.35 175.162C239.857 175.368 239.554 175.858 239.283 176.319C238.956 176.876 238.628 177.433 238.301 177.99C238.129 178.282 238.036 178.779 238.367 178.853C239.238 178.129 240.109 177.405 240.98 176.681C241.271 176.438 241.589 176.14 241.576 175.761ZM235.932 176.632C235.784 177.352 236.153 178.148 236.799 178.5C237.023 177.758 236.891 176.918 236.452 176.279C236.425 176.098 236.18 175.994 236.031 176.1C235.916 176.245 235.875 176.446 235.924 176.625L235.932 176.632Z" fill="#00160A"/>
<path fill-rule="evenodd" clip-rule="evenodd" d="M200.464 155.39C200.202 154.122 199.94 152.855 199.679 151.587C199.577 151.095 199.483 150.548 199.742 150.116C200.094 149.528 200.9 149.45 201.586 149.438C218.424 149.145 235.268 149.209 252.103 149.63C253.252 149.659 254.195 150.65 254.544 151.745C254.894 152.839 254.779 154.021 254.66 155.164C254.596 155.781 254.494 156.47 254.002 156.848C253.598 157.158 253.048 157.165 252.539 157.16C235.63 156.975 218.72 156.791 201.81 156.606C201.532 156.603 201.237 156.595 201.002 156.447C200.657 156.23 200.546 155.788 200.464 155.39ZM202.79 150.549C201.545 150.54 200.663 152.019 200.974 153.224C201.284 154.429 202.449 155.259 203.659 155.552C204.868 155.845 206.135 155.704 207.374 155.588C222.645 154.16 238.086 156.888 253.346 155.349C253.426 154.42 253.502 153.461 253.203 152.578C252.904 151.696 252.125 150.905 251.193 150.898C235.059 150.782 218.924 150.666 202.79 150.549Z" fill="#00160A"/>
<path fill-rule="evenodd" clip-rule="evenodd" d="M98.9318 192.101C98.3682 193.169 97.5911 194.254 96.4259 194.572C94.2066 195.177 92.3715 192.713 91.7658 190.494C90.8203 187.03 91.0595 183.253 92.4346 179.936C93.1702 178.161 92.557 176.063 91.4036 174.526C89.2283 171.628 85.1704 170.359 81.6837 171.345C78.1969 172.331 75.4454 175.433 74.716 178.982C74.6018 179.538 74.6825 180.318 75.2443 180.397C78.0466 180.789 79.3331 184.078 79.7597 186.875C80.0855 189.011 80.2271 191.249 79.5025 193.284C78.778 195.32 77.0048 197.108 74.8504 197.271C72.9171 195.97 71.4616 193.974 70.8124 191.736C69.6049 187.572 71.1735 183.159 72.793 179.138C73.7813 176.684 74.8424 174.171 76.7199 172.308C80.7333 168.324 88.2276 168.797 91.7083 173.253C93.0472 174.968 93.8154 177.098 95.2992 178.688C96.4177 179.888 97.8964 180.727 98.9167 182.01C101.133 184.798 100.594 188.951 98.9318 192.101ZM72.0402 184.404C71.024 187.205 71.3071 190.448 72.7931 193.03C73.0373 193.454 73.3276 193.876 73.7543 194.116C74.1809 194.356 74.7755 194.359 75.1128 194.005C76.1234 192.942 76.2497 191.336 76.2464 189.869C76.2424 188.135 76.1355 186.401 75.9264 184.679C75.8407 183.975 75.6947 183.196 75.1249 182.773C74.555 182.349 73.4852 182.703 73.5747 183.408C73.8351 185.457 74.0955 187.506 74.3559 189.555C74.4151 190.021 74.4673 190.525 74.2337 190.933C74.0002 191.34 73.355 191.53 73.0593 191.165C72.2929 189.602 72.0618 187.781 72.4131 186.076C72.5394 185.463 72.6266 184.623 72.0402 184.404M95.4984 192.53C95.7573 192.328 95.8782 192 95.9749 191.686C96.7346 189.219 96.7427 186.526 95.9979 184.054C95.7147 183.115 94.9474 182.015 94.0178 182.33C93.4807 182.512 93.2084 183.1 93.0374 183.641C92.2602 186.098 92.3636 188.823 93.3246 191.214C93.5087 191.672 93.7365 192.135 94.1266 192.438C94.5166 192.741 95.1092 192.833 95.4984 192.53ZM77.2594 183.664C77.9364 187.095 77.7924 190.686 76.8428 194.052C76.7553 194.362 77.1067 194.603 77.4011 194.734C78.8257 191.278 79.006 187.325 77.902 183.754C77.719 183.624 77.4714 183.589 77.2594 183.664ZM97.0243 182.737C96.8138 183.073 96.6034 183.409 96.3929 183.744C97.0866 183.627 97.4041 184.574 97.4412 185.276C97.5271 186.9 97.6129 188.524 97.6987 190.149C98.3448 189.906 98.4618 189.058 98.4739 188.368C98.501 186.814 98.5281 185.26 98.5552 183.706C98.3225 183.679 98.0898 183.652 97.8571 183.624C97.8331 183.184 97.462 182.789 97.0243 182.737Z" fill="#00160A"/>
<path fill-rule="evenodd" clip-rule="evenodd" d="M173.199 185.684C168.569 185.463 163.92 185.664 159.327 186.283C158.92 186.338 158.466 186.384 158.139 186.136C157.812 185.888 157.848 185.23 158.256 185.186C162.849 184.681 167.462 184.356 172.081 184.212C172.583 184.197 173.146 184.206 173.504 184.558C173.862 184.911 173.701 185.708 173.199 185.684V185.684Z" fill="#00160A"/>
<path fill-rule="evenodd" clip-rule="evenodd" d="M65.6633 167.199C66.9775 167.076 68.2917 166.953 69.6059 166.829C70.2679 166.767 70.93 166.705 71.592 166.643C75.803 166.247 80.0141 165.851 84.229 165.5C84.3945 165.486 84.5674 165.473 84.7208 165.537C85.1769 165.726 85.1068 166.463 84.7093 166.756C84.3118 167.049 83.7742 167.033 83.2806 167.016C77.0733 166.81 70.8872 168.675 64.7086 168.044C64.3071 168.003 63.7819 167.796 63.8528 167.399C64.4539 167.313 65.0588 167.256 65.6633 167.199Z" fill="#00160A"/>
<path fill-rule="evenodd" clip-rule="evenodd" d="M207.213 303.607C207.007 301.8 206.858 299.832 205.643 298.478C204.71 297.44 205.193 295.508 206.505 295.03C207.816 294.552 209.428 295.72 209.383 297.115C209.367 297.595 209.193 298.052 209.057 298.512C208.13 301.651 208.991 305.029 210.124 308.1C211.272 311.21 213.029 314.521 216.183 315.543C219.831 316.726 223.868 314.108 225.485 310.631C227.102 307.154 226.856 303.116 226.291 299.323C226.235 298.942 226.133 298.503 225.783 298.341C224.364 297.686 224.149 295.384 225.422 294.477C226.695 293.57 228.8 294.526 228.956 296.081C229.009 296.608 228.874 297.134 228.774 297.654C228.077 301.267 228.999 305.054 228.235 308.653C227.756 310.906 226.61 313.013 224.977 314.639C223.246 316.362 220.908 317.55 218.466 317.592C215.177 317.647 212.102 315.608 210.243 312.894C208.384 310.181 207.587 306.875 207.213 303.607Z" fill="#00160A"/>
<path fill-rule="evenodd" clip-rule="evenodd" d="M111.312 155.193C111.403 156.431 111.491 157.706 111.105 158.886C110.719 160.067 109.738 161.142 108.501 161.248C102.124 161.796 95.7463 162.345 89.3569 162.723C80.6446 163.238 71.917 163.437 63.1917 163.636C62.8804 163.643 62.5472 163.644 62.2874 163.472C61.8976 163.215 61.8246 162.683 61.7886 162.217C61.6943 160.997 61.5999 159.778 61.5056 158.558C61.4769 158.187 61.4551 157.786 61.655 157.473C61.9478 157.013 62.5747 156.934 63.1187 156.902C79.1666 155.95 95.237 155.38 111.312 155.193ZM108.627 159.471C109.652 159.403 109.86 157.789 109.108 157.089C108.356 156.388 107.215 156.373 106.187 156.398C92.9803 156.726 79.7682 157.055 66.5874 157.951C65.6382 158.016 64.6507 158.095 63.8301 158.576C63.0095 159.058 62.4171 160.07 62.7306 160.969C63.1759 162.245 64.8977 162.385 66.2463 162.295C80.3732 161.354 94.5001 160.412 108.627 159.471Z" fill="#00160A"/>
<path fill-rule="evenodd" clip-rule="evenodd" d="M94.9143 186.014C94.9269 186.35 94.9396 186.685 94.9522 187.021C94.9786 187.719 95.0047 188.422 94.9038 189.113C94.0282 189.02 93.7567 187.894 93.7056 187.015C93.6813 186.597 93.6731 186.13 93.9532 185.818C94.2333 185.507 94.8985 185.596 94.9143 186.014L94.9143 186.014Z" fill="#00160A"/>
<path fill-rule="evenodd" clip-rule="evenodd" d="M157.972 188.873C158.831 188.08 160.137 188.105 161.306 188.138C165.004 188.243 168.713 187.957 172.351 187.287C172.779 187.208 173.01 187.875 172.743 188.22C172.476 188.564 171.993 188.636 171.559 188.681C167.459 189.097 163.341 189.345 159.221 189.421C158.73 189.43 158.107 189.345 157.972 188.873Z" fill="#00160A"/>
<path fill-rule="evenodd" clip-rule="evenodd" d="M296.016 202.736C295.611 204.108 294.264 204.956 292.979 205.584C286.549 208.729 278.99 209.499 272.058 207.715C269.73 207.116 267.077 205.73 266.977 203.328C266.904 201.562 268.314 200.082 269.806 199.136C272.096 197.684 274.765 196.951 277.427 196.434C282.561 195.436 288.127 195.23 292.775 197.629C294.722 198.634 296.637 200.635 296.016 202.736M268.565 203.061C268.569 205.001 270.733 206.137 272.61 206.629C279.126 208.339 286.255 207.601 292.283 204.594C293.251 204.111 294.272 203.475 294.579 202.438C294.992 201.046 293.913 199.643 292.716 198.821C289.114 196.346 284.349 196.684 280.003 197.15C276.506 197.524 272.779 198.013 270.113 200.307C269.289 201.016 268.562 201.974 268.565 203.061L268.565 203.061Z" fill="#00160A"/>
<path fill-rule="evenodd" clip-rule="evenodd" d="M106.825 89.1001C106.605 87.8529 107.466 86.6135 108.574 86.001C109.682 85.3885 110.989 85.2703 112.253 85.1959C123.523 84.5328 134.776 86.3429 146.05 86.9379C147.501 87.0144 149.031 87.0946 150.252 87.8829C151.473 88.6713 152.19 90.4405 151.345 91.6231C150.937 92.195 150.261 92.5127 149.591 92.7244C147.658 93.335 145.584 93.254 143.559 93.1669C133.019 92.7138 122.479 92.2607 111.939 91.8076C109.846 91.7176 107.187 91.163 106.825 89.1001M108.271 87.2927C107.676 88.132 108.174 89.3843 109.035 89.9489C109.895 90.5135 110.979 90.5771 112.007 90.6234C123.178 91.1261 134.348 91.6288 145.519 92.1315C146.607 92.1805 147.813 92.1912 148.637 91.4792C149.462 90.7672 149.353 89.069 148.277 88.8979C135.856 86.923 123.251 86.1028 110.678 86.4514C109.796 86.4759 108.782 86.5726 108.271 87.2927" fill="#00160A"/>
<path fill-rule="evenodd" clip-rule="evenodd" d="M230.416 78.2766C232.131 74.7042 234.911 71.0216 238.862 70.717C241.494 70.5141 244.286 70.9745 246.369 72.596C250.147 75.5369 250.41 81.2396 249.06 85.8329C247.469 91.247 243.918 96.2614 238.824 98.6896C237.609 99.2687 236.287 99.7017 234.942 99.649C231.369 99.5087 228.766 95.9977 227.997 92.5048C226.942 87.7178 228.295 82.6958 230.416 78.2766M234.861 98.3413C237.502 98.701 239.991 97.0184 241.855 95.1119C245.348 91.5385 247.693 86.8598 248.466 81.923C248.688 80.5002 248.781 79.024 248.394 77.637C247.632 74.9088 245.046 72.9372 242.271 72.3699C239.602 71.8244 236.67 72.4753 234.613 74.2607C233.624 75.1188 232.856 76.2025 232.186 77.3269C229.999 80.9946 228.756 85.2625 228.908 89.53C228.977 91.4578 229.342 93.4174 230.318 95.0814C231.294 96.7453 232.949 98.081 234.861 98.3413Z" fill="#FFB61D"/>
<path fill-rule="evenodd" clip-rule="evenodd" d="M143.784 229.897C144.135 229.878 144.512 229.866 144.809 230.054C145.177 230.286 145.311 230.748 145.417 231.17C145.648 232.093 145.881 233.053 145.695 233.987C145.508 234.92 144.772 235.816 143.821 235.858C141.395 235.964 138.97 236.07 136.544 236.176C135.593 236.218 134.479 236.353 134.006 237.18C133.686 237.74 133.781 238.435 133.886 239.072C134.183 240.877 135.024 243.158 136.851 243.092C138.067 243.047 139.151 243.97 139.674 245.068C140.197 246.167 140.276 247.416 140.345 248.631C140.411 249.774 140.119 251.337 138.974 251.365C138.051 251.388 137.796 252.636 137.826 253.559C138.029 259.979 138.233 266.398 138.437 272.818C138.47 273.853 137.145 274.287 136.115 274.391C127.486 275.262 118.767 275.239 110.143 274.323C109.834 274.29 109.439 274.169 109.432 273.858C109.273 266.604 109.113 259.35 108.953 252.096C108.944 251.674 108.737 251.089 108.329 251.201C107.044 251.552 105.751 250.359 105.485 249.054C105.219 247.748 105.676 246.416 106.125 245.161C106.333 244.582 106.567 243.967 107.064 243.604C108.126 242.828 110.09 243.38 110.566 242.154C110.644 241.951 110.659 241.729 110.652 241.512C110.585 239.618 108.821 238.123 106.963 237.748C105.105 237.374 103.19 237.866 101.38 238.431C100.966 236.866 100.859 235.22 101.069 233.615C101.119 233.236 101.196 232.838 101.45 232.553C101.813 232.147 102.418 232.09 102.962 232.061C116.569 231.34 130.176 230.618 143.784 229.897ZM107.504 244.593C107.242 244.897 107.184 245.321 107.137 245.719C107.014 246.757 106.892 247.795 106.769 248.833C106.743 249.051 106.719 249.281 106.807 249.483C106.995 249.914 107.565 249.989 108.035 250C110.533 250.062 113.031 250.124 115.529 250.186C115.95 250.197 116.392 250.203 116.767 250.009C117.368 249.697 117.615 248.85 117.276 248.263C117.582 248.232 117.887 248.201 118.193 248.169C118.058 249.074 118.98 249.832 119.886 249.965C120.791 250.098 121.701 249.822 122.613 249.75C124.526 249.599 126.436 250.349 128.341 250.124C128.541 250.1 128.755 250.058 128.896 249.913C129.079 249.723 129.076 249.426 129.061 249.163C128.988 247.898 128.916 246.633 128.844 245.368C128.821 244.97 128.787 244.542 128.531 244.236C128.166 243.799 127.511 243.785 126.942 243.807C124.192 243.913 121.442 244.02 118.691 244.126C118.499 244.134 118.287 244.15 118.154 244.289C118.005 244.444 118.015 244.688 118.035 244.902C118.128 245.886 118.22 246.871 118.312 247.855C117.948 247.89 117.59 247.997 117.265 248.167C117.184 247.392 117.103 246.616 117.021 245.841C116.947 245.134 116.67 244.228 115.96 244.218C113.69 244.188 111.42 244.158 109.15 244.127C108.56 244.12 107.889 244.146 107.504 244.593ZM120.581 252.223C120.543 251.701 120.317 251.01 119.796 251.066C116.56 251.414 113.284 251.394 110.052 251.006C110.131 258.049 110.263 265.091 110.445 272.132C110.469 273.038 111.613 273.401 112.514 273.494C115.193 273.768 117.89 273.862 120.582 273.774C120.802 273.767 121.041 273.752 121.209 273.608C121.43 273.421 121.445 273.09 121.441 272.8C121.364 265.935 121.077 259.071 120.581 252.223ZM136.767 251.835C136.678 251.684 136.476 251.652 136.301 251.637C133.517 251.401 130.718 251.335 127.926 251.439C127.673 251.448 127.402 251.465 127.202 251.62C126.897 251.855 126.879 252.3 126.887 252.685C127.041 259.714 127.195 266.743 127.349 273.772C130.423 274.069 133.553 273.779 136.52 272.922C136.704 272.868 136.9 272.805 137.02 272.654C137.148 272.492 137.157 272.268 137.16 272.061C137.218 267.539 137.101 263.016 136.984 258.495C136.929 256.365 136.874 254.235 136.819 252.105C136.817 252.012 136.813 251.915 136.767 251.835ZM102.243 234.016C101.709 234.856 102.283 236.04 103.16 236.509C104.038 236.978 105.089 236.933 106.082 236.875C112.091 236.527 118.099 236.179 124.107 235.831C129.837 235.499 135.568 235.167 141.288 234.701C142.126 234.633 143.006 234.547 143.699 234.07C144.391 233.593 144.793 232.585 144.329 231.884C143.863 231.181 142.861 231.149 142.019 231.193C129.535 231.837 117.05 232.481 104.565 233.124C103.703 233.169 102.707 233.287 102.243 234.016M126.258 273.608C125.836 266.747 125.752 259.864 126.008 252.995C126.023 252.6 126.036 252.189 125.878 251.827C125.418 250.77 123.939 250.773 122.799 250.949C122.278 251.03 121.613 251.279 121.652 251.805C122.141 258.376 122.63 264.958 122.52 271.546C122.505 272.419 123.005 273.281 123.769 273.702C124.533 274.124 125.528 274.086 126.258 273.608ZM139.152 248.277C139.004 247.37 138.849 246.444 138.407 245.638C137.965 244.833 137.173 244.158 136.255 244.112C134.512 244.026 132.768 243.939 131.025 243.852C130.571 243.829 129.944 243.966 129.966 244.42C130.032 245.8 130.099 247.179 130.165 248.559C130.194 249.161 130.306 249.888 130.865 250.117C131.044 250.19 131.244 250.196 131.438 250.2C133.711 250.252 135.984 250.304 138.257 250.356C138.691 250.366 139.055 249.985 139.173 249.567C139.292 249.15 139.222 248.705 139.152 248.277ZM128.147 241.478C127.919 240.52 127.682 239.54 127.138 238.719C126.593 237.899 125.669 237.258 124.687 237.33C123.173 237.442 121.66 237.553 120.146 237.664C119.203 237.734 118.136 237.869 117.583 238.636C116.915 239.564 117.373 240.859 117.192 241.988C117.129 242.384 117.439 242.764 117.81 242.918C118.181 243.072 118.598 243.054 118.999 243.034C121.708 242.894 124.417 242.755 127.127 242.615C127.525 242.595 128.002 242.522 128.16 242.157C128.252 241.946 128.2 241.703 128.147 241.478ZM132.895 239.743C132.379 239.037 132.392 237.991 132.925 237.298C131.975 236.708 130.645 236.817 129.804 237.553C128.963 238.29 128.68 239.594 129.14 240.613C129.302 240.972 129.209 241.398 129.323 241.775C129.485 242.311 130.045 242.647 130.601 242.716C131.157 242.785 131.714 242.639 132.255 242.495C132.964 242.305 133.828 241.926 133.821 241.191C133.815 240.605 133.24 240.216 132.895 239.743ZM115.964 242.257C116.278 241.228 115.855 240.054 115.047 239.343C114.239 238.632 113.108 238.355 112.036 238.451C111.605 238.49 111.156 238.597 110.845 238.897C110.533 239.196 110.421 239.736 110.702 240.065C110.91 240.308 111.265 240.378 111.482 240.613C111.814 240.97 111.702 241.542 111.854 242.005C112.196 243.051 113.617 243.15 114.714 243.05C115.089 243.016 115.504 242.963 115.751 242.678C115.855 242.558 115.917 242.409 115.964 242.257ZM116.141 238.795C116.396 238.549 116.442 238.116 116.245 237.822C115.807 237.692 115.318 237.953 115.087 238.347C115.259 238.739 115.74 238.966 116.151 238.848M128.636 237.702C128.7 237.53 128.662 237.325 128.542 237.187C128.126 237.055 127.642 237.173 127.334 237.481C127.651 237.841 128.229 237.938 128.647 237.702L128.636 237.702Z" fill="#00160A"/>
<path fill-rule="evenodd" clip-rule="evenodd" d="M296.136 208.533C282.816 213.741 269.496 218.95 256.176 224.159C250.446 226.399 243.817 229.762 243.203 235.884C250.986 229.896 260.601 226.322 270.406 225.773C263.632 234.307 255.079 241.423 245.454 246.53C236.811 251.117 225.867 256.009 225.126 265.766C234.409 254.712 248.681 248.02 263.116 247.953C253.881 261.479 239.073 271.073 222.954 273.973C223.507 278.129 224.06 282.286 224.614 286.442C230.09 286.248 235.601 287.032 240.806 288.745C244.513 304.671 248.221 320.598 251.928 336.524C252.84 340.443 253.643 344.947 251.243 348.177C248.862 351.381 244.366 351.932 240.384 352.215C224.691 353.331 208.997 354.447 193.303 355.562C191.424 347.05 189.545 338.537 187.666 330.024C161.195 332.482 134.723 334.94 108.251 337.398C102.677 337.916 96.7807 338.38 91.7362 335.951C73.4393 327.143 51.2536 344.193 31.9284 337.955C48.9076 337.635 65.8345 334.673 81.9138 329.209C87.7451 327.228 94.7272 321.8 91.6803 316.447C76.7689 326.852 57.6362 331.005 39.7529 327.72C40.8029 310.353 40.1276 292.882 37.7402 275.648C50.4649 273.828 63.0051 270.721 75.1078 266.39C78.4743 265.186 81.9377 263.799 84.335 261.147C86.7324 258.494 87.7016 254.208 85.5952 251.319C67.1872 261.128 45.9331 265.518 25.1453 263.805C26.23 287.326 27.3147 310.848 28.3994 334.369C25.3268 310.865 23.6972 287.171 23.5231 263.467C34.2238 262.519 44.9245 261.57 55.6252 260.621C53.9046 252.983 52.1732 245.17 53.057 237.391C53.9409 229.611 57.9448 221.733 64.9826 218.302C59.6582 206.946 51.6114 196.877 41.7084 189.18C30.0992 180.157 15.1734 173.355 9.87198 159.64C6.3667 150.572 8.08608 140.025 12.9397 131.602C17.7933 123.178 25.4843 116.689 33.8435 111.726C22.3349 108.768 13.6177 97.2957 13.8509 85.4153C14.0841 73.5349 23.2449 62.4138 34.8607 59.9095C29.3841 53.3832 20.7605 50.3919 14.4615 44.6553C7.12362 37.9725 3.43628 27.1926 6.10918 17.6344C8.78207 8.07619 18.193 0.555965 28.1089 0.979713C36.2539 1.32778 43.4216 6.47931 49.1071 12.3221C57.9245 21.3835 64.4822 32.6275 68.0276 44.7637C70.3907 52.8529 79.0513 56.9681 86.3654 61.1544C93.6794 65.3406 101.275 72.6326 99.2142 80.8041C96.4898 69.6223 87.3415 60.2495 76.229 57.2549C70.4387 55.6945 68.3284 48.804 66.4659 43.1037C62.8414 32.0111 56.6541 21.7646 48.5249 13.3922C42.4156 7.10018 34.4281 1.60968 25.6709 2.08238C16.6559 2.569 8.70889 9.90225 6.64783 18.692C4.58677 27.4818 8.04241 37.113 14.6204 43.2967C21.3205 49.5952 30.9056 52.6805 36.3073 60.1226C24.5918 62.5034 15.3297 73.7779 15.2681 85.7327C15.2066 97.6874 24.3522 109.057 36.0425 111.558C27.8041 116.38 20.0953 122.506 15.0125 130.587C9.9297 138.667 7.75084 148.923 10.7921 157.971C17.8265 178.9 47.146 183.896 57.4928 203.401C60.2951 194.197 56.1874 184.519 54.0761 175.132C51.9649 165.745 53.1582 153.691 61.91 149.694C59.3522 137.366 56.7945 125.038 54.2367 112.711C52.3308 103.524 51.3745 91.886 59.277 86.8294C53.709 85.1025 48.7673 81.4243 45.5151 76.5863C49.0272 81.9621 55.7916 85.0123 62.1457 84.0855C54.116 66.679 45.2126 49.6755 35.4804 33.1604C45.967 48.9724 55.2479 65.5838 63.2161 82.8029C100.07 81.8058 136.981 82.9412 173.704 86.2016C178.58 86.6344 183.828 87.2646 187.432 90.5767C192.611 95.3364 200.388 97.0723 207.1 94.9673C209.235 100.261 210.806 106.207 208.991 111.619C207.176 117.031 200.746 121.162 195.606 118.679C196.947 125.582 198.289 132.485 199.631 139.387C212.773 139.545 225.913 139.813 239.05 140.192C246.013 140.393 253.291 140.71 259.342 144.159C265.394 147.609 269.664 155.25 266.969 161.673C268.688 156.365 270.407 151.057 272.126 145.749C278.186 155.368 281.163 166.897 280.515 178.247C282.615 175.053 284.714 171.859 286.813 168.665C279.355 156.927 278.406 141.326 284.385 128.77C290.25 138.482 293.553 149.725 293.874 161.066C296.061 140.627 310.542 121.993 329.808 114.828C326.466 122.53 323.123 130.232 319.781 137.934C316.919 144.528 313.283 151.842 306.407 153.937C301.871 155.319 295.303 155.236 294.48 159.906C307.509 156.489 321.376 156.32 334.485 159.418C324.384 171.562 304.919 174.552 291.638 166C285.373 172.987 279.945 180.725 275.506 188.994C283.046 179.623 294.779 173.764 306.8 173.365C300.342 180.998 293.057 187.931 285.115 194.004C289.331 194.409 293.888 194.964 296.946 197.894C300.003 200.824 300.08 206.991 296.136 208.533ZM120.311 131.614C123.805 131.574 127.718 131.698 130.156 134.2C132.017 136.108 132.515 138.923 132.921 141.558C134.776 153.604 136.512 165.669 138.13 177.75C138.536 180.78 135.996 183.576 133.093 184.537C130.191 185.498 127.035 185.076 124.009 184.645C126.532 182.466 130.793 184.028 133.509 182.095C135.945 180.362 135.931 176.803 135.639 173.827C134.545 162.672 133.056 151.555 131.175 140.505C130.843 138.552 130.436 136.474 129.052 135.055C127.209 133.167 124.265 133.041 121.627 133.038C110.796 133.024 99.9652 133.011 89.1345 132.997C87.2678 132.995 85.3037 133.017 83.6831 133.943C79.0196 136.609 80.7388 143.649 83.057 148.495C89.6244 147.163 96.3349 146.539 103.035 146.636C108.971 146.723 116.373 148.65 117.374 154.502C119.573 167.357 121.772 180.212 123.971 193.067C125.124 199.807 125.759 207.996 120.373 212.209C117.681 214.314 114.109 214.815 110.719 215.244C102.384 216.298 94.0489 217.352 85.7137 218.405C89.1853 248.802 92.6569 279.199 96.1284 309.595C96.5156 312.985 97.2246 316.883 100.206 318.543C101.969 319.526 104.109 319.445 106.124 319.335C132.683 317.887 159.215 315.969 185.705 313.583C184.646 311.168 184.625 308.319 185.649 305.889C188.332 321.597 191.015 337.305 193.698 353.012C198.396 349.774 197.674 342.746 196.426 337.178C193.269 323.082 190.111 308.985 186.954 294.889C185.675 297.234 184.397 299.58 183.118 301.925C182.491 298.997 184.248 295.967 186.684 294.227C189.121 292.486 192.124 291.772 195.053 291.144C204.055 289.214 213.154 287.74 222.305 286.729C219.646 267.97 216.987 249.21 214.327 230.451C197.978 234.942 180.664 233.528 163.771 232.08C158.767 231.651 152.409 229.967 151.931 224.968C150.732 212.401 149.532 199.834 148.333 187.267C148.177 185.629 147.227 183.422 145.665 183.938C141.824 185.206 139.54 179.734 139.226 175.702C138.24 163.056 137.254 150.409 136.268 137.762C136.138 136.103 136.105 134.189 137.342 133.077C138.208 132.298 139.455 132.155 140.615 132.049C148.89 131.292 157.165 130.536 165.44 129.779C170.166 129.347 175.534 129.124 178.972 132.394C181.399 134.702 182.213 138.201 182.726 141.511C183.67 147.611 183.982 153.808 183.657 159.972C183.001 153.947 182.345 147.922 181.69 141.897C181.395 139.186 181.034 136.311 179.322 134.189C176.399 130.567 170.96 130.628 166.321 131.01C158.035 131.692 149.749 132.373 141.463 133.055C140.347 133.147 139.137 133.279 138.326 134.051C137.271 135.055 137.3 136.717 137.406 138.17C138.294 150.392 139.182 162.614 140.069 174.836C140.237 177.143 140.465 179.609 141.924 181.404C143.382 183.2 146.546 183.763 147.909 181.894C146.042 177.79 148.624 172.765 152.446 170.373C156.269 167.982 160.96 167.561 165.454 167.202C173.206 166.583 180.957 165.965 188.709 165.347C188.177 149.303 186.447 133.299 183.537 117.512C180.856 116.762 178.415 115.178 176.638 113.034C175.309 116.458 171.35 118.635 167.746 117.921C164.143 117.208 161.311 113.687 161.387 110.015C160.96 114.241 157.278 117.907 153.05 118.316C148.822 118.724 144.506 115.832 143.277 111.766C141.252 114.024 138.624 115.97 135.604 116.245C132.583 116.52 129.242 114.612 128.751 111.619C124.784 116.765 115.565 116.243 112.205 110.682C108.749 116.386 98.9089 116.246 95.6165 110.446C94.1381 115.808 85.8854 116.237 81.9241 112.332C77.9627 108.428 77.1915 102.412 76.6403 96.8773C70.1015 103.178 68.9218 113.299 70.1629 122.294C71.4039 131.289 74.638 139.954 75.4225 149C77.2139 149.45 79.1788 149.166 80.769 148.226C79.0514 143.035 77.9218 136.062 82.5846 133.207C84.4549 132.061 86.7694 132.003 88.9623 131.977C99.412 131.856 109.862 131.735 120.311 131.614ZM223.829 218.97C237.537 218.289 251.677 220.076 264.704 215.755C266.72 215.087 268.785 214.206 270.083 212.526C266.756 210.996 263.222 208.359 263.304 204.698C263.357 202.294 265.023 200.215 266.9 198.712C268.871 197.133 271.165 195.961 273.599 195.289C273.796 194.687 272.737 194.556 272.212 194.912C271.687 195.268 270.891 195.709 270.542 195.179C270.448 195.037 270.429 194.86 270.413 194.691C269.105 181.385 267.168 168.142 264.609 155.019C263.84 151.074 262.696 146.679 259.219 144.663C257.341 143.574 255.091 143.391 252.926 143.241C236.625 142.114 220.295 141.423 203.958 141.17C200.097 141.11 195.777 141.254 193.071 144.008C191.017 146.097 190.429 149.2 190.212 152.121C189.538 161.166 191.476 170.17 192.736 179.153C194.245 189.913 194.789 200.782 195.784 211.601C195.917 213.041 196.077 214.541 196.856 215.76C198.191 217.848 200.902 218.503 203.357 218.847C206.983 219.356 210.651 219.571 214.312 219.49C217.489 219.42 220.656 219.127 223.829 218.97ZM111.333 149.174C106.693 147.134 101.378 147.68 96.3427 148.265C88.7264 149.149 81.1101 150.033 73.4938 150.918C69.8332 151.343 66.1689 151.768 62.5475 152.451C61.6744 152.616 60.7984 152.797 59.9746 153.13C56.7468 154.434 54.8223 157.915 54.3746 161.368C53.9268 164.82 54.6942 168.301 55.4299 171.704C57.7163 182.28 59.744 192.955 60.2941 203.762C60.403 205.901 60.4577 208.069 61.0457 210.128C61.6336 212.188 62.8343 214.17 64.7115 215.201C66.1555 215.995 67.8519 216.16 69.4962 216.268C84.5672 217.258 99.6301 214.828 114.538 212.406C116.659 212.061 118.891 211.668 120.544 210.295C123.098 208.175 123.48 204.446 123.461 201.127C123.427 194.998 122.685 188.873 121.254 182.913C119.581 175.942 116.954 169.085 116.884 161.917C116.853 158.755 117.268 155.348 115.619 152.651C114.644 151.057 113.044 149.926 111.333 149.174ZM39.6175 281.912C41.6434 296.469 42.3241 311.213 41.6479 325.894C41.6123 326.668 42.5527 327.062 43.3136 327.208C53.0595 329.07 63.0962 326.684 72.5532 323.681C77.929 321.974 83.3091 320.028 87.9585 316.835C90.0854 315.374 92.2376 313.173 91.8399 310.624C89.2849 294.245 87.8795 277.687 87.6377 261.112C79.0328 267.836 68.1132 270.689 57.5301 273.381C52.5142 274.657 47.4303 275.942 42.2547 275.898C41.0036 275.888 39.9648 276.987 39.6151 278.188C39.2655 279.39 39.445 280.673 39.6174 281.912M237.408 289.27C221.29 287.701 204.847 289.544 189.477 294.644C190.399 301.664 191.661 308.641 193.254 315.54C193.892 318.303 194.583 321.053 195.274 323.803C196.62 329.159 197.966 334.514 199.312 339.87C199.5 340.615 199.734 341.43 200.377 341.852C200.95 342.228 201.692 342.185 202.376 342.128C218.292 340.801 234.199 339.363 250.095 337.814C246.62 322.324 243.145 306.833 239.67 291.343C239.536 290.748 239.375 290.107 238.902 289.722C238.492 289.389 237.934 289.322 237.408 289.27M213.648 221.271C210.141 221.45 206.581 221.624 203.156 220.846C199.732 220.068 196.399 218.202 194.641 215.162C193.631 216.324 191.624 216.411 190.518 215.341C189.411 214.271 189.431 212.262 190.559 211.214C186.104 211.255 181.648 211.295 177.193 211.335C179.229 212.534 179.061 216.071 176.957 217.145C174.852 218.219 171.938 216.405 171.889 214.042C171.867 212.982 172.518 211.791 173.574 211.696C173.136 210.945 171.999 211.389 171.134 211.308C169.83 211.184 169.117 209.764 168.66 208.536C166.805 203.56 165.117 198.522 163.43 193.486C164.611 195.42 167.272 196.29 169.368 195.428C170.109 195.123 170.131 194.058 169.816 193.322C169.266 192.037 168.011 191.047 166.617 190.937C165.224 190.828 163.773 191.68 163.302 192.996C162.604 192.473 162.901 191.266 163.634 190.793C164.367 190.32 165.305 190.361 166.176 190.414C174.394 190.91 182.642 190.902 190.859 190.39C191.233 190.367 191.645 190.325 191.9 190.051C192.189 189.74 192.161 189.261 192.115 188.84C191.801 185.949 191.487 183.059 191.173 180.169C191.138 179.848 191.088 179.498 190.849 179.282C190.585 179.044 190.188 179.055 189.833 179.08C179.533 179.814 169.26 180.923 159.04 182.403C157.953 182.561 156.941 181.648 156.597 180.604C156.254 179.559 156.413 178.425 156.575 177.338C156.632 176.956 156.704 176.543 156.987 176.281C157.247 176.039 157.624 175.982 157.977 175.937C168.609 174.58 179.31 173.766 190.026 173.498C189.766 174.557 188.385 174.785 187.295 174.804C177.351 174.981 167.417 175.778 157.571 177.19C156.785 178.534 157.863 180.345 159.314 180.91C160.765 181.476 162.391 181.174 163.921 180.886C172.357 179.298 180.915 178.362 189.495 178.09C190.719 178.051 190.866 176.288 190.608 175.09C190.011 172.307 189.413 169.525 188.815 166.742C182.874 167.868 176.804 168.317 170.762 168.078C167.187 167.936 163.631 168.561 160.107 169.184C157.113 169.713 153.921 170.34 151.757 172.476C149.228 174.973 148.774 178.878 148.928 182.429C149.18 188.255 150.658 193.954 151.388 199.74C152.28 206.808 152.05 213.974 152.735 221.066C152.919 222.977 153.183 224.923 154.039 226.641C154.896 228.359 156.453 229.834 158.352 230.117C173.953 232.443 189.86 232.707 205.53 230.9C206.977 230.733 208.437 230.545 209.804 230.04C211.961 229.242 213.81 227.643 214.91 225.623C215.352 224.813 215.681 223.886 215.52 222.977C215.359 222.068 214.57 221.224 213.648 221.271ZM88.9235 261.126C90.5562 279.089 92.1889 297.052 93.8216 315.015C94.1151 318.243 94.3975 321.578 93.3884 324.659C92.3793 327.74 89.7246 330.525 86.4844 330.631C88.3867 333.413 91.6699 335.005 94.9897 335.587C98.3095 336.169 101.713 335.861 105.07 335.551C132.724 332.996 160.378 330.441 188.032 327.886C187.439 324.43 186.845 320.974 186.251 317.518C186.118 316.743 185.737 315.759 184.953 315.818C165.939 317.235 146.925 318.652 127.911 320.069C120.103 320.651 112.257 321.232 104.454 320.594C100.505 320.271 95.6283 318.702 95.2386 314.759C92.1215 283.215 88.5127 251.719 84.4141 220.286C84.351 219.803 84.2728 219.286 83.9422 218.927C83.501 218.449 82.7706 218.412 82.1197 218.409C78.2316 218.389 74.3436 218.369 70.4555 218.35C71.5911 224.791 73.0651 231.173 74.8694 237.46C75.2029 238.622 75.7576 239.978 76.9481 240.187C81.2232 240.938 84.5974 244.455 86.3563 248.423C88.1152 252.391 88.5306 256.803 88.9235 261.126ZM73.9854 149.316C70.6482 132.39 67.8246 115.362 65.5198 98.2648C65.3895 97.2979 65.2633 96.2952 65.5479 95.362C66.1344 93.4383 68.2385 92.4303 70.1952 91.9661C74.0208 91.0587 78.0156 91.3614 81.9366 91.6505C117.786 94.2939 153.751 95.3516 189.694 94.8196C188.264 91.9201 185.389 89.9426 182.332 88.8939C179.274 87.8452 176.006 87.6124 172.781 87.3895C141.142 85.203 109.456 83.154 77.7438 83.5359C73.864 83.5826 69.9388 83.6719 66.1925 84.6822C62.4462 85.6925 58.8418 87.7273 56.6805 90.9497C53.2747 96.0276 54.0985 102.735 55.1526 108.758C57.6212 122.862 60.6245 136.872 64.1539 150.749C67.4311 150.271 70.7082 149.794 73.9854 149.316ZM151.175 116.234C152.888 116.252 154.668 116.156 156.184 115.358C158.854 113.952 160.039 110.714 160.216 107.702C160.392 104.69 159.797 101.672 159.989 98.6605C160.033 97.9742 160.416 97.0646 161.082 97.2369C161.564 100.703 162.046 104.17 162.528 107.636C162.795 109.55 163.071 111.499 163.91 113.24C164.748 114.981 166.256 116.511 168.153 116.875C169.243 117.085 170.381 116.897 171.419 116.506C173.906 115.572 175.991 113.192 175.896 110.537C175.765 106.871 175.635 103.205 175.504 99.539C175.453 98.0887 174.914 96.1562 173.464 96.2322C163.802 96.7385 154.111 96.6938 144.455 96.0983C143.75 96.0549 143.565 97.0526 143.639 97.7542C144.026 101.39 144.412 105.026 144.799 108.662C145.091 111.408 145.714 114.634 148.233 115.764C149.145 116.173 150.174 116.223 151.175 116.234ZM200.73 344.396C200.267 344.721 199.961 345.22 199.68 345.71C198.214 348.261 197.037 350.977 196.176 353.79C213.089 352.609 229.989 351.235 246.871 349.671C247.506 349.613 248.194 349.53 248.649 349.084C248.945 348.794 249.096 348.392 249.239 348.004C249.871 346.288 250.503 344.571 251.135 342.854C251.442 342.019 251.715 340.98 251.114 340.323C250.615 339.778 249.765 339.795 249.028 339.854C233.593 341.091 218.165 342.422 202.747 343.849C202.045 343.914 201.307 343.992 200.73 344.396ZM230.544 240.194C230.087 234.858 229.155 228.869 224.801 225.752C223.101 230.431 221.386 235.181 220.997 240.144C220.609 245.108 221.705 250.397 225.035 254.099C225.502 254.619 226.023 255.124 226.271 255.778C226.519 256.432 226.393 257.295 225.785 257.642C221.26 253.705 219.387 247.39 219.493 241.392C219.599 235.395 221.437 229.579 223.258 223.864C223.659 222.609 222.514 221.288 221.229 220.995C219.944 220.702 218.617 221.132 217.369 221.556C217.126 221.638 217.019 221.916 216.943 222.16C216.08 224.91 215.209 227.825 215.877 230.627C218.757 242.704 218.385 255.379 221.316 267.443C221.424 267.888 221.541 268.343 221.801 268.721C223.744 264.921 225.688 261.12 227.632 257.32C228.545 255.534 229.464 253.735 230.034 251.812C231.142 248.073 230.877 244.08 230.544 240.194ZM299.305 152.534C299.68 152.844 300.184 152.941 300.668 152.996C306.164 153.61 311.351 149.869 314.395 145.251C317.439 140.633 318.877 135.177 320.872 130.019C322.745 125.177 325.14 120.538 328.003 116.208C322.272 121.587 315.215 125.353 309.232 130.451C303.249 135.548 298.158 142.698 298.58 150.547C298.619 151.272 298.744 152.072 299.305 152.534M79.1624 100.522C79.9437 103.947 79.6207 107.753 81.5183 110.71C83.358 113.576 87.2385 114.942 90.4678 113.86C93.6971 112.778 95.9715 109.35 95.7132 105.954C95.6545 105.182 95.4803 104.425 95.3067 103.67C94.6263 100.715 93.9459 97.7604 93.2655 94.8054C93.1978 94.5114 93.1221 94.2021 92.9137 93.9841C92.6147 93.6715 92.1362 93.6351 91.704 93.6185C87.5473 93.4594 83.3907 93.3003 79.2341 93.1411C78.8342 93.1258 78.3953 93.1228 78.0845 93.3748C77.6911 93.6937 77.6686 94.2797 77.7197 94.7835C77.9192 96.7484 78.7231 98.5965 79.1624 100.522M191.679 103.717C191.778 108.448 194.86 112.562 198.111 116.001C198.428 116.337 198.754 116.674 199.151 116.911C199.792 117.294 200.573 117.385 201.317 117.321C203.828 117.105 205.976 115.206 207.036 112.92C208.096 110.633 208.216 108.017 207.988 105.507C207.759 102.997 207.204 100.525 206.98 98.0146C206.935 97.5111 206.75 96.8538 206.244 96.8558C201.801 96.8728 197.357 96.8898 192.913 96.9068C192.345 96.909 191.742 96.9207 191.262 97.2249C190.782 97.5291 190.514 98.2398 190.87 98.6828C191.958 100.036 191.642 101.981 191.679 103.717ZM259.256 250.061C247.081 249.847 235.92 257.065 227.404 265.768C225.968 267.236 224.567 268.775 223.611 270.591C223.442 270.913 223.309 271.36 223.586 271.595C223.733 271.72 223.944 271.728 224.137 271.727C231.221 271.702 238.033 268.71 243.788 264.581C249.543 260.451 254.392 255.21 259.256 250.061ZM108.605 113.001C110.344 112 111.463 110.006 111.413 108C111.387 106.982 111.086 105.995 110.845 105.006C110.222 102.462 109.981 99.8257 110.13 97.211C110.161 96.6541 110.209 96.082 110.041 95.5499C109.874 95.0178 109.43 94.5285 108.873 94.4981C104.272 94.2469 99.6713 93.9956 95.0705 93.7444C94.905 93.7354 94.7245 93.7305 94.5909 93.8286C94.3837 93.9805 94.3954 94.2885 94.4338 94.5425C95 98.2864 96.8117 101.813 96.9279 105.598C96.9707 106.99 96.7845 108.418 97.1745 109.755C97.6739 111.468 99.1004 112.82 100.756 113.487C102.411 114.153 104.268 114.191 106.024 113.874C106.922 113.712 107.814 113.456 108.605 113.001ZM292.7 164.257C296.032 165.197 298.978 167.162 302.211 168.402C309.377 171.151 317.907 170.003 324.091 165.458C326.747 163.507 329.403 161.556 332.059 159.604C328.821 160.37 325.473 160.664 322.152 160.472C316.602 160.152 311.122 158.49 305.579 158.907C300.864 159.261 296.278 161.166 292.7 164.257M197.55 138.616C196.895 134.988 196.24 131.36 195.585 127.732C194.708 122.87 193.83 118.007 192.952 113.145C192.89 112.8 192.814 112.43 192.559 112.19C192.303 111.95 191.804 111.949 191.665 112.271C190.789 114.294 188.994 115.898 186.885 116.543C185.605 116.933 185.496 118.679 185.644 120.009C186.694 129.39 187.936 138.75 189.37 148.08C189.787 144.264 193.057 140.95 196.867 140.482C197.608 140.391 197.683 139.351 197.55 138.616M127.547 109.107C127.14 105.196 126.626 101.296 126.007 97.413C125.879 96.6122 125.538 95.6139 124.728 95.5784C120.541 95.3947 116.353 95.211 112.166 95.0272C112.016 95.0207 111.859 95.0159 111.727 95.0859C111.389 95.2651 111.444 95.7581 111.543 96.1275C112.509 99.7131 113.022 103.42 113.065 107.134C113.076 108.047 113.065 108.996 113.448 109.826C114.01 111.047 115.292 111.748 116.509 112.318C118.632 113.313 120.952 114.187 123.268 113.826C125.583 113.465 127.789 111.438 127.547 109.107ZM129.358 109.129C129.78 111.175 130.554 113.556 132.559 114.144C134.251 114.641 136.08 114.777 137.778 114.299C139.475 113.821 141.022 112.681 141.782 111.09C142.322 109.957 142.444 108.675 142.514 107.422C142.707 103.989 142.575 100.538 142.119 97.1301C142.094 96.9477 142.067 96.7601 141.975 96.6008C141.731 96.1777 141.155 96.1183 140.666 96.1077C136.402 96.0148 132.138 95.9219 127.874 95.829C127.526 95.8214 127.039 96.1835 127.334 96.3695C127.811 100.651 128.487 104.91 129.358 109.129ZM272.639 151.478C269.308 159.009 268.328 167.56 269.866 175.65C270.481 178.882 271.69 182.311 274.487 184.042C275.31 184.551 276.683 184.702 276.987 183.783C280.526 173.107 278.875 160.839 272.639 151.478ZM56.7312 246.033C58.1443 247.002 59.7372 247.709 61.4044 248.106C63.511 248.608 65.6989 248.614 67.8639 248.666C72.923 248.788 77.9756 249.176 82.9941 249.827C83.6943 249.918 84.273 249.16 84.2545 248.454C84.236 247.749 83.8067 247.125 83.3617 246.577C80.6851 243.28 76.7764 241.007 72.5868 240.313C69.6189 239.82 66.5842 240.096 63.577 240.01C60.5698 239.923 57.4308 239.414 55.0327 237.597C54.9058 239.325 54.8956 241.061 55.0025 242.79C55.0457 243.489 55.1164 244.215 55.473 244.819C55.7719 245.324 56.2467 245.7 56.7312 246.033M178.447 111.852C178.919 112.709 179.677 113.368 180.453 113.963C181.294 114.608 182.203 115.211 183.236 115.448C185.78 116.031 188.381 114.146 189.454 111.766C190.526 109.387 190.417 106.659 190.169 104.061C189.981 102.097 189.726 100.139 189.403 98.1926C189.349 97.868 189.287 97.5286 189.083 97.2705C188.724 96.8177 188.069 96.7652 187.492 96.7499C184.391 96.6674 181.289 96.585 178.188 96.5026C177.501 96.4843 176.526 96.8128 176.73 97.4687C177.643 100.405 178.041 103.501 177.9 106.573C177.818 108.365 177.58 110.281 178.447 111.852M288.204 166.374C291.497 161.06 292.482 154.37 290.862 148.332C289.429 142.994 286.099 138.266 285.043 132.84C282.582 140.308 280.104 148.345 282.331 155.886C283.472 159.75 285.776 163.158 288.204 166.374ZM233.654 249.973C243.448 247.451 252.487 242.073 259.378 234.671C261.439 232.456 263.549 230.287 265.707 228.165C260.422 228.89 255.263 230.524 250.525 232.975C243.297 236.713 236.955 242.535 233.654 249.973M293.32 184.97C296.922 181.585 300.524 178.2 304.125 174.815C291.944 176.368 280.569 183.406 273.743 193.614C275.503 194.969 278.027 194.171 280.079 193.322C282.933 192.142 285.812 190.948 288.353 189.192C290.143 187.956 291.735 186.46 293.32 184.97ZM56.4201 258.952C56.4504 259.264 56.4874 259.595 56.6769 259.846C57.0915 260.395 57.9368 260.26 58.597 260.067C66.1555 257.858 73.6079 255.287 80.92 252.364C81.4471 252.153 82.0621 251.819 82.0726 251.252C76.4631 250.863 70.8537 250.474 65.2442 250.085C63.8722 249.989 62.4948 249.894 61.1498 249.606C59.1265 249.175 57.1973 248.307 55.5312 247.081C55.6533 251.048 56.0368 255.001 56.4201 258.952M233.619 220.998C233.167 221.325 232.984 221.901 232.828 222.438C232.294 224.278 231.758 226.23 232.253 228.081C232.506 229.024 233.013 229.875 233.515 230.713C234.901 233.031 236.287 235.348 237.674 237.666C237.803 237.881 237.943 238.108 238.165 238.225C238.828 238.572 239.481 237.756 239.789 237.074C241.784 232.648 243.825 227.968 243.372 223.134C243.302 222.391 243.101 221.547 242.436 221.206C242.131 221.05 241.777 221.03 241.435 221.013C239.379 220.911 237.324 220.809 235.268 220.707C234.699 220.678 234.081 220.664 233.619 220.998ZM265.037 204.612C264.984 207.728 267.702 210.332 270.682 211.239C273.663 212.146 276.862 211.755 279.96 211.423C285.406 210.838 291.167 210.356 295.645 207.2C296.638 206.499 297.578 205.635 298.021 204.504C298.714 202.738 298.018 200.653 296.716 199.274C295.415 197.895 293.61 197.106 291.804 196.528C285.35 194.462 278.185 194.7 271.882 197.189C268.557 198.503 265.097 201.038 265.037 204.612M55.9072 236.433C56.4939 236.981 57.6831 237.121 57.9119 236.351C58.6957 233.716 60.4579 231.457 62.5337 229.654C64.6095 227.851 67.0029 226.459 69.3802 225.078C70.0215 224.705 69.9811 223.781 69.8572 223.05C69.6171 221.634 69.3771 220.218 69.137 218.801C69.0762 218.442 68.9562 218.014 68.605 217.918C68.3177 217.84 68.0337 218.034 67.7989 218.218C66.0934 219.549 64.3879 220.881 62.6824 222.213C59.2651 224.882 55.6028 227.943 54.8617 232.215C54.6035 233.704 54.8027 235.403 55.9072 236.433M69.2113 226.899C65.381 229.292 61.3265 231.94 59.5859 236.107C59.4775 236.366 59.3775 236.639 59.386 236.92C59.4028 237.474 59.8495 237.942 60.3617 238.154C60.8738 238.367 61.4443 238.377 61.9989 238.384C65.2779 238.422 68.5568 238.461 71.8358 238.499C71.9953 238.501 72.1684 238.499 72.2942 238.401C72.4931 238.246 72.4728 237.944 72.4334 237.695C71.9103 234.39 71.3873 231.084 70.8642 227.779C70.7898 227.308 70.638 226.746 70.1792 226.618C69.8454 226.525 69.5052 226.716 69.2113 226.899ZM232.12 221.201C229.706 220.578 227.102 220.714 224.765 221.584C225.218 223.069 226.02 224.446 227.088 225.572C230.687 229.367 231.751 234.877 232.16 240.091C232.378 242.876 232.455 245.672 232.39 248.465C233.971 246.026 235.552 243.587 237.133 241.148C237.291 240.906 237.453 240.649 237.47 240.361C237.487 240.072 237.356 239.797 237.223 239.54C235.663 236.528 233.37 233.93 231.923 230.861C230.475 227.792 230.031 223.875 232.12 221.201ZM70.3713 93.5282C69.0397 93.7394 67.5214 94.0778 66.8889 95.2685C66.4516 96.0917 66.5806 97.0878 66.7211 98.0092C67.2999 101.804 67.8786 105.599 68.4573 109.394C71.419 104.069 74.1921 98.6411 76.9645 93.2147C76.4514 92.6345 75.5421 92.7079 74.7771 92.8293C73.3085 93.0623 71.8399 93.2952 70.3713 93.5282ZM252.662 222.389C253.072 222.933 254.142 222.33 253.89 221.697C257.846 222.833 262.158 222.025 265.894 220.299C269.63 218.574 272.892 215.988 276.102 213.414C274.754 213.225 273.406 213.037 272.057 212.848C271.782 212.81 271.426 212.815 271.321 213.072C270.595 214.85 269.032 216.181 267.306 217.021C265.58 217.862 263.681 218.269 261.803 218.669C260.5 218.947 259.197 219.224 257.894 219.502C255.876 219.932 253.6 220.551 252.662 222.389M181.103 194.868C181.357 194.804 181.629 194.728 181.791 194.523C182.042 194.205 181.916 193.747 181.85 193.347C181.785 192.947 181.886 192.414 182.285 192.345C182.65 192.417 182.818 192.849 182.827 193.221C182.836 193.592 182.754 193.979 182.888 194.325C183.187 195.097 184.251 195.127 185.071 195.022C185.557 194.96 186.042 194.899 186.527 194.837C186.679 194.817 186.842 194.793 186.955 194.69C187.314 194.361 186.814 193.824 186.703 193.35C186.617 192.984 186.789 192.588 186.676 192.229C186.485 191.617 185.672 191.523 185.031 191.545C180.132 191.707 175.233 191.87 170.334 192.032C170.418 192.959 170.672 193.871 171.079 194.708C171.166 194.888 171.27 195.074 171.444 195.174C171.62 195.276 171.836 195.269 172.04 195.26C173.258 195.203 174.475 195.146 175.693 195.09C175.797 195.085 175.906 195.078 175.993 195.021C176.215 194.874 176.138 194.535 176.036 194.289C175.86 193.866 175.684 193.442 175.508 193.019C175.355 192.65 176.022 192.432 176.303 192.715C176.584 192.999 176.594 193.443 176.726 193.819C177.001 194.601 177.832 195.077 178.654 195.178C179.476 195.278 180.301 195.072 181.103 194.868M252.251 220.802C252.518 220.518 251.929 220.221 251.542 220.268C249.336 220.539 247.13 220.809 244.924 221.08C244.629 221.116 244.24 221.278 244.31 221.566C245.035 224.535 244.763 227.737 243.548 230.541C243.317 231.075 243.165 231.89 243.718 232.069C246.019 227.94 248.9 224.135 252.251 220.802ZM177.087 197.107C177.018 196.867 176.94 196.616 176.758 196.446C176.551 196.253 176.251 196.204 175.97 196.173C174.524 196.014 173.051 196.114 171.64 196.465C172.081 197.896 172.523 199.328 172.964 200.76C173.048 201.031 173.161 201.336 173.424 201.442C173.559 201.497 173.709 201.487 173.854 201.477C175.281 201.377 176.708 201.277 178.135 201.177C177.826 199.81 177.476 198.453 177.087 197.107ZM167.796 202.114C167.955 202.201 168.149 202.174 168.327 202.145C169.619 201.934 170.911 201.724 172.203 201.513C171.737 200.019 171.27 198.525 170.804 197.031C170.736 196.812 170.651 196.572 170.449 196.462C170.289 196.376 170.095 196.395 169.914 196.416C168.763 196.549 167.611 196.683 166.459 196.817C166.242 196.842 165.986 196.897 165.906 197.099C165.851 197.237 165.903 197.392 165.954 197.53C166.461 198.9 166.969 200.269 167.476 201.639C167.544 201.822 167.625 202.02 167.796 202.114ZM182.312 196.146C182.038 195.908 181.634 195.925 181.274 195.954C180.136 196.048 178.998 196.141 177.86 196.235C178.2 197.693 178.628 199.13 179.142 200.537C179.209 200.721 179.285 200.915 179.442 201.034C179.637 201.181 179.905 201.173 180.15 201.158C180.927 201.112 181.703 201.065 182.48 201.018C182.838 200.996 183.273 200.92 183.393 200.582C183.45 200.42 183.413 200.241 183.375 200.073C183.139 199.021 182.903 197.969 182.667 196.916C182.604 196.635 182.529 196.334 182.312 196.146ZM175.524 206.62C175.412 206.638 175.292 206.659 175.21 206.738C175.05 206.892 175.123 207.157 175.207 207.362C175.506 208.094 175.805 208.825 176.104 209.557C176.215 209.828 176.34 210.117 176.587 210.274C176.816 210.419 177.104 210.422 177.375 210.42C178.407 210.414 179.44 210.408 180.472 210.402C180.623 210.401 180.787 210.395 180.904 210.299C181.115 210.125 181.036 209.79 180.939 209.533C180.542 208.486 180.145 207.439 179.747 206.392C179.62 206.056 179.152 206.052 178.797 206.107C177.706 206.278 176.615 206.449 175.524 206.62M184.21 195.938C183.993 195.939 183.749 195.951 183.603 196.112C183.426 196.305 183.483 196.608 183.549 196.861C183.843 197.971 184.137 199.08 184.43 200.19C184.482 200.385 184.542 200.594 184.698 200.721C184.906 200.891 185.207 200.859 185.472 200.819C186.451 200.669 187.429 200.52 188.408 200.37C188.303 199.234 188.123 198.105 187.869 196.993C187.789 196.646 187.679 196.266 187.378 196.075C187.153 195.932 186.87 195.929 186.603 195.93C185.805 195.933 185.008 195.935 184.21 195.938ZM186.203 210.271C185.885 209.119 185.568 207.968 185.251 206.816C185.13 206.376 184.958 205.877 184.533 205.711C184.323 205.63 184.09 205.648 183.866 205.667C182.822 205.758 181.777 205.849 180.733 205.94C181.008 206.972 181.334 207.99 181.709 208.989C181.898 209.493 182.185 210.063 182.715 210.149C183.867 210.335 185.041 210.376 186.203 210.271ZM188.021 210.191C188.967 210.269 190.006 210.321 190.772 209.759C190.44 208.468 190.108 207.178 189.776 205.888C189.702 205.597 189.602 205.274 189.335 205.135C189.14 205.034 188.905 205.062 188.687 205.092C187.749 205.223 186.811 205.353 185.873 205.484C186.096 206.85 186.475 208.19 186.999 209.471C187.079 209.667 187.17 209.871 187.338 210.001C187.528 210.147 187.782 210.172 188.021 210.191ZM272.383 191.824C273.106 190.34 273.829 188.856 274.552 187.371C274.628 187.215 274.706 187.047 274.678 186.876C274.651 186.709 274.53 186.575 274.414 186.453C273.384 185.364 272.355 184.276 271.326 183.188C270.898 183.772 270.948 184.566 271.016 185.287C271.24 187.653 271.464 190.019 271.688 192.385C272.003 192.455 272.241 192.114 272.383 191.824ZM189.061 195.767C188.926 195.758 188.772 195.755 188.677 195.852C188.571 195.961 188.595 196.137 188.626 196.286C188.829 197.268 189.033 198.251 189.237 199.233C189.312 199.597 189.402 199.986 189.676 200.237C190.565 201.048 192.278 199.653 193.104 200.528C193.25 199.133 193.145 197.712 192.797 196.354C192.773 196.258 192.744 196.157 192.671 196.091C192.586 196.015 192.463 196.004 192.35 195.996C191.253 195.919 190.157 195.843 189.061 195.767ZM168.608 203.053C168.49 203.069 168.366 203.087 168.269 203.156C168.052 203.31 168.061 203.628 168.092 203.891C168.175 204.594 168.266 205.321 168.633 205.925C169.001 206.53 169.727 206.978 170.41 206.794C171.389 206.532 172.368 206.269 173.347 206.007C173.305 205.071 173.115 204.142 172.788 203.264C172.706 203.045 172.604 202.815 172.402 202.696C172.193 202.573 171.932 202.602 171.692 202.634C170.664 202.774 169.636 202.913 168.608 203.053ZM191.444 194.842C191.738 194.797 192.052 194.744 192.271 194.542C192.923 193.939 192.178 192.715 192.707 192.002C192.913 191.723 192.408 191.474 192.061 191.489C190.515 191.554 188.968 191.619 187.422 191.684C187.482 192.324 187.593 192.959 187.754 193.581C187.933 194.275 188.609 194.749 189.309 194.903C190.008 195.057 190.736 194.95 191.444 194.842ZM178.944 203.172C178.744 202.216 177.464 201.992 176.503 202.171C175.543 202.35 174.47 202.697 173.653 202.16C173.705 203.17 173.941 204.17 174.346 205.097C174.431 205.292 174.534 205.495 174.719 205.599C174.928 205.717 175.186 205.68 175.422 205.639C176.369 205.475 177.316 205.312 178.263 205.148C178.732 205.067 179.351 204.696 179.104 204.288C178.907 203.964 179.021 203.544 178.944 203.172M173.094 207.1C172.32 207.231 171.546 207.362 170.772 207.493C170.353 207.564 169.837 207.732 169.793 208.154C169.679 209.222 170.744 210.084 171.796 210.297C172.849 210.509 173.942 210.301 175.011 210.407C174.967 209.499 174.777 208.598 174.45 207.75C174.373 207.548 174.281 207.34 174.109 207.207C173.831 206.993 173.44 207.041 173.094 207.1ZM193.485 205.028C192.458 204.919 191.414 204.973 190.404 205.188C190.962 206.517 191.358 207.914 191.582 209.338C191.684 209.991 192.616 210.004 193.257 209.841C193.496 209.78 193.756 209.704 193.893 209.499C194.01 209.322 194.004 209.093 193.994 208.881C193.94 207.708 193.885 206.536 193.83 205.363C193.826 205.289 193.821 205.211 193.779 205.15C193.716 205.06 193.594 205.039 193.485 205.028M176.718 215.534C177.687 214.568 177.19 212.617 175.878 212.231C174.566 211.845 173.092 213.216 173.382 214.553C173.683 215.935 175.717 216.533 176.718 215.534M184.328 204.206C184.944 203.402 184.022 202.216 183.025 202.041C182.027 201.866 181.016 202.248 180.003 202.233C179.63 202.228 179.615 202.789 179.736 203.142C179.893 203.599 180.05 204.055 180.206 204.512C180.271 204.698 180.387 204.922 180.584 204.91C181.306 204.865 182.028 204.82 182.75 204.774C183.327 204.738 183.977 204.665 184.328 204.206ZM194.309 211.968C194.235 211.766 194.125 211.569 193.951 211.442C193.794 211.328 193.6 211.28 193.408 211.257C191.892 211.074 190.421 212.586 190.645 214.096C191.29 214.862 192.505 215.074 193.371 214.571C194.238 214.068 194.656 212.908 194.309 211.968M184.954 202.839C184.921 203.503 185.505 204.07 186.145 204.249C186.786 204.428 187.467 204.312 188.121 204.196C188.456 204.136 188.832 204.049 189.007 203.758C189.382 203.136 188.639 201.995 189.325 201.757C188.864 201.693 188.404 201.63 187.944 201.567C187.337 201.483 186.708 201.401 186.119 201.569C185.529 201.738 184.985 202.226 184.954 202.839M190.454 203.689C191.151 204.295 192.318 204.211 192.965 203.552C193.613 202.894 193.698 201.778 193.209 200.994C191.989 201.22 190.769 201.446 189.549 201.673C189.703 202.407 189.887 203.196 190.454 203.689M284.726 192.028C283.776 192.38 282.826 192.732 281.876 193.084C281.404 193.258 280.926 193.437 280.517 193.73C282.071 194.336 284.031 193.544 284.726 192.028M196.423 116.627C196.398 116.207 195.954 115.864 195.542 115.946C195.568 116.373 195.994 116.732 196.419 116.686L196.423 116.627Z" fill="#00160A"/>
</svg>
