<svg width="355" height="355" viewBox="0 0 355 355" fill="none" xmlns="http://www.w3.org/2000/svg">
<path fill-rule="evenodd" clip-rule="evenodd" d="M332.407 316.795C323.155 236.021 375.41 72.7199 295.074 29.0389C170.455 -38.72 -11.2369 55.9201 1.22446 208.74C10.0357 316.795 342.869 408.14 332.407 316.795Z" fill="#FBBC05"/>
<path d="M211.283 66.7974C210.974 65.8908 210.618 65.0607 210.501 64.1983C210.261 62.4234 210.067 60.6343 210 58.8456C209.861 55.1339 209.816 50.8025 209.737 47.0886C209.725 46.5224 209.613 45.9434 210.525 45.9113C211.439 45.8792 215.797 43.098 215.797 45.2095C215.797 49.5924 216.409 56.3006 216.792 60.6074C216.915 61.9989 217.493 63.1328 217.523 64.7485C217.574 67.472 212.765 66.7653 211.283 66.7974Z" fill="white"/>
<path fill-rule="evenodd" clip-rule="evenodd" d="M150.511 27.2177C149.555 27.3002 148.599 27.4436 147.642 27.4558C141.706 27.5311 135.769 27.5709 129.832 27.6455C129.477 27.65 127.889 27.6546 127.534 27.6593C125.976 27.6801 124.419 27.7035 122.862 27.7309C122.134 27.7437 122.638 27.7658 121.91 27.7942C119.321 27.8955 116.733 28.0775 114.145 28.2099C112.693 28.2841 111.239 28.3427 109.79 28.4622C106.004 28.7746 87.4369 29.7421 83.6512 30.0562C82.7578 30.1303 82.2449 30.3525 82.3188 31.4525C82.4855 33.9304 82.5489 79.5401 82.569 82.0242C82.5749 82.7534 82.7773 82.9144 83.4541 82.8569C85.736 82.6633 102.807 81.8974 105.091 81.7353C107.458 81.5673 109.823 81.3818 112.192 81.2447C115.424 81.0576 118.659 80.916 121.892 80.7359C122.356 80.7101 122.812 80.5588 123.276 80.4995C125.278 80.2438 127.278 79.9712 129.284 79.7614C131.234 79.5575 133.189 79.3893 135.146 79.2644C139.376 78.9944 143.606 78.7079 147.84 78.5306C151.642 78.3714 155.449 78.3514 159.253 78.2661C162.81 78.1864 166.366 78.0957 169.923 78.0206C174.14 77.9315 178.358 77.8433 182.575 77.7739C188.237 77.6808 193.899 77.6194 199.56 77.518C202.375 77.4676 205.188 77.3631 208.002 77.2745C210.403 77.1988 212.803 77.0805 215.205 77.0344C220.537 76.932 225.868 76.8572 231.2 76.782C237.522 76.693 243.845 76.655 250.167 76.5193C254.599 76.4241 265.805 76.2101 270.234 76.0145C270.451 76.005 270.83 75.6667 270.833 75.4753C270.877 73.3711 270.859 28.1433 270.861 26.0382C270.863 25.1462 270.347 24.6425 269.543 24.51C268.598 24.3544 267.634 24.2836 266.676 24.2532C263.409 24.1496 253.364 23.9993 250.096 24.0119C238.243 24.0578 226.39 24.1495 214.537 24.2506C213.217 24.2619 211.897 24.2727 210.577 24.2847C205.863 24.3273 201.149 24.3837 196.437 24.521C193.522 24.6059 190.617 25.0084 187.705 25.2308C184.177 25.5003 180.646 25.7334 177.116 25.9781C175.83 26.0672 174.543 26.1423 173.256 26.2272C169.52 26.4738 165.787 26.7872 162.047 26.9517C158.288 27.1171 154.522 27.1351 150.511 27.2177Z" fill="white"/>
<path fill-rule="evenodd" clip-rule="evenodd" d="M76.0771 8.27073C74.4372 8.11169 72.8128 7.79231 71.1821 7.54037C71.0712 7.52322 70.9667 7.4643 70.8592 7.42481C70.9616 7.38174 71.061 7.32697 71.1675 7.29949C71.2449 7.2795 71.3316 7.29727 71.4142 7.29534C74.9303 7.21305 78.4473 7.15577 81.9625 7.04135C86.1885 6.9038 90.4131 6.72283 94.6378 6.5498C96.2557 6.48355 97.8716 6.3701 99.4895 6.3087C102.056 6.21133 104.623 6.1457 107.189 6.05513C109.261 5.98202 111.332 5.88694 113.403 5.81036C117.958 5.64194 122.514 5.48431 127.069 5.31126C128.811 5.24509 130.551 5.12911 132.292 5.07063C135.23 4.97199 138.169 4.90932 141.107 4.81578C143.261 4.74718 145.414 4.64729 147.568 4.57238C150.135 4.48313 152.702 4.41272 155.268 4.32084C157.257 4.24962 159.245 4.14036 161.234 4.07942C164.42 3.98183 167.606 3.91716 170.792 3.82548C173.276 3.75397 175.76 3.65883 178.244 3.58097C181.017 3.49408 183.791 3.41484 186.564 3.33228C189.337 3.24971 192.11 3.16523 194.883 3.08509C197.821 3.0002 200.759 2.92063 203.697 2.83652C206.526 2.75554 209.354 2.66768 212.183 2.59023C215.369 2.503 218.555 2.42444 221.741 2.34133C224.885 2.2593 228.03 2.17462 231.175 2.09421C234.484 2.00957 237.794 1.92941 241.104 1.84581C244.331 1.76429 247.559 1.70982 250.785 1.58894C253.247 1.49667 255.706 1.30971 258.168 1.19006C258.532 1.17235 258.904 1.34759 259.271 1.34249C264.356 1.27195 269.441 1.1933 274.526 1.10035C278.331 1.03079 282.136 0.934649 285.942 0.856055C290.118 0.76979 294.295 0.661672 298.472 0.616586C300.639 0.597162 302.064 1.57509 302.575 3.61996C302.829 4.63879 302.696 5.75935 302.703 6.83413C302.723 9.59675 302.755 12.3599 302.719 15.1221C302.697 16.8426 302.561 18.5616 302.479 20.2815C302.464 20.6088 302.46 20.9368 302.46 21.2645C302.459 24.8703 302.488 28.4764 302.453 32.082C302.393 38.4056 302.3 44.729 302.21 51.0524C302.136 56.3026 302.046 61.5526 301.964 66.8027C301.881 72.1353 301.799 77.468 301.716 82.8006C301.634 88.0507 301.563 93.301 301.464 98.5508C301.406 101.655 301.282 104.757 301.228 107.861C301.19 110.021 301.244 112.183 301.216 114.344C301.148 119.676 301.068 125.009 300.969 130.342C300.912 133.404 300.786 136.465 300.733 139.528C300.695 141.729 300.756 143.933 300.718 146.134C300.665 149.156 300.536 152.176 300.486 155.197C300.447 157.522 300.51 159.849 300.47 162.175C300.422 164.948 300.287 167.721 300.238 170.494C300.198 172.737 300.253 174.981 300.225 177.224C300.157 182.681 300.069 188.138 299.981 193.594C299.905 198.266 299.826 202.938 299.732 207.61C299.664 211.003 299.545 214.395 299.495 217.788C299.456 220.402 299.519 223.018 299.478 225.632C299.436 228.324 299.291 231.013 299.248 233.704C299.207 236.277 299.271 238.852 299.23 241.425C299.191 243.869 299.04 246.31 299.001 248.754C298.959 251.368 299.017 253.984 298.986 256.599C298.921 262.014 298.83 267.429 298.743 272.844C298.666 277.599 298.668 282.358 298.471 287.107C298.281 291.675 299.334 295.912 301.605 299.812C303.919 303.784 306.399 307.662 308.858 311.548C311.289 315.39 313.422 319.389 314.552 323.798C315.359 326.947 315.478 330.214 314.572 333.401C314.262 334.491 312.375 342.008 313.981 343.961C316.042 346.468 318.647 347.593 321.856 347.666C324.984 347.738 327.954 346.977 330.952 346.283C334.597 345.439 338.257 344.829 341.927 346.161C343.753 346.824 345.399 347.76 346.479 349.45C346.643 349.707 347.043 350.14 346.171 350.145C344.058 350.156 341.946 350.287 339.833 350.369C335.608 350.534 331.383 350.704 327.158 350.863C324.715 350.955 322.272 351.033 319.829 351.111C317.098 351.198 314.366 351.283 311.634 351.359C308.448 351.447 305.262 351.533 302.076 351.606C298.106 351.696 294.136 351.78 290.165 351.854C285.287 351.944 280.408 352.031 275.53 352.101C269.041 352.193 262.552 352.259 256.064 352.354C251.639 352.419 247.215 352.518 242.791 352.597C242.034 352.61 241.276 352.593 240.519 352.599C231.388 352.681 222.257 352.764 213.127 352.845C212.328 352.852 211.53 352.84 210.731 352.847C201.394 352.928 192.057 353.012 182.72 353.093C181.88 353.1 181.04 353.088 180.2 353.095C170.945 353.176 161.691 353.26 152.436 353.341C151.638 353.348 150.839 353.336 150.041 353.343C140.703 353.424 131.366 353.507 122.029 353.588C121.272 353.595 120.515 353.584 119.757 353.59C110.42 353.671 101.083 353.755 91.7459 353.836C90.9474 353.843 90.1487 353.831 89.3502 353.838C80.0131 353.919 70.6759 354.003 61.3387 354.084C60.6228 354.09 59.9067 354.079 59.1908 354.086C49.6885 354.167 40.1862 354.249 30.684 354.337C30.5323 354.339 30.3813 354.415 30.2299 354.518C30.2299 354.58 30.1061 354.58 30.0442 354.58C29.7103 354.498 29.4392 354.347 29.1664 354.344C27.3089 354.322 25.451 354.336 23.5932 354.326C23.4157 354.325 23.2387 354.24 23.0615 354.194C23.2116 354.157 23.3626 354.125 23.5117 354.084C27.4846 353.011 31.4298 351.815 35.4409 350.912C37.7147 350.4 40.0927 350.32 42.4309 350.136C44.4139 349.981 46.4066 349.93 48.3962 349.887C49.1501 349.871 49.0876 349.703 48.8893 349.047C48.055 346.288 47.0958 343.531 46.6537 340.7C46.2866 338.349 46.4865 335.89 46.6096 333.487C46.6978 331.765 46.949 330.028 47.3545 328.352C47.8213 326.423 48.4369 324.514 49.1657 322.667C51.089 317.793 54.5093 313.986 58.0448 310.226C60.158 307.98 62.0751 305.511 63.8059 302.956C64.8524 301.411 65.4153 299.527 65.4075 297.563C65.3952 294.467 65.4344 291.37 65.3972 288.275C65.342 283.685 65.2454 279.095 65.1546 274.506C65.0818 270.824 64.9683 267.143 64.9139 263.461C64.8137 256.684 64.7816 249.905 64.6458 243.129C64.5735 239.523 64.2618 235.923 64.2094 232.318C64.1648 229.255 64.4353 226.187 64.3899 223.125C64.3254 218.771 64.0902 214.42 63.9541 210.067C63.9385 209.57 64.1593 209.068 64.1556 208.57C64.0867 199.067 63.9623 189.565 63.9279 180.062C63.8863 168.571 63.9497 157.08 63.9081 145.589C63.8742 136.21 63.6856 126.831 63.6884 117.453C63.6915 107.166 63.8514 96.879 63.9118 86.5919C63.9461 80.7569 63.8867 74.9212 63.9281 69.0863C63.9601 64.5788 64.0889 60.0722 64.1623 55.5649C64.1846 54.1887 64.1515 52.8117 64.1682 51.4354C64.2452 45.0704 64.3441 38.7057 64.4079 32.3407C64.4398 29.1479 64.3813 25.9542 64.4228 22.7617C64.4616 19.7815 64.5793 16.8024 64.6601 13.8228C64.6699 13.4638 64.6657 13.1044 64.668 12.7451C64.7483 13.1432 64.8552 13.5379 64.9046 13.9398C65.243 16.6919 65.5789 19.4443 65.8946 22.1991C66.0086 23.1934 66.0762 24.1936 66.1451 25.1924C66.3171 27.6832 66.4757 30.1748 66.6433 32.6659C66.8891 36.3203 81.8188 39.6739 81.8517 39.2747C81.9839 39.6574 82.1249 40.0373 82.2469 40.4232C83.3527 43.9205 84.0455 47.4928 84.511 51.1373C85.1717 56.3098 85.2256 61.4917 85.2251 66.6869C85.2186 134.228 85.2243 201.769 85.1894 269.31C85.1888 270.402 85.5243 270.835 86.5107 271.12C89.7484 272.056 93.0779 272.396 96.3801 272.046C102.625 271.385 113.823 269.189 118.74 265.105C122.668 261.843 125.464 257.852 127.126 253.102C127.775 251.245 127.924 249.193 128.144 247.212C128.345 245.401 128.524 243.551 128.374 241.747C128.119 238.684 127.627 235.638 127.176 232.594C126.809 230.117 126.284 227.662 125.956 225.18C125.478 221.562 125.012 217.936 124.732 214.299C124.497 211.248 124.274 208.157 124.508 205.119C124.986 198.913 125.955 192.765 127.668 186.754C129.499 180.33 132.05 174.199 135.224 168.335C137.585 163.973 140.29 159.814 143.543 156.056C146.063 153.143 148.683 150.313 151.34 147.523C152.472 146.335 153.835 145.371 155.053 144.26C159.682 140.039 163.072 134.836 166.57 129.714C169.3 125.717 166.354 121.61 169.352 117.822C173.301 112.833 178.145 108.878 184.44 107.139C186.755 106.499 189.137 106.089 191.501 105.643C196.521 104.696 201.609 104.754 206.672 104.933C211.933 105.118 216.932 106.444 221.424 109.348C225.126 111.74 227.813 115.096 230.102 118.753C232.778 123.028 235.307 127.399 237.793 131.788C240.991 137.432 244.095 143.129 247.216 148.815C248.895 151.873 250.549 154.945 252.174 158.032C255.547 164.436 268.414 189.658 271.498 195.853C271.613 196.084 271.755 196.302 271.884 196.527C272.002 196.246 272.209 195.97 272.226 195.682C272.412 192.491 272.572 189.297 272.734 186.104C272.902 182.787 273.068 179.47 273.229 176.153C273.398 172.671 273.566 169.189 273.724 165.707C273.896 161.936 274.062 158.165 274.219 154.394C274.392 150.252 274.553 146.109 274.716 141.966C274.802 139.771 274.885 137.576 274.963 135.381C275.05 132.938 275.129 130.495 275.212 128.052C275.294 125.651 275.383 123.249 275.458 120.847C275.547 117.992 275.625 115.136 275.707 112.28C275.791 109.342 275.878 106.404 275.953 103.466C276.042 99.9908 276.124 96.5158 276.201 93.0407C276.289 89.0704 276.377 85.1001 276.448 81.1295C276.54 75.9208 276.604 70.7115 276.702 65.5029C276.762 62.3578 276.908 59.2138 276.935 56.0686C276.976 51.431 276.916 46.7925 276.956 42.1548C276.982 39.1748 277.116 36.1957 277.185 33.2159C277.192 32.9166 277.086 32.6146 277.032 32.3139C276.778 32.4979 276.486 32.6466 276.276 32.8715C274.665 34.5942 272.629 35.209 270.337 35.2974C266.812 35.4333 263.486 34.3936 260.105 33.6738C256.866 32.9844 253.612 32.2128 250.292 32.6092C248.32 32.8448 246.364 33.4351 244.471 34.0746C241.418 35.106 238.512 34.7932 235.621 33.5555C232.816 32.3548 230.036 31.0805 227.178 30.0218C224.604 29.0688 221.874 29.0782 219.379 30.1664C218.161 30.6976 216.939 31.837 216.328 33.0168C214.898 35.7763 212.74 37.0599 209.777 37.5474C205.866 38.1907 202.419 36.8762 198.943 35.4491C196.12 34.2903 193.326 32.9853 190.401 32.169C186.497 31.0793 182.909 32.2615 179.672 34.5903C177.638 36.0543 175.72 37.7387 173.53 38.9139C170.593 40.4901 166.311 40.7168 163.993 38.1158C163.588 37.6606 163.175 37.115 163.028 36.5436C162.443 34.2812 160.978 33.794 158.943 33.559C156.014 33.2207 153.862 34.7964 151.738 36.4971C149.771 38.0714 147.937 39.8228 145.264 40.3151C143.141 40.7059 141.147 40.428 139.265 39.6192C136.074 38.2478 132.944 36.7275 129.838 35.169C127.061 33.775 124.093 33.0811 121.112 33.6501C119.192 34.0166 117.384 35.2109 115.648 36.2405C113.543 37.4893 111.661 39.1324 109.512 40.288C105.814 42.2761 102.501 42.3208 97.7657 41.5448C93.0301 40.7688 81.6056 33.3673 81.0339 32.6092C80.9543 32.5036 79.1894 8.57257 76.0771 8.27073Z" fill="white"/>
<path fill-rule="evenodd" clip-rule="evenodd" d="M147.817 259.803C146.798 252.344 146.518 245.5 146.976 239.27C147.435 233.04 148.849 223.873 151.218 211.77C146.688 223.709 143.995 232.876 143.14 239.27C142.286 245.664 142.781 253.271 144.628 262.092L147.817 259.803Z" fill="#FBBC05"/>
<path fill-rule="evenodd" clip-rule="evenodd" d="M214.447 169.98C218.937 169.551 221.776 170.446 222.63 172.988C224.075 177.286 213.553 183.031 209.842 182.686C208.54 181.492 221.462 178.267 220.295 173.773C219.997 172.63 218.159 172.101 214.681 172.433C214.004 172.498 213.402 172.001 213.337 171.324C213.273 170.646 213.769 170.045 214.447 169.98Z" fill="#00160A"/>
<path fill-rule="evenodd" clip-rule="evenodd" d="M236.593 284.863C236.264 284.079 236.732 279.215 239.312 274.555C243.586 266.838 262.174 264.281 269.134 257.258C277.963 248.35 274.229 237.893 273.75 236.917C273.635 236.683 273.591 236.415 273.514 236.163C273.718 236.296 273.958 236.395 274.122 236.567C277.001 239.587 278.906 243.166 279.786 247.212C280.73 251.548 281.035 255.935 278.902 260.055C278.434 260.958 277.481 261.686 276.61 262.291C273.983 264.115 261.101 269.164 257.498 269.886C254.023 270.583 251.009 272.191 247.81 273.453C245.845 274.228 244.776 276.031 243.236 277.283C241.611 278.605 241.143 280.223 241.289 282.175C241.332 282.75 241.272 283.331 241.299 283.908C241.471 287.617 237.607 287.273 236.593 284.863Z" fill="#FBBC05"/>
<path fill-rule="evenodd" clip-rule="evenodd" d="M162.435 181.733C164.205 181.733 164.864 180.354 163.926 178.653C163.007 176.952 161.21 175.573 159.892 175.573C158.575 175.573 157.87 176.952 158.336 178.653C158.822 180.354 160.666 181.733 162.435 181.733Z" fill="#FFB61D"/>
<path fill-rule="evenodd" clip-rule="evenodd" d="M196.933 189.741C198.703 189.741 199.362 188.362 198.424 186.661C197.505 184.96 195.708 183.581 194.39 183.581C193.073 183.581 192.368 184.96 192.834 186.661C193.32 188.362 195.164 189.741 196.933 189.741Z" fill="#FFB61D"/>
<path fill-rule="evenodd" clip-rule="evenodd" d="M300.936 0.000275519C303.103 -0.0188652 304.528 0.959068 305.039 3.00394C305.293 4.02277 305.16 5.14333 305.167 6.21811C305.187 8.98073 305.219 11.7439 305.184 14.506C305.162 16.2266 305.025 17.9456 304.944 19.6655C304.928 19.9927 304.924 20.3208 304.924 20.6485C304.923 24.2543 304.952 27.8604 304.917 31.4659C304.857 37.7896 304.764 44.113 304.674 50.4363C304.6 55.6866 304.51 60.9365 304.428 66.1866C304.345 71.5193 304.264 76.852 304.18 82.1846C304.098 87.4347 304.027 92.685 303.928 97.9348C303.87 101.039 303.746 104.141 303.692 107.245C303.655 109.405 303.708 111.567 303.68 113.728C303.612 119.06 303.532 124.393 303.433 129.726C303.376 132.788 303.25 135.849 303.197 138.912C303.159 141.113 303.22 143.317 303.182 145.518C303.13 148.54 303 151.56 302.95 154.581C302.911 156.906 302.974 159.233 302.934 161.559C302.886 164.332 302.751 167.105 302.702 169.878C302.663 172.121 302.718 174.365 302.69 176.608C302.621 182.065 302.534 187.522 302.445 192.978C302.369 197.65 302.29 202.322 302.196 206.994C302.128 210.387 302.01 213.779 301.959 217.172C301.92 219.786 301.983 222.402 301.942 225.016C301.9 227.708 301.755 230.397 301.712 233.088C301.671 235.661 301.736 238.236 301.694 240.809C301.655 243.253 301.504 245.694 301.465 248.138C301.424 250.752 301.482 253.368 301.45 255.983C301.386 261.398 301.294 266.813 301.207 272.228C301.13 276.983 301.132 281.741 300.935 286.491C300.745 291.059 301.798 295.296 304.069 299.196C306.383 303.168 308.863 307.046 311.322 310.932C313.753 314.774 315.886 318.773 317.017 323.182C317.823 326.331 317.942 329.598 317.036 332.785C316.726 333.875 314.839 341.392 316.445 343.345C318.506 345.852 321.111 346.977 324.32 347.05C327.448 347.122 330.418 346.361 333.416 345.667C337.061 344.823 340.721 344.213 344.391 345.545C346.217 346.208 347.863 347.144 348.943 348.834C349.108 349.091 349.507 349.524 348.635 349.529C346.522 349.54 344.41 349.671 342.297 349.753C338.072 349.918 333.847 350.088 329.622 350.247C327.179 350.339 324.736 350.417 322.294 350.495C319.562 350.582 316.83 350.667 314.098 350.743C310.912 350.831 307.727 350.917 304.54 350.99C300.57 351.08 296.6 351.164 292.63 351.237C287.751 351.328 282.873 351.415 277.994 351.485C271.505 351.577 265.017 351.643 258.528 351.738C254.104 351.803 249.679 351.902 245.255 351.981C244.498 351.994 243.74 351.977 242.983 351.983C233.852 352.065 224.722 352.148 215.591 352.229C214.792 352.236 213.994 352.224 213.195 352.231C203.858 352.312 194.521 352.396 185.184 352.477L182.664 352.479C173.41 352.56 164.155 352.643 154.9 352.725C154.102 352.732 153.303 352.72 152.505 352.726C143.168 352.808 133.83 352.891 124.493 352.972C123.736 352.979 122.979 352.968 122.222 352.974C112.884 353.055 103.547 353.139 94.21 353.22C93.4115 353.227 92.6129 353.215 91.8144 353.222C82.4772 353.303 73.14 353.387 63.8029 353.468C63.087 353.474 62.3709 353.463 61.6549 353.47C52.1526 353.551 42.6503 353.633 33.1481 353.721C32.9964 353.723 32.8454 353.799 32.6941 353.902C32.6941 353.964 32.5702 353.964 32.5083 353.964C32.1745 353.882 31.9034 353.731 31.6306 353.727C29.773 353.706 27.9151 353.72 26.0574 353.71C25.8799 353.709 25.7028 353.624 25.5256 353.578C25.6757 353.541 25.8268 353.508 25.9758 353.468C29.9488 352.395 33.8939 351.199 37.9051 350.296C40.1788 349.784 42.5569 349.704 44.8951 349.52C46.8781 349.365 48.8708 349.314 50.8604 349.271C51.6142 349.255 51.5517 349.087 51.3534 348.431C50.5192 345.672 49.56 342.915 49.1179 340.084C48.7507 337.733 48.9506 335.274 49.0737 332.871C49.162 331.149 49.4132 329.412 49.8187 327.736C50.2854 325.807 50.901 323.898 51.6299 322.051C53.5531 317.177 56.9735 313.37 60.509 309.61C62.6221 307.364 64.5392 304.895 66.27 302.34C67.3165 300.795 67.8795 298.911 67.8717 296.947C67.8594 293.851 67.8985 290.754 67.8613 287.659C67.8062 283.069 67.7095 278.479 67.6187 273.89C67.5459 270.208 67.4324 266.527 67.378 262.845C67.2779 256.068 67.2458 249.289 67.1099 242.513C67.0377 238.907 66.726 235.307 66.6735 231.702C66.629 228.639 66.8995 225.571 66.8541 222.508C66.7895 218.155 66.5543 213.804 66.4182 209.451C66.4027 208.954 66.6234 208.452 66.6198 207.954C66.5509 198.451 66.4264 188.949 66.392 179.446C66.3505 167.955 66.4138 156.464 66.3723 144.973C66.3384 135.594 66.1497 126.215 66.1526 116.837C66.1557 106.55 66.3155 96.2629 66.376 85.9759C66.4103 80.1409 66.3509 74.3052 66.3923 68.4702C66.4242 63.9628 66.5531 59.4561 66.6264 54.9489C66.6488 53.5727 66.6157 52.1957 66.6323 50.8193C66.7094 44.4544 66.8083 38.0897 66.872 31.7246C66.904 28.5319 66.8454 25.3382 66.887 22.1456C66.9257 19.1655 67.0435 16.1864 67.1243 13.2068C67.134 12.8478 67.1299 12.4883 67.1322 12.1291C67.2125 12.5271 67.3193 12.9219 67.3687 13.3237C67.7072 16.0758 68.0431 18.8283 68.3588 21.5831C68.4727 22.5774 68.5404 23.5775 68.6093 24.5764C68.7812 27.0671 68.9398 29.5588 69.1074 32.0499C69.3533 35.7043 69.6188 39.3574 69.845 43.013C70.0348 46.0807 70.2043 49.1501 70.3397 52.2206C70.5278 56.486 70.6846 60.7529 70.8377 65.0198C70.9371 67.7924 71.0601 70.5656 71.0795 73.3392C71.1815 87.8782 71.2571 102.417 71.3337 116.957C71.3512 120.273 71.3651 123.591 71.3298 126.907C71.271 132.447 71.1728 137.986 71.0881 143.525C71.0078 148.775 70.9368 154.026 70.8352 159.275C70.7855 161.843 70.6657 164.409 70.598 166.976C70.5693 168.063 70.5995 169.151 70.5922 170.238C70.5112 182.383 70.3904 194.528 70.362 206.672C70.3485 212.418 70.4972 218.164 70.5991 223.909C70.6475 226.642 70.7521 229.373 70.8428 232.105C70.9158 234.3 70.9927 236.496 71.0917 238.69C71.2451 242.09 71.4052 245.49 71.5884 248.888C71.7317 251.546 71.8987 254.202 72.0834 256.857C72.3147 260.183 72.5557 263.507 72.8324 266.829C72.9371 268.087 73.0977 269.346 73.3486 270.582C73.4336 271 73.7952 271.474 74.166 271.705C76.5072 273.162 78.9354 272.379 80.8767 270.929C83.1269 269.248 84.1004 266.779 84.1978 264.033C84.3524 259.68 84.4521 255.322 84.4539 250.966C84.4719 208.346 84.4945 165.726 84.4541 123.107C84.4279 95.3566 84.2992 67.6065 84.2213 39.8563C84.2202 39.4572 84.2829 39.0579 84.3159 38.6587C84.4481 39.0414 84.5891 39.4213 84.7111 39.8072C85.8169 43.3044 86.5097 46.8768 86.9752 50.5213C87.6359 55.6938 87.6898 60.8757 87.6893 66.0709L87.6821 167.383C87.6783 201.153 87.671 234.924 87.6535 268.694C87.653 269.786 87.9885 270.219 88.9749 270.504C92.2126 271.44 95.542 271.78 98.8442 271.43C105.089 270.769 110.743 268.573 115.66 264.489C119.587 261.227 122.384 257.236 124.046 252.486C124.695 250.629 124.844 248.576 125.064 246.596C125.264 244.785 125.444 242.935 125.294 241.131C125.038 238.068 124.547 235.022 124.096 231.978C123.729 229.501 123.204 227.046 122.876 224.564C122.398 220.946 121.932 217.32 121.652 213.683C121.417 210.632 121.194 207.541 121.428 204.503C121.906 198.297 122.875 192.149 124.588 186.138C126.419 179.714 128.97 173.583 132.144 167.719C134.505 163.357 137.21 159.198 140.462 155.44C142.983 152.527 145.603 149.697 148.26 146.907C149.392 145.719 150.755 144.755 151.973 143.644C156.602 139.423 159.992 134.22 163.49 129.098C166.22 125.101 168.818 120.994 171.816 117.206C175.765 112.217 180.61 108.262 186.904 106.523C189.219 105.883 191.601 105.473 193.965 105.027C198.985 104.08 204.073 104.138 209.136 104.317C214.397 104.502 219.396 105.828 223.889 108.732C227.59 111.124 230.277 114.48 232.566 118.137C235.242 122.412 237.771 126.783 240.258 131.172C243.455 136.816 246.559 142.513 249.68 148.199C251.359 151.257 253.013 154.329 254.639 157.416C256.669 161.272 257.835 162.777 259.474 166.976C260.557 169.75 262.473 174.947 263.783 177.511C266.396 182.626 266.85 185.998 268.758 190.746C269.149 191.718 271.206 192.908 271.677 193.991C272.555 196.007 274.341 198.928 274.47 199.152C274.589 198.871 274.673 195.354 274.69 195.066C274.876 191.875 275.036 188.681 275.198 185.488C275.366 182.171 275.532 178.854 275.693 175.537C275.862 172.055 276.03 168.573 276.188 165.091C276.36 161.32 276.526 157.549 276.683 153.778C276.856 149.636 277.017 145.493 277.18 141.35C277.266 139.155 277.349 136.96 277.427 134.765C277.514 132.322 277.593 129.879 277.676 127.436C277.758 125.035 277.847 122.633 277.922 120.231C278.011 117.376 278.09 114.52 278.171 111.664C278.255 108.726 278.342 105.788 278.417 102.85C278.506 99.3747 278.589 95.8997 278.665 92.4246C278.753 88.4544 278.842 84.4841 278.912 80.5135C279.004 75.3047 279.068 70.0955 279.166 64.8869C279.226 61.7417 279.372 58.5978 279.399 55.4526C279.44 50.815 279.38 46.1764 279.42 41.5388C279.446 38.5587 279.58 35.5797 279.649 32.5998C279.656 32.3005 279.55 31.9986 279.496 31.6979C279.242 31.8819 278.95 32.0306 278.74 32.2555C277.129 33.9782 275.094 34.593 272.801 34.6813C269.277 34.8172 265.95 33.7776 262.569 33.0578C259.33 32.3683 256.076 31.5968 252.756 31.9932C250.784 32.2288 248.828 32.8191 246.935 33.4586C243.882 34.49 240.976 34.1772 238.085 32.9395C235.28 31.7388 232.5 30.4645 229.642 29.4058C227.069 28.4528 224.339 28.4622 221.844 29.5503C220.625 30.0816 219.403 31.221 218.792 32.4008C217.362 35.1602 215.204 36.4439 212.241 36.9314C208.33 37.5746 204.883 36.2602 201.407 34.8331C198.584 33.6743 195.79 32.3693 192.865 31.5529C188.961 30.4633 185.373 31.6455 182.137 33.9743C180.102 35.4383 178.184 37.1226 175.994 38.2979C173.057 39.8741 168.775 40.1008 166.457 37.4997C166.052 37.0446 165.639 36.499 165.492 35.9276C164.907 33.6652 163.442 33.178 161.408 32.943C158.478 32.6047 156.327 34.1803 154.202 35.8811C152.235 37.4554 150.401 39.2067 147.728 39.6991C145.605 40.0899 143.611 39.8119 141.729 39.0031C138.538 37.6317 135.408 36.1115 132.303 34.553C129.525 33.159 126.557 32.4651 123.577 33.034C121.656 33.4006 119.848 34.5949 118.112 35.6244C116.007 36.8732 114.125 38.5164 111.976 39.6719C108.279 41.6601 104.308 41.7434 100.23 40.9288C95.9988 40.0837 92.5146 38.0192 89.5831 34.9391C88.9315 34.2545 88.3998 33.4548 87.8281 32.6967C87.7485 32.5911 87.7561 32.4197 87.7234 32.2787C87.8402 32.3386 87.9752 32.3775 88.0711 32.4613C91.1589 35.1578 94.6894 36.8268 98.7825 37.4171C104.697 38.27 110.176 37.2806 115.103 33.842C116.481 32.8806 117.61 31.5688 118.956 30.5544C121.077 28.9554 123.586 29.0311 126.038 29.3279C130.641 29.8847 134.636 32.2794 138.942 33.7365C142.667 34.9973 146.492 35.9618 150.433 34.4293C151.819 33.8902 152.979 33.1333 153.837 31.8643C155.343 29.6378 158.604 28.8371 161.083 29.1043C165.078 29.5352 168.539 31.5218 172.332 32.49C174.996 33.1702 177.667 33.63 180.389 32.6991C181.859 32.1964 182.885 31.1907 183.676 29.9401C184.955 27.9159 186.897 27.195 189.13 26.9946C192.292 26.7109 195.137 27.7094 197.926 29.0818C200.603 30.3993 203.316 31.7484 206.302 32.1541C208.719 32.4826 211.112 32.002 213.353 30.9904C216.866 29.4046 220.334 27.7128 223.878 26.1995C227.282 24.7459 230.594 25.032 233.78 27.0319C235.531 28.1314 237.344 29.1737 239.238 29.9932C241.504 30.9745 243.921 30.6621 246.226 30.0462C249.335 29.2155 252.353 28.0063 255.49 27.337C257.67 26.8721 259.931 27.0497 261.706 28.9416C263.363 30.707 265.551 31.1441 267.816 30.4995C271.349 29.4938 274.829 28.2988 278.337 27.203C280.066 26.6629 281.797 26.1403 283.641 26.7383C286.124 27.5438 286.402 27.951 286.099 30.5324C285.928 31.9908 285.722 33.4472 285.614 34.9105C285.483 36.6892 285.455 38.4753 285.351 40.2564C285.115 44.2829 284.864 48.3085 284.61 52.334C284.453 54.8257 284.264 57.3155 284.121 59.808C283.937 63 283.793 66.1942 283.619 69.3868C283.463 72.2501 283.273 75.1116 283.13 77.9755C282.947 81.6218 282.797 85.2698 282.629 88.9168C282.552 90.5756 282.455 92.2333 282.384 93.8923C282.213 97.9108 282.053 101.93 281.887 105.948C281.806 107.896 281.714 109.843 281.641 111.791C281.471 116.346 281.308 120.902 281.144 125.457C281.06 127.776 280.975 130.095 280.897 132.414C280.81 135.022 280.73 137.63 280.649 140.238C280.565 142.929 280.481 145.619 280.401 148.31C280.316 151.207 280.234 154.104 280.153 157.001C280.069 160.063 279.986 163.125 279.906 166.187C279.821 169.414 279.737 172.642 279.658 175.869C279.572 179.385 279.492 182.901 279.41 186.418C279.327 189.975 279.243 193.533 279.163 197.09C279.078 200.813 278.996 204.536 278.915 208.258L278.753 215.952C278.725 217.234 278.695 218.516 278.662 219.798C278.608 221.87 278.503 223.941 278.416 226.012C278.411 226.126 278.366 226.238 278.34 226.351C278.284 226.239 278.203 226.132 278.175 226.013C277.262 222.138 276.252 218.282 275.482 214.379C274.964 211.746 274.747 209.049 274.47 206.373C274.307 204.791 274.293 203.194 274.205 201.605C274.196 201.452 274.14 201.302 274.106 201.151C274.057 201.282 273.973 201.41 273.965 201.543C273.674 206.521 272.798 211.378 271.047 216.065C270.539 217.425 270.11 218.814 269.636 220.187C269.574 220.366 269.465 220.528 269.377 220.697C269.353 220.474 269.258 220.229 269.318 220.03C269.604 219.078 269.872 218.114 270.255 217.2C272.01 213 271.914 208.573 271.677 204.19C271.5 200.909 270.679 197.692 269.33 194.654C269.248 194.471 268.811 193.614 268.807 193.387C268.806 193.35 268.645 193.315 268.558 193.279C268.625 193.584 268.692 193.889 268.758 194.193C268.924 197.345 269.204 201.728 269.224 204.881C269.247 208.561 268.631 210.955 267.633 214.497C267.104 216.373 266.423 218.205 265.807 220.055C265.764 220.183 265.692 220.3 265.634 220.422C265.602 220.27 265.498 220.087 265.549 219.97C267.181 216.192 267.001 212.141 267.242 208.173C267.467 204.459 267.665 200.718 267.465 197.01C267.185 191.835 266.213 186.752 264.048 181.973C264 181.868 263.869 181.8 263.822 181.695C263.664 181.343 263.525 180.981 263.379 180.623C263.284 181.07 263.063 181.532 263.116 181.961C263.293 183.398 263.668 184.814 263.783 186.253C264.019 189.193 264.207 192.141 264.281 195.088C264.364 198.403 264.461 201.731 264.254 205.035C264.052 208.263 263.48 211.467 263.059 214.681C262.824 216.479 262.568 218.274 262.313 220.07C262.296 220.187 262.205 220.293 262.149 220.405C262.123 220.292 262.066 220.176 262.075 220.066C262.149 219.233 262.237 218.401 262.318 217.568C262.402 216.694 262.532 215.821 262.557 214.945C262.66 211.388 262.794 207.831 262.795 204.273C262.797 200.881 262.686 197.487 262.554 194.097C262.447 191.356 262.277 188.615 262.06 185.88C261.772 182.257 261.413 178.639 261.077 175.02C261.014 174.35 260.922 173.683 260.825 173.018C260.806 172.886 260.702 172.768 260.638 172.643C260.537 172.773 260.359 172.897 260.348 173.034C260.246 174.32 260.154 175.606 260.093 176.894C259.995 178.965 259.948 181.038 259.836 183.108C259.605 187.341 259.357 191.573 259.093 195.804C258.955 198.008 258.743 200.207 258.608 202.411C258.342 206.725 258.118 211.041 257.855 215.355C257.715 217.641 257.51 219.923 257.368 222.21C257.106 226.441 256.889 230.675 256.61 234.905C256.513 236.369 256.881 241.143 256.827 241.799C256.512 245.681 255.414 249.397 254.089 253.038C253.831 253.746 253.302 254.476 252.695 254.914C250.984 256.148 249.852 255.953 248.95 253.802C248.729 253.275 248.613 252.704 248.445 252.153C248.423 252.081 248.386 252.013 248.356 251.943C248.304 252.064 248.235 252.18 248.201 252.306C247.867 253.572 247.67 254.894 247.171 256.091C246.672 257.288 245.987 258.452 245.174 259.463C244.19 260.688 242.4 260.751 241.259 259.665C240.609 259.046 240.615 259.835 240.564 259.954C240.053 261.145 239.706 262.416 239.112 263.56C238.188 265.344 236.591 266.144 234.603 266.007C233.712 265.946 233.544 266.22 233.559 267.066C233.599 269.272 232.723 271.069 230.749 272.166C230.266 272.435 229.592 272.491 229.023 272.441C228.215 272.371 228.055 272.666 228.12 273.39C228.186 274.127 228.145 274.875 228.133 275.618C228.104 277.378 226.893 278.611 225.157 278.661C223.836 278.7 223.589 279.067 224.111 280.211C224.636 281.361 223.811 282.467 222.261 282.617C220.685 282.77 219.37 282.416 218.121 281.219C212.985 276.3 209.05 270.552 206.115 264.126C204.212 259.958 202.727 255.617 202.142 251.04C201.728 247.802 201.366 244.551 201.161 241.295C200.928 237.595 201.511 233.952 202.264 230.33C203.691 223.467 206.36 217.018 208.739 210.469C209.288 208.957 209.678 207.379 210.039 205.808C210.664 203.085 211.259 200.354 211.758 197.607C211.932 196.647 211.82 195.628 211.753 194.642C211.741 194.477 211.266 194.183 211.049 194.218C209.164 194.525 207.28 194.851 205.413 195.252C202.217 195.939 199.159 197.004 196.201 198.433C195.107 198.963 193.734 198.905 192.496 199.152C190.517 199.547 188.546 199.987 186.565 200.374C186.154 200.455 185.713 200.376 185.287 200.388C184.555 200.408 183.35 200.196 183.184 200.517C182.737 201.377 182.603 202.465 182.579 203.469C182.449 208.883 182.323 214.299 182.337 219.714C182.344 222.536 182.63 225.357 182.807 228.178C182.958 230.587 183.071 233.002 183.317 235.402C183.567 237.833 183.98 240.247 184.283 242.673C184.486 244.293 184.591 245.924 184.793 247.544C185.096 249.97 185.458 252.389 185.773 254.814C186.038 256.856 186.271 258.902 186.52 260.946C186.683 262.281 186.845 263.617 187.024 264.95C187.039 265.07 187.151 265.245 187.252 265.275C189.11 265.818 189.523 267.45 189.971 268.987C190.671 271.388 191.439 273.791 191.844 276.249C192.154 278.133 192.149 280.127 191.913 282.025C191.673 283.957 191.017 285.844 190.474 287.73C189.655 290.577 188.03 292.977 186.175 295.239C186.054 295.387 185.996 295.586 185.908 295.761C186.089 295.758 186.269 295.754 186.45 295.753C186.78 295.752 187.11 295.753 187.44 295.753H202.426C206.239 295.753 210.051 295.782 213.863 295.747C220.104 295.688 226.345 295.587 232.586 295.507C233.219 295.498 233.853 295.514 234.486 295.504C239.901 295.424 245.316 295.34 250.732 295.259C251.282 295.251 251.834 295.272 252.384 295.255C256.95 295.12 261.516 294.972 266.082 294.847C266.531 294.835 266.984 295.007 267.434 295.002C272.89 294.932 278.347 294.854 283.803 294.759C287.526 294.694 291.249 294.59 294.971 294.519C296.005 294.499 296.558 294.275 296.543 292.978C296.505 289.422 296.673 285.864 296.746 282.306C296.769 281.178 296.799 280.046 296.739 278.92C296.62 276.698 294.96 275.819 293.048 275.722C289.249 275.528 285.44 275.475 281.634 275.452C275.015 275.413 268.395 275.429 261.776 275.452C260.571 275.457 259.367 275.609 258.162 275.685C258.006 275.695 257.846 275.657 257.687 275.641C257.783 275.495 257.871 275.343 257.975 275.204C259.003 273.819 260.547 273.405 262.106 273.243C264.123 273.033 266.172 273.14 268.191 272.939C270.418 272.718 272.625 272.3 274.843 271.978C275.086 271.943 275.338 271.979 275.585 271.972C282.081 271.808 288.577 271.65 295.072 271.455C295.365 271.447 295.816 271.173 295.911 270.917C296.682 268.851 297.115 266.79 296.91 264.492C296.693 262.044 297.108 259.539 297.243 257.059C297.256 256.812 297.245 256.564 297.245 256.316C297.245 254.169 297.225 252.023 297.248 249.876C297.321 243.057 297.4 236.238 297.496 229.419C297.561 224.747 297.659 220.075 297.74 215.403C297.824 210.566 297.904 205.729 297.988 200.891C298.07 196.164 298.153 191.436 298.235 186.709L298.483 172.445C298.566 167.676 298.649 162.907 298.731 158.138C298.814 153.328 298.895 148.518 298.979 143.708C299.06 139.035 299.145 134.363 299.226 129.691C299.31 124.881 299.391 120.071 299.474 115.261C299.556 110.465 299.638 105.669 299.722 100.873C299.803 96.2007 299.888 91.5286 299.969 86.8565C300.053 82.0193 300.134 77.182 300.217 72.3447L300.465 58.2045C300.548 53.4086 300.629 48.6126 300.713 43.8166C300.794 39.1857 300.88 34.555 300.96 29.9241C301.045 24.963 301.117 20.0017 301.211 15.0408C301.278 11.5102 301.356 7.97955 301.469 4.45017C301.493 3.70869 301.373 3.41421 300.515 3.43672C295.597 3.56585 290.676 3.61372 285.756 3.71099C282.638 3.77263 279.521 3.87504 276.404 3.95402C273.011 4.03995 269.619 4.11719 266.227 4.20329C263.123 4.28207 260.02 4.37019 256.917 4.4495C253.566 4.53514 250.215 4.61335 246.864 4.69848C243.719 4.77836 240.574 4.86557 237.43 4.94492C234.037 5.03052 230.645 5.10352 227.253 5.19565C224.644 5.26649 222.037 5.3732 219.429 5.43756C215.541 5.53348 211.653 5.59981 207.766 5.69074C204.662 5.76334 201.559 5.85728 198.456 5.93552C195.022 6.02209 191.588 6.09811 188.155 6.18517C185.093 6.26283 182.031 6.35274 178.969 6.43092C175.576 6.51754 172.184 6.58941 168.792 6.68203C166.225 6.75212 163.659 6.86049 161.091 6.92359C157.163 7.02015 153.233 7.08642 149.305 7.17684C146.118 7.25017 142.933 7.34177 139.747 7.42222C136.396 7.50683 133.045 7.58544 129.694 7.67108C126.59 7.75039 123.487 7.83893 120.384 7.91717C116.95 8.00374 113.517 8.11238 110.083 8.15979C102.686 8.2619 95.2887 8.41241 87.8925 8.37487C84.7738 8.35903 81.6535 7.95655 78.5412 7.65471C76.9014 7.49567 75.2769 7.17629 73.6463 6.92434C73.5353 6.9072 73.4308 6.84828 73.3233 6.80879C73.4258 6.76571 73.5252 6.71094 73.6316 6.68346C73.709 6.66348 73.7958 6.68124 73.8783 6.67931C77.3945 6.59703 80.9115 6.53974 84.4266 6.42532C88.6526 6.28777 92.8772 6.1068 97.102 5.93378C98.7198 5.86752 100.336 5.75407 101.954 5.69268C104.52 5.5953 107.087 5.52968 109.653 5.43911C111.725 5.366 113.796 5.27092 115.867 5.19433C120.423 5.02592 124.978 4.86829 129.533 4.69523C131.275 4.62907 133.015 4.51309 134.756 4.4546C137.694 4.35596 140.633 4.2933 143.571 4.19975C145.725 4.13116 147.878 4.03127 150.032 3.95636C152.599 3.86711 155.166 3.79669 157.732 3.70481C159.721 3.63359 161.709 3.52433 163.699 3.46339C166.884 3.36581 170.071 3.30113 173.256 3.20945C175.741 3.13794 178.224 3.0428 180.709 2.96495C183.481 2.87805 186.255 2.79882 189.028 2.71625C191.801 2.63368 194.574 2.5492 197.347 2.46907C200.285 2.38417 203.223 2.30461 206.162 2.22049C208.99 2.13952 211.819 2.05166 214.647 1.9742C217.833 1.88697 221.019 1.80841 224.205 1.72531C227.35 1.64328 230.494 1.5586 233.639 1.47818C236.949 1.39354 240.258 1.31338 243.568 1.22978C246.795 1.14827 250.024 1.09379 253.249 0.97291C255.712 0.880639 258.17 0.693685 260.632 0.574039C260.996 0.556326 261.368 0.731559 261.735 0.726465C266.82 0.655924 271.905 0.577274 276.99 0.484325C280.796 0.414762 284.6 0.31862 288.406 0.240027C292.582 0.153762 296.759 0.0456445 300.936 0.000275519ZM220.78 324.259C218.204 324.325 215.632 324.565 213.059 324.736C210.651 324.896 208.242 325.049 205.835 325.234C202.841 325.465 199.848 325.724 196.856 325.974C193.904 326.22 190.953 326.487 188 326.712C184.472 326.98 180.944 327.318 177.41 327.435C172.04 327.612 166.665 327.628 161.292 327.705C160.095 327.722 158.891 327.791 157.702 327.691C154.286 327.406 150.876 327.043 147.462 326.718C145.633 326.544 143.799 326.408 141.972 326.216C139.011 325.904 136.061 325.435 133.093 325.266C130.198 325.101 127.287 325.199 124.384 325.24C122.106 325.273 119.827 325.354 117.553 325.487C113.939 325.699 110.328 325.968 106.716 326.223C103.309 326.463 99.9038 326.715 96.4981 326.965C94.2961 327.126 92.0946 327.295 89.8927 327.459C86.5695 327.708 83.2461 327.955 79.9228 328.203C77.721 328.367 75.5195 328.537 73.3174 328.697C69.8705 328.948 66.424 329.205 62.9758 329.437C60.2387 329.621 57.4985 329.759 54.7612 329.941C53.2137 330.044 52.7307 330.573 52.7693 332.156C52.7906 333.032 52.9284 333.904 53.0052 334.778C53.3374 338.563 53.6408 342.35 54.0131 346.13C54.12 347.215 54.2343 348.432 55.3759 348.982C56.0546 349.31 56.877 349.482 57.6337 349.479C59.9525 349.469 62.2704 349.288 64.5895 349.269C69.1437 349.231 73.6986 349.286 78.2529 349.252C86.4328 349.191 94.6124 349.092 102.792 349.011C103.549 349.004 104.307 349.022 105.063 349.008C109.281 348.93 113.498 348.816 117.715 348.768C126.803 348.666 135.891 348.584 144.979 348.52C149.45 348.488 153.923 348.542 158.395 348.508C166.409 348.448 174.424 348.349 182.439 348.268C183.237 348.26 184.036 348.279 184.834 348.265C189.051 348.187 193.268 348.073 197.485 348.025C206.573 347.923 215.661 347.841 224.749 347.777C229.179 347.745 233.61 347.799 238.041 347.765C246.097 347.704 254.153 347.606 262.209 347.525C263.007 347.517 263.806 347.535 264.604 347.522C269.647 347.443 274.689 347.338 279.732 347.283C283.199 347.246 286.667 347.303 290.134 347.27C296.869 347.207 303.604 347.114 310.339 347.026C311.816 347.007 312.937 345.951 313.092 344.386C313.442 340.851 313.758 337.313 314.089 333.528C314.171 332.242 314.303 330.956 314.326 329.669C314.357 327.712 313.373 326.961 311.434 327.198C307.689 327.657 303.942 328.291 300.183 328.391C294.61 328.539 289.025 328.324 283.447 328.185C280.83 328.12 278.216 327.898 275.604 327.7C272.732 327.483 269.864 327.223 266.996 326.961C264.455 326.729 261.918 326.465 259.378 326.222L254.136 325.717C252.388 325.55 250.64 325.387 248.891 325.237C245.653 324.958 242.413 324.681 239.168 324.503C236.276 324.344 233.377 324.286 230.48 324.249C227.247 324.207 224.011 324.176 220.78 324.259ZM136.235 300.583C133.768 300.707 131.302 300.843 128.834 300.952C126.598 301.05 124.361 301.119 122.125 301.203C119.93 301.285 117.735 301.371 115.54 301.45C110.902 301.617 106.264 301.778 101.627 301.947C99.5139 302.023 97.402 302.124 95.289 302.19C92.2275 302.285 89.1648 302.345 86.1035 302.448C84.7741 302.492 83.4388 302.541 82.1213 302.708C80.8506 302.869 79.609 303.296 78.3374 303.404C76.7463 303.538 75.1084 303.574 74.0387 301.974C73.9615 301.858 73.3568 301.914 73.3478 301.96C72.7762 304.859 70.8803 306.923 68.922 308.919C67.3205 310.552 65.5963 312.064 63.962 313.665C61.9032 315.682 59.8159 317.677 57.8633 319.795C56.4125 321.368 55.153 323.118 53.8192 324.798C53.6868 324.965 53.6308 325.193 53.5394 325.392C53.7753 325.421 54.012 325.48 54.2468 325.473C56.731 325.398 59.2152 325.32 61.6989 325.228C63.6054 325.157 65.5106 325.052 67.4172 324.985C70.1072 324.891 72.7999 324.856 75.4878 324.722C77.5279 324.621 79.5611 324.386 81.5996 324.243C85.3353 323.982 89.0732 323.753 92.809 323.493C94.8886 323.348 96.9707 323.212 99.0428 322.989C101.677 322.707 104.3 322.317 106.932 322.018C108.758 321.811 110.595 321.7 112.423 321.51C115.425 321.197 118.418 320.769 121.427 320.553C123.536 320.402 125.665 320.492 127.783 320.533C129.855 320.573 131.935 320.598 133.995 320.795C136.386 321.024 138.758 321.448 141.142 321.758C143.224 322.028 145.317 322.222 147.396 322.514C150.079 322.891 152.751 323.342 155.431 323.736C156.118 323.837 156.82 323.842 157.515 323.891C156.947 323.307 156.435 322.651 155.8 322.152C152.625 319.656 150.034 316.589 147.68 313.375C145.542 310.457 143.819 307.232 141.937 304.128C140.654 302.012 139.143 300.277 136.235 300.583ZM295.281 298.954C293.302 299.143 291.306 299.154 289.317 299.217C286.255 299.314 283.193 299.393 280.131 299.467C276.409 299.557 272.687 299.657 268.964 299.711C262.187 299.811 255.41 299.883 248.633 299.963C247.71 299.973 246.788 299.95 245.866 299.966C241.483 300.044 237.1 300.129 232.469 300.212H207.121C199.401 300.212 191.682 300.18 183.963 300.245C182.73 300.255 181.495 300.715 180.891 302.007C179.826 304.289 178.875 306.63 177.717 308.864C174.982 314.136 171.113 318.54 166.755 322.507C165.838 323.341 166.463 323.612 166.974 323.699C167.911 323.857 168.898 323.803 169.856 323.733C172.811 323.515 175.762 323.253 178.714 323C181.542 322.757 184.37 322.498 187.199 322.26C190.233 322.004 193.269 321.769 196.303 321.513C199.132 321.274 201.957 320.981 204.789 320.781C208.812 320.497 212.837 320.238 216.865 320.044C218.815 319.951 220.776 319.968 222.727 320.043C225.592 320.152 228.454 320.342 231.315 320.528C234.846 320.758 238.375 321.019 241.906 321.267C244.273 321.433 246.64 321.596 249.007 321.763C252.496 322.009 255.985 322.257 259.474 322.506C261.758 322.669 264.043 322.839 266.328 323C268.736 323.169 271.145 323.328 273.553 323.497C275.838 323.658 278.121 323.846 280.407 323.987C283.392 324.171 286.38 324.465 289.366 324.451C293.22 324.433 297.08 324.259 300.923 323.961C304.396 323.692 307.851 323.178 311.31 322.748C313.106 322.525 313.776 321.197 312.845 319.68C309.389 314.049 305.88 308.452 302.458 302.801C300.798 300.061 298.567 298.64 295.281 298.954ZM158.163 163.235C157.988 163.737 157.867 164.267 157.627 164.736C156.807 166.339 155.933 167.914 155.1 169.511C153.192 173.169 151.298 176.778 147.822 179.344C145.558 181.015 142.904 182.267 141.288 184.767C140.811 185.504 139.973 186.004 139.478 186.733C138.592 188.038 137.885 189.463 137.027 190.788C133.701 195.924 130.661 201.196 128.886 207.108C127.512 211.688 126.534 216.33 126.585 221.135C126.611 223.619 126.669 226.107 126.845 228.585C126.99 230.634 127.316 232.671 127.586 234.71C127.981 237.681 128.468 240.641 128.77 243.62C128.894 244.845 128.505 246.116 128.586 247.351C128.727 249.484 128.932 251.628 129.325 253.728C130.075 257.731 130.929 261.717 131.827 265.691C132.746 269.757 133.796 273.794 134.743 277.854C136.193 284.068 138.311 290.047 141.105 295.776C143.922 301.554 147.282 307.02 151.099 312.187C152.921 314.654 154.819 317.11 156.988 319.264C159.4 321.661 162.547 322.131 165.081 319.273C166.639 317.516 168.118 315.683 169.55 313.821C172.675 309.76 175.749 305.659 178.837 301.571C178.947 301.425 178.996 301.233 179.073 301.063C178.882 301.027 178.691 300.986 178.499 300.956C177.024 300.728 175.512 300.638 174.081 300.251C169.375 298.975 165.593 296.033 161.787 293.174C158.187 290.471 154.648 287.687 151.065 284.961C150.494 284.526 149.959 284.515 149.528 285.289C148.35 287.407 147.119 289.496 145.888 291.584C145.683 291.931 145.376 292.218 145.116 292.533C144.798 292.145 144.416 291.793 144.173 291.362C143.262 289.743 144.184 288.246 144.633 286.77C145.58 283.656 146.282 280.527 146.15 277.244C146.036 274.39 145.885 271.532 145.928 268.679C145.958 266.74 146.668 264.834 148.341 263.822C149.615 263.051 149.429 262.152 149.306 261.158C148.865 257.596 148.135 254.054 147.933 250.482C147.673 245.876 147.79 241.247 148.621 236.427C148.703 235.885 148.756 235.336 148.874 234.801C149.421 232.306 149.859 229.777 150.575 227.33C151.561 223.956 152.702 220.623 153.894 217.314C154.577 215.416 157.762 208.978 157.533 210.909C157.438 211.972 156.105 217.134 155.326 219.609C154.118 223.449 152.917 227.298 151.907 231.193C150.688 235.901 149.774 240.679 149.865 245.581C149.915 248.231 149.988 250.881 150.118 253.528C150.229 255.774 150.434 258.015 150.604 260.258C150.662 261.018 151.213 261.582 151.633 261.319C152.421 260.824 153.201 260.315 153.978 259.803C157.896 257.218 161.358 254.1 164.561 250.688C165.175 250.035 165.937 249.339 166.156 248.534C166.797 246.178 167.257 243.768 167.676 241.359C168.014 239.413 168.189 237.439 168.437 235.478C168.85 232.223 169.424 228.977 169.612 225.709C169.717 223.892 169.135 222.042 168.946 220.199C168.759 218.386 168.774 216.549 168.528 214.746C168.165 212.073 167.765 209.393 167.16 206.767C166.733 204.917 166.23 202.973 165.251 201.385C163.265 198.163 160.802 195.236 158.787 192.029C157.221 189.537 155.862 186.814 155.611 183.836C155.362 180.871 155.454 177.862 155.627 174.886C155.671 174.113 156.429 173.029 157.128 172.742C157.867 172.438 158.485 173.364 158.786 174.204C159.236 175.46 159.747 176.695 160.234 177.938C160.285 178.068 160.35 178.192 160.408 178.319C160.442 178.168 160.513 178.014 160.501 177.867C160.486 177.68 160.396 177.5 160.352 177.313C159.716 174.597 158.968 171.911 158.993 169.07C159.006 167.654 158.71 166.233 158.521 164.818C158.449 164.284 158.285 163.763 158.163 163.235ZM128.754 273.444C127.431 273.578 126.101 273.636 124.772 273.704C122.95 273.798 121.127 273.88 119.304 273.953C115.081 274.123 110.858 274.285 106.387 274.45C102.906 274.615 99.427 274.821 95.9447 274.935C91.9777 275.064 88.008 275.161 84.0393 275.168C82.5782 275.17 81.1147 274.893 79.6558 274.715C77.6961 274.476 75.7461 274.096 73.7802 273.985C71.5145 273.857 70.8689 274.597 70.8391 276.866C70.7818 281.239 70.7122 285.614 72.0858 289.845C72.6398 291.552 73.0268 293.374 73.9126 294.897C75.2391 297.179 77.6131 298.18 80.1439 298.182C84.821 298.185 89.4983 297.902 94.1754 297.734C96.3285 297.656 98.4811 297.568 100.634 297.487C105.105 297.321 109.576 297.16 114.047 296.99C116.035 296.915 118.022 296.801 120.01 296.749C123.937 296.648 127.865 296.584 131.792 296.494L132.079 296.487C134.084 296.437 136.071 296.389 137.251 298.573C137.356 298.766 137.955 298.692 138.324 298.742C138.35 298.426 138.492 298.06 138.382 297.802C137.422 295.558 136.425 293.33 135.424 291.104C132.981 285.674 131.205 280.021 129.795 274.247C129.662 273.701 129.424 273.377 128.754 273.444ZM163.105 258.884C160.175 260.393 157.245 261.918 154.432 263.63C153.179 264.392 152.053 265.5 151.161 266.673C150.471 267.579 150.228 268.828 149.8 269.929C148.68 272.815 149.581 275.451 151.153 277.786C153.606 281.429 156.369 284.856 159.77 287.691C161.864 289.437 177.11 299.966 182.745 295.186C183.527 294.523 183.858 293.508 184.314 292.618C186.178 288.978 189.187 285.898 189.814 281.659C190.065 279.964 190.288 278.216 190.145 276.525C189.98 274.567 189.389 272.646 189 270.705C188.745 269.43 188.672 268.078 187.401 267.284C187.239 267.183 187.062 267.107 186.892 267.019C186.85 267.208 186.747 267.408 186.777 267.585C187.159 269.798 187.385 271.998 188.152 274.186C189.075 276.819 188.598 279.656 187.518 282.304C187.038 283.481 185.378 284.043 184.244 283.906C181.084 283.525 178.457 281.975 176.168 279.823C172.935 276.785 170.921 272.99 169.304 268.753C168.933 267.669 168.576 266.579 168.186 265.502C167.538 263.708 166.952 261.885 166.181 260.144C165.574 258.772 164.312 258.262 163.105 258.884ZM218.541 140.987C218.642 141.298 218.685 141.646 218.854 141.914C219.867 143.521 221.08 143.795 221.907 145.49C223.815 149.398 225.236 152.249 226.909 156.262C227.557 157.814 227.623 159.839 228.161 162.404C228.181 162.499 228.465 162.768 228.67 162.888C229.731 163.509 230.881 164.006 231.859 164.736C234.659 166.825 235.555 169.129 234.705 172.102C233.206 177.347 231.425 174.725 232.493 171.595C232.927 170.323 232.603 169.023 231.6 168.097C231.265 167.788 229.765 167.033 227.914 166.172C227.738 166.09 227.866 166.66 227.119 168.169C226.896 168.62 226.029 169.922 225.783 169.261C225.361 168.131 226.142 165.363 225.783 165.203L225.398 165.032C222.451 163.725 219.499 162.506 219.137 162.462C218.035 162.325 217.013 162.864 217.003 164.832C216.978 169.651 215.067 173.545 211.403 176.614C208.146 179.343 204.514 180.769 200.16 180.099C196.97 179.609 194.249 178.274 191.887 176.143C189.806 174.265 188.228 172.045 187.518 169.289C187.348 168.627 187.164 168.67 186.708 169.092C184.436 171.197 182.933 173.758 182.082 176.717C181.981 177.069 181.959 177.444 181.901 177.808C182.289 177.774 182.693 177.796 183.064 177.696C184.136 177.405 185.195 177.063 186.259 176.744C186.398 176.703 186.541 176.677 186.682 176.644C186.628 176.763 186.562 176.878 186.522 177.002C186.026 178.528 184.926 179.487 183.477 179.996C181.859 180.565 179.404 178.992 179.864 177.368C180.193 176.205 180.772 175.102 181.324 174.015C182.278 172.137 183.298 170.291 184.414 168.432C184.52 168.125 184.626 167.818 184.731 167.511C184.502 167.735 184.272 167.96 183.919 168.184C183.744 168.442 183.616 168.756 183.386 168.949C180.204 171.631 176.653 173.093 172.366 172.686C169.919 172.454 167.79 171.596 165.775 170.334C164.072 169.268 162.241 169.912 162.047 171.893C161.911 173.275 162.054 174.753 162.404 176.102C163.539 180.472 164.754 184.798 166.619 188.966C167.991 192.033 169.904 194.156 173.023 195.165C175.36 195.922 177.722 196.671 180.13 197.123C183.02 197.666 185.953 197.646 188.864 196.949C190.981 196.442 193.15 196.152 195.272 195.664C197.333 195.191 199.484 194.853 201.385 193.991C206.006 191.894 214.231 185.013 217.945 181.591C218.121 181.429 218.295 181.266 218.47 181.103C218.505 181.337 218.584 181.573 218.568 181.803C218.426 183.954 213.009 189.091 211.073 190.025C210.702 190.204 210.6 190.94 210.374 191.419C210.787 191.601 211.196 191.914 211.615 191.929C212.09 191.946 212.571 191.672 213.059 191.576C213.194 191.55 213.486 191.69 213.501 191.785C213.618 192.53 213.745 193.282 213.756 194.033C213.789 196.152 213.809 198.273 213.745 200.39C213.723 201.11 213.515 201.851 213.26 202.534C211.55 207.108 209.701 211.633 208.101 216.245C206.645 220.44 205.281 224.682 204.189 228.983C203.401 232.087 202.829 235.308 202.692 238.5C202.503 242.934 202.427 247.386 203.317 251.82C204.301 256.726 206.168 261.223 208.831 265.393C211.717 269.914 214.722 274.361 217.771 278.775C218.525 279.866 219.313 281.037 220.643 281.6C220.983 281.744 221.872 281.573 222.357 281.282C222.892 280.96 223.067 280.402 222.71 279.658C221.488 277.114 220.367 274.521 219.219 271.942C217.542 268.178 215.859 264.418 214.209 260.643C211.36 254.128 210.26 247.224 210.113 240.197C210.027 236.096 210.512 231.98 210.809 227.876C210.981 225.496 211.201 223.113 211.558 220.756C212.144 216.89 212.92 213.053 213.504 209.187C214.136 205 215.198 200.954 217.297 197.259C218.872 194.486 220.928 192.079 223.911 190.746C227.515 189.136 230.91 187.345 233.425 184.123C235.768 181.123 237.19 177.779 237.51 174.053C237.929 169.168 236.783 164.623 233.822 160.614C231.334 157.245 228.972 153.806 227.119 150.019C225.244 146.189 223.105 143.739 219.313 141.401C219.065 141.248 218.799 141.124 218.541 140.987ZM156.947 174.9C156.814 175.281 156.583 175.656 156.562 176.042C156.369 179.604 156.891 183.106 158.082 186.431C159.102 189.281 160.329 192.118 162.385 194.421C164.01 196.241 165.086 198.528 167.141 199.984C167.323 200.113 167.368 200.459 167.443 200.714C168.104 202.952 168.826 205.175 169.394 207.436L169.545 208.043C170.019 209.966 170.424 211.913 170.176 213.93C170.141 214.215 170.143 214.511 170.175 214.796C170.582 218.382 170.985 221.969 171.413 225.553C171.762 228.472 170.715 231.221 170.409 234.059C170.215 235.862 169.948 237.657 169.669 239.449C169.368 241.381 169.043 243.31 168.677 245.23C168.299 247.213 168.033 249.244 167.377 251.135C167.017 252.173 167.138 252.925 167.492 253.826C168.247 255.743 168.914 257.695 169.683 259.606C171.477 264.065 173.188 268.562 175.165 272.939C176.667 276.267 179.292 278.54 182.867 279.591C184.6 280.101 186.158 279.494 186.452 278.073C186.594 277.391 186.514 276.619 186.355 275.929C186.196 275.241 185.632 274.622 185.564 273.941C185.38 272.086 185.363 270.215 185.282 268.35C185.268 268.023 185.289 267.693 185.255 267.369C185.022 265.114 184.763 262.863 184.543 260.607C184.343 258.563 184.23 256.51 183.99 254.472C183.732 252.284 183.336 250.113 183.065 247.927C182.911 246.69 182.948 245.43 182.791 244.194C182.508 241.971 182.057 239.768 181.834 237.541C181.507 234.266 181.29 230.979 181.078 227.694C180.876 224.545 180.655 221.393 180.595 218.24C180.513 213.906 180.504 209.569 180.614 205.237C180.652 203.781 181.097 202.323 181.462 200.893C181.616 200.288 181.566 200.196 180.936 200.114C178.917 199.85 176.886 199.591 174.909 199.122C171.615 198.341 168.932 196.574 167.21 193.591C165.386 190.432 163.648 187.224 161.749 183.914C161.34 183.339 160.9 182.785 160.529 182.187C159.841 181.08 159.096 179.993 158.561 178.813C158.153 177.915 158.084 176.869 157.762 175.923C157.629 175.535 157.227 175.238 156.947 174.9ZM214.658 136.473C214.543 136.485 214.43 136.519 214.316 136.542C214.397 136.659 214.454 136.812 214.564 136.887C215.947 137.828 217.349 138.742 218.723 139.695C221.754 141.798 224.358 143.112 226.391 146.194C228.909 150.011 231.378 153.862 233.825 157.725C236.162 161.413 238.362 165.115 238.85 169.654C239.173 172.652 239.012 175.539 238.123 178.346C236.122 184.662 231.887 189.104 225.832 191.589C221.568 193.339 219.078 196.509 217.527 200.55C216.609 202.943 216.045 205.484 215.475 207.994C214.743 211.215 214.1 214.46 213.541 217.716C213.106 220.244 212.812 222.8 212.54 225.352C212.165 228.884 211.639 232.422 211.602 235.961C211.563 239.612 211.899 243.283 212.325 246.916C212.651 249.687 213.208 252.457 213.951 255.149C216.004 262.584 219.826 269.24 223.435 275.979C224.03 277.089 225.251 277.351 225.965 276.412C226.389 275.853 226.636 274.845 226.445 274.189C225.476 270.848 224.247 267.583 223.279 264.242C221.77 259.037 220.399 253.793 218.969 248.317C218.887 248.228 218.746 248.148 218.73 248.048C218.389 245.875 218.028 243.704 217.739 241.524C217.375 238.776 216.83 236.024 216.796 233.268C216.745 229.129 216.877 224.965 217.298 220.85C217.62 217.697 218.346 214.557 219.181 211.491C220.665 206.043 223.047 200.973 226.418 196.421C227.747 194.626 229.221 192.931 230.713 191.266C232.532 189.237 234.706 187.474 236.252 185.264C239.202 181.047 240.472 176.142 240.716 171.051C240.844 168.368 240.726 165.602 240.201 162.977C239.496 159.45 238.457 155.965 237.261 152.568C235.367 147.188 232.478 142.434 227.777 138.952C223.857 136.047 219.53 135.944 214.658 136.473ZM216.072 129.595C214.037 129.536 211.985 131.263 209.945 131.541C209.864 131.552 209.726 131.954 209.789 132.098C210.375 133.437 211.573 134.151 212.86 134.449C215.257 135.003 217.708 134.095 220.14 134.494C225.889 135.436 230.191 138.81 233.77 143.069C236.759 146.626 238.753 150.848 239.912 155.36C240.78 158.744 241.644 162.187 241.919 165.65C242.217 169.408 242.166 173.21 241.314 176.988C240.287 181.54 238.374 185.546 235.218 188.959C233.58 190.73 231.855 192.42 230.241 194.211C227.929 196.777 226.057 199.657 224.417 202.692C222.593 206.066 221.14 209.585 220.06 213.272C218.85 217.405 218.102 221.63 218.039 225.908C217.989 229.351 218.391 232.81 218.748 236.246C219.028 238.937 219.434 241.627 219.985 244.276C220.97 249.009 222.021 253.733 223.208 258.42C224.137 262.088 225.269 265.721 227.128 269.046C227.572 269.838 228.469 270.78 229.258 270.883C230.526 271.048 232.439 267.912 232.089 266.64C231.599 264.861 231.107 263.084 230.611 261.307C228.984 255.478 228.24 249.485 227.967 243.485C227.74 238.494 228.107 233.464 228.423 228.464C228.616 225.402 229.07 222.338 229.657 219.323C230.321 215.917 231.283 212.571 232.081 209.19C233.051 205.086 235.288 201.518 236.908 197.69C238.691 193.475 240.622 189.32 242.299 185.063C243.691 181.53 244.499 177.829 245.026 174.043C245.469 170.868 245.696 167.686 245.161 164.572C244.563 161.092 243.561 157.667 242.553 154.272C241.196 149.699 239.616 145.186 239.777 140.07C239.873 137.93 238.57 136.604 237.009 135.498C234.442 133.681 231.436 132.816 228.516 131.796C224.493 130.39 220.307 129.718 216.072 129.595ZM125.846 255.263C124.536 257.599 123.272 259.96 121.868 262.437C121.694 262.776 121.519 263.115 121.345 263.455C120.522 265.072 119.151 266.54 120.3 268.616C120.546 269.061 120.609 269.29 121.142 269.259C123.042 269.149 124.958 269.189 126.838 268.946C127.535 268.856 128.513 268.267 128.716 267.681C128.99 266.892 128.688 265.878 128.545 264.975C128.344 263.711 128.041 262.464 127.822 261.203C127.705 260.536 127.632 259.856 127.611 259.179C127.568 257.84 127.7 256.528 126.735 255.33C126.279 254.765 126.088 254.83 125.846 255.263ZM241.516 142.513C241.669 144.179 241.628 145.901 242.056 147.495C243.058 151.23 244.348 154.886 245.409 158.606C246.282 161.669 247.012 164.778 246.951 167.998C246.921 169.575 246.791 171.15 246.713 172.726C246.536 176.298 245.585 179.711 244.546 183.099C242.434 189.99 239.024 196.334 236.182 202.919C234.944 205.787 233.936 208.784 233.135 211.805C232.27 215.068 231.68 218.414 231.134 221.751C230.673 224.565 230.2 227.415 230.167 230.254C230.098 236.212 229.82 242.187 230.605 248.131C230.895 250.334 231.107 252.548 231.355 255.005C231.768 257.724 232.101 260.46 232.647 263.152C232.789 263.849 233.508 264.837 234.112 264.96C236.094 265.364 237.703 264.42 238.521 262.542C239.768 259.681 240.687 256.837 239.846 253.547C239.032 250.366 238.706 247.049 238.312 243.774C237.886 240.234 237.508 236.68 237.332 233.121C237.137 229.166 237.173 225.184 238.068 221.299C238.732 218.419 239.488 215.544 240.456 212.754C242.193 207.743 244.313 202.859 245.922 197.81C248.054 191.121 249.128 184.187 249.65 177.192C249.862 174.345 249.65 171.469 249.693 168.607C249.757 164.457 249.427 160.342 248.687 156.262C248.229 153.735 247.848 151.182 247.17 148.713C246.398 145.905 244.766 143.644 242.15 142.146C241.449 141.745 241.468 141.994 241.516 142.513ZM248.785 147.905C248.837 148.224 248.89 148.544 248.942 148.987C249.52 152.256 250.252 155.507 250.635 158.799C251.062 162.473 251.308 166.181 251.375 169.879C251.428 172.778 251.179 175.693 250.899 178.586C250.592 181.768 250.276 184.968 249.642 188.096C248.769 192.403 247.772 196.703 246.496 200.905C245.346 204.693 243.786 208.361 242.339 212.055C239.747 218.673 238.5 225.512 238.779 232.623C238.826 233.818 238.69 235.026 238.805 236.212C239.076 239.011 239.409 241.806 239.79 244.593C240.039 246.41 240.479 248.202 240.717 250.02C240.97 251.959 241.407 253.96 241.152 255.851C240.978 257.135 241.563 257.901 241.938 258.849C242.039 259.105 242.586 259.29 242.943 259.319C243.922 259.4 245.466 257.982 245.975 256.7C247.26 253.467 247.585 250.053 247.651 246.643C247.69 244.605 247.163 242.561 246.971 240.512C246.696 237.571 246.233 234.614 246.329 231.679C246.444 228.12 246.912 224.553 247.498 221.034C248.037 217.799 248.659 214.528 249.728 211.44C252.293 204.029 253.825 196.453 254.131 188.632C254.288 184.624 254.336 180.611 254.376 176.6C254.39 175.274 254.213 173.946 254.147 172.617C254.052 170.712 254.096 168.792 253.87 166.903C253.466 163.507 253.157 160.066 252.333 156.762C251.633 153.96 250.263 151.325 249.19 148.492C249.055 148.296 248.92 148.101 248.785 147.905ZM254.971 160.793C254.86 160.953 254.694 161.101 254.653 161.277C254.597 161.512 254.62 161.771 254.642 162.017C254.885 164.679 255.204 167.337 255.363 170.005C255.531 172.813 255.537 175.631 255.639 178.443C255.657 178.948 255.795 179.448 255.878 180.198C255.795 182.351 255.775 184.509 255.616 186.656C255.335 190.444 255.19 194.261 254.577 197.998C253.961 201.758 253.054 205.502 251.898 209.134C249.967 215.197 248.374 221.323 248.002 227.677C247.798 231.175 248.053 234.706 248.216 238.217C248.386 241.888 248.67 245.554 248.957 249.217C249.045 250.346 249.163 251.512 249.539 252.564C249.814 253.336 250.532 253.95 251.052 254.634C251.742 253.942 252.673 253.366 253.07 252.534C253.806 250.994 254.372 249.336 254.747 247.669C255.187 245.716 255.528 243.705 255.573 241.712C255.609 240.129 254.986 238.541 254.92 236.944C254.803 234.129 254.791 231.301 254.912 228.486C255.049 225.323 255.32 222.163 255.647 219.014C255.982 215.793 256.478 212.589 256.863 209.373L257.24 206.232C257.552 203.615 257.853 200.996 258.087 198.371C258.352 195.395 258.551 192.403 258.574 189.417C258.606 185.449 258.477 181.478 258.34 177.511C258.251 174.936 258.084 172.36 257.844 169.794C257.561 166.77 256.676 163.906 255.233 161.224C255.153 161.076 255.059 160.936 254.971 160.793ZM314.025 232.637C316.254 233.153 318.492 233.634 320.739 234.06C322.017 234.303 323.323 234.404 324.74 234.57C327.898 234.817 330.927 235.2 333.966 235.284C339.686 235.442 345.26 234.509 350.651 232.557C350.721 232.532 350.767 232.396 350.827 232.394C351.351 232.379 351.876 232.383 352.4 232.381C352.05 232.698 351.741 233.084 351.344 233.32C348.374 235.081 345.208 236.231 341.777 236.847C337.961 237.532 334.132 237.43 330.341 237.217C326.167 236.981 322.006 236.382 317.896 235.376C314.41 234.523 311.056 233.387 307.746 232.06C307.538 231.976 307.354 231.831 307.16 231.714C307.35 231.675 307.541 231.641 307.73 231.596C309.975 231.064 311.947 232.157 314.025 232.637ZM315.962 201.145C317.322 201.642 318.672 202.167 320.008 202.725C320.817 203.062 321.595 203.475 322.449 203.916C326.286 205.638 330.167 206.879 334.253 207.624C338.151 208.335 342.051 208.432 345.954 208.261C348.405 208.153 350.832 207.534 353.273 207.16C353.571 207.114 353.883 207.164 354.189 207.17C354.004 207.457 353.886 207.858 353.623 208.012C351.031 209.528 348.285 210.553 345.25 210.804C337.978 211.403 331.165 209.586 324.611 206.746C321.529 205.41 318.686 203.52 315.746 201.861C315.496 201.721 315.334 201.425 315.131 201.201C315.41 201.177 315.724 201.058 315.962 201.145ZM123.948 201.155C123.746 201.605 123.569 202.07 123.335 202.503C122.857 203.387 122.077 204.189 122.375 205.304C122.828 207.001 123.35 208.679 123.864 210.359C123.889 210.443 124.224 210.522 124.23 210.509C124.367 210.239 124.478 209.956 124.593 209.427C124.825 209.03 124.984 208.553 125.307 208.256C125.749 207.849 125.807 207.533 125.609 206.952C125.104 205.471 124.723 203.947 124.295 202.44C124.174 202.013 124.064 201.583 123.948 201.155ZM126.712 194.702C126.584 194.845 126.412 194.969 126.334 195.136C125.869 196.134 125.292 197.105 125.003 198.154C124.379 200.422 125.456 202.529 125.832 204.703C125.997 204.627 126.246 204.595 126.314 204.468C127.029 203.123 127.776 201.79 128.378 200.395C128.591 199.901 128.58 199.201 128.412 198.678C128.172 197.927 127.694 197.253 127.318 196.299C127.235 195.963 127.176 195.62 127.062 195.296C126.987 195.083 126.831 194.899 126.712 194.702ZM129.59 183.047C129.494 183.304 129.308 183.563 129.314 183.817C129.359 185.655 128.85 187.342 128.19 189.044C127.775 190.113 127.54 191.237 127.722 192.529C127.917 193.908 128.811 194.668 129.437 195.674C129.72 196.129 130.127 196.506 130.477 196.918C130.787 196.505 131.096 196.092 131.529 195.556C132.024 194.648 132.542 193.752 133.009 192.83C134.047 190.784 134.036 190.779 132.394 188.987C132.261 188.841 132.14 188.682 132.025 188.522C131 187.086 130.43 185.472 130.105 183.75C130.057 183.492 129.768 183.28 129.59 183.047ZM133.111 174.9C132.995 175.099 132.868 175.293 132.764 175.498C132.266 176.485 131.872 177.542 131.257 178.45C130.306 179.855 130.971 181.165 131.288 182.502C131.86 184.913 132.632 187.241 134.298 189.162C134.683 189.605 134.679 189.609 135.121 188.744C135.936 187.599 136.722 186.432 137.578 185.318C137.978 184.797 138.336 184.47 137.672 183.813C136.926 183.076 136.21 182.217 135.775 181.276C134.898 179.38 134.224 177.39 133.455 175.443C133.378 175.247 133.228 175.081 133.111 174.9ZM168.722 182.844C169.593 183.246 170.439 183.776 171.162 184.407C173.169 186.159 175.458 186.954 178.111 186.777C178.482 186.752 186.373 186.354 185.783 187.368C185.38 188.06 179.422 189.207 178.74 189.216C175.994 189.253 172.7 187.941 171.322 187.368C170.765 187.137 166.661 184.666 167.432 183.217C167.73 182.656 168.415 182.702 168.722 182.844ZM136.997 168.785C136.578 169.43 135.979 170.025 135.786 170.732C135.55 171.599 134.709 172.278 134.994 173.302C135.582 175.412 136.035 177.57 136.774 179.625C137.239 180.919 138.12 182.065 138.834 183.266C138.85 183.292 139.174 183.219 139.246 183.116C140.216 181.727 141.519 180.762 143.171 179.95C143.588 179.661 143.981 179.326 144.428 179.095C144.952 178.825 144.888 178.762 144.419 178.445C141.446 176.432 139.384 173.629 137.728 170.499C137.439 169.952 137.239 169.358 136.997 168.785ZM0.0634401 144.709C0.150994 144.841 0.229898 144.98 0.327372 145.104C2.74831 148.189 5.17197 151.271 7.59254 154.355C7.83524 154.665 8.06124 154.987 8.35692 155.365C10.7831 157.874 13.0379 160.44 15.5396 162.737C18.5728 165.522 21.8023 168.095 24.9701 170.731C27.2508 172.629 29.5282 174.583 32.3576 175.608C34.1596 176.261 36.0477 176.89 37.937 177.045C42.1468 177.391 46.3857 177.366 50.6034 177.637C51.8829 177.719 53.1374 178.257 54.3891 178.634C54.5745 178.69 55.1045 178.986 54.2919 179.106C51.9353 179.454 49.6055 179.997 47.2435 180.289C45.8066 180.467 44.3295 180.34 42.871 180.318C39.1166 180.263 35.5712 179.302 32.1116 177.896C27.7042 176.104 23.7574 173.59 20.223 170.434C17.7951 168.265 15.262 166.172 13.105 163.752C9.25345 159.431 5.58334 154.942 1.98262 150.408C0.823276 148.948 0.0804301 147.139 0.000575667 145.177C-0.00572103 145.022 0.041235 144.865 0.0634401 144.709ZM140.623 162.457C139.527 163.838 138.123 165.138 138.493 167.122C138.759 168.546 139.263 169.93 139.709 171.316C140.675 174.319 143.153 176.01 145.469 177.826C145.593 177.923 146.019 177.824 146.162 177.677C148.102 175.693 150.015 173.684 151.936 171.681C152.304 171.298 152.823 170.965 151.719 170.876C150.977 170.816 150.263 170.431 149.53 170.212C148.611 169.938 147.686 169.685 146.515 169.423C145.65 168.64 144.859 167.748 143.903 167.1C142.277 165.997 141.27 164.564 140.93 162.639C140.915 162.559 140.634 162.442 140.623 162.457ZM200.537 154.073L199.69 154.355C197.526 155.079 195.38 155.849 193.644 157.462C191.651 159.313 190.63 161.692 190.005 164.249C189.878 164.766 189.79 165.279 189.743 165.787C189.787 165.597 189.845 165.413 189.906 165.245C190.073 164.788 190.492 164.413 190.835 164.033L190.973 163.882C191.647 163.16 192.371 162.609 193.458 163.317C194.655 164.096 194.126 165.067 193.792 166.016C193.679 166.336 193.508 166.636 193.302 167.008C192.745 167.93 191.982 168.431 191.031 168.141C190.515 167.984 189.94 167.462 189.745 166.966C189.73 166.927 189.717 166.886 189.706 166.845C189.746 168.586 190.308 170.236 191.504 171.695C192.549 172.972 193.824 174.086 195.109 175.135C198.221 177.673 201.714 178.119 205.252 176.277C209.76 173.93 212.003 169.677 214.015 165.088C214.141 164.058 214.427 163.018 214.36 162.001C214.228 160.005 212.942 158.593 211.495 157.388C208.323 154.745 204.957 152.589 200.537 154.073ZM145.271 153.327C144.984 153.661 144.677 153.981 144.418 154.336C144.288 154.514 144.229 154.751 144.165 154.969C143.582 156.953 142.882 158.914 142.473 160.933C142.216 162.2 142.548 163.516 143.419 164.84C144.405 165.542 145.39 166.247 146.379 166.945C148.373 168.354 150.727 168.806 153.023 169.392C153.21 169.44 153.66 169.101 153.73 168.865C154.372 166.723 154.958 164.564 155.542 162.404C155.553 162.362 155.352 162.208 155.238 162.193C153.216 161.925 151.216 161.809 149.504 160.34C147.633 158.733 146.483 156.756 145.651 154.519C145.506 154.129 145.397 153.725 145.271 153.327ZM168.632 144.64C166.236 145.04 164.66 146.793 163.283 148.688C161.598 151.008 160.647 153.632 160.555 156.458C160.478 158.802 161.146 161.057 162.233 163.174L162.406 163.51C163.066 164.796 163.737 166.023 165.164 166.712C168.697 168.417 172.402 168.986 176.254 168.4C177.406 168.224 178.755 167.954 179.575 167.23C182.72 164.456 184.46 160.883 184.91 156.542C184.868 155.603 184.883 154.657 184.775 153.725C184.456 150.943 182.994 148.827 180.837 147.127C178.939 145.632 176.72 144.775 174.401 144.468C172.514 144.218 170.519 144.326 168.632 144.64ZM174.634 126.943C173.35 130.814 172.073 134.687 170.817 138.567C171.096 138.51 171.393 138.4 171.625 138.478C173.021 138.952 174.364 139.519 175.456 140.588C176.07 141.189 176.821 141.651 177.573 142.237C177.732 142.372 177.889 142.5 178.043 142.624C178.135 142.648 178.227 142.674 178.32 142.7C181.131 143.496 183.557 144.982 185.283 147.44C187.591 150.727 188.152 154.563 188.749 158.389C188.779 158.584 188.802 158.779 188.829 158.975C189.028 158.888 189.26 158.839 189.42 158.705C189.735 158.441 190.014 158.132 190.302 157.837C192.554 155.527 195.08 153.548 197.99 152.176C201.082 150.718 204.265 150.357 207.613 151.689C210.126 152.689 212.144 154.295 214.107 156.031C214.963 156.789 218.988 158.707 226.181 161.787C225.005 156.82 223.793 153.25 222.546 151.079C220.974 148.345 219.202 146.256 216.993 144.213C213.134 140.644 209.097 137.365 204.617 134.594C199.903 131.679 194.809 129.745 189.504 128.323C185.775 127.323 181.997 126.511 178.245 125.597C176.607 125.198 175.03 125.748 174.634 126.943ZM150.149 148.632C148.178 149.967 146.607 152.245 147.501 155.051C148.493 158.16 152 160.847 155.328 160.967C155.643 160.978 156.127 160.582 156.271 160.258C156.671 159.354 156.956 158.395 157.234 157.442C157.287 157.26 157.105 156.819 157.024 156.817C154.913 156.771 153.564 155.42 152.089 153.941C151.136 152.382 150.485 150.737 150.582 148.862C150.586 148.788 150.217 148.586 150.149 148.632ZM46.7991 151.968C47.8936 152.513 48.9838 153.075 50.0311 153.704C52.2104 155.014 54.3165 156.452 56.5425 157.674C57.7293 158.325 59.1082 158.622 60.3893 159.109C60.6718 159.216 60.9071 159.448 61.1641 159.622C60.8992 159.751 60.5881 159.829 60.3768 160.018C58.8372 161.397 57.3891 160.122 55.9515 159.825C52.9819 159.21 50.9068 157.174 48.8569 154.994C47.9559 154.175 47.1032 153.433 46.2876 152.652C46.0919 152.465 46.0197 152.148 45.8907 151.891C46.1961 151.912 46.5462 151.843 46.7991 151.968ZM164.587 154.239C165.631 154.681 165.539 155.519 165.483 156.331C165.39 157.677 163.557 159.436 162.385 159.219C161.966 159.142 161.337 158.506 161.347 158.14C161.372 157.19 161.699 156.249 161.967 155.242C162.146 155.063 162.264 154.948 162.379 154.83C162.996 154.192 163.63 153.833 164.587 154.239ZM153.699 144.9C153.327 145.445 152.817 145.943 152.608 146.545C151.584 149.496 153.455 154.098 157.354 155.218C157.54 155.272 157.955 155.103 158.011 154.948C158.625 153.225 159.193 151.486 159.76 149.746C159.796 149.636 159.721 149.375 159.694 149.375C156.793 149.335 155.383 147.549 154.54 145.05C154.488 144.895 154.07 144.864 153.699 144.9ZM204.654 150.254C204.901 150.385 205.105 150.596 205.329 150.77C205.086 150.712 204.846 150.64 204.6 150.599C202.062 150.183 199.521 149.781 196.986 149.347C196.632 149.286 196.305 149.072 195.965 148.928C196.337 148.824 196.708 148.72 197.204 148.615C199.903 148.564 202.364 149.038 204.654 150.254ZM159.877 137.236C159.592 137.654 159.304 138.069 159.03 138.493C158.992 138.551 159.054 138.67 159.02 138.735C158.233 140.222 157.476 141.728 156.632 143.182C156.16 143.996 156.133 145.591 156.838 146.021C157.843 146.636 158.937 147.107 160.003 147.621C160.71 147.962 161.137 147.53 161.494 147.008C162.174 146.014 162.796 144.98 163.519 144.02C164.084 143.269 163.526 143.425 162.988 143.29C160.419 142.648 160.124 140.499 159.781 138.403C159.72 138.029 159.84 137.626 159.877 137.236ZM164.079 131.299C163.716 131.594 163.216 131.815 163.01 132.196C161.871 134.305 161.446 136.613 161.526 138.979C161.588 140.831 162.726 142.094 164.518 142.569C164.766 142.635 165.119 142.535 165.349 142.393C165.946 142.025 166.502 141.591 167.199 141.06C167.446 140.628 167.762 140.219 167.926 139.757C168.155 139.107 168.304 138.422 168.42 137.741C168.46 137.503 168.384 137.115 168.216 136.991C166.556 135.76 165.322 134.2 164.477 132.324C164.326 131.99 164.211 131.641 164.079 131.299ZM170.784 138.671L170.275 140.244C170.218 140.419 170.461 140.87 170.631 140.911C172.143 141.274 173.67 141.583 175.187 141.922C174.353 141.306 173.519 140.689 172.681 140.077C172.245 139.758 171.759 139.507 171.32 139.192C171.119 139.049 170.957 138.853 170.784 138.671ZM171.586 120.589C170.722 121.319 169.897 122.096 168.933 122.978C167.307 124.228 166.64 126.019 166.234 127.919C165.694 130.448 165.961 132.795 167.993 134.682C168.681 135.322 169.133 135.05 169.418 134.351C170.294 132.198 171.128 130.028 171.973 127.863C172.861 125.59 173.36 123.326 172.448 120.886C172.168 120.138 171.963 120.27 171.586 120.589ZM202.522 122.897C201.443 123.14 200.216 124.794 199.779 126.077C199.587 126.641 199.305 127.076 200.4 127.376C202.798 128.033 205.088 129.08 207.203 130.774C207.679 130.793 208.171 130.9 208.629 130.817C210.348 130.506 212.048 128.662 213.769 128.61C216.087 128.539 218.435 128.755 220.736 129.082C223.112 129.419 225.508 129.848 227.785 130.58C230.792 131.545 233.692 132.846 236.639 133.998C236.835 134.075 237.045 134.118 237.248 134.176C237.195 134.006 237.114 133.839 237.093 133.665C236.954 132.519 236.187 131.802 235.286 131.293C232.717 129.842 230.154 128.367 227.498 127.088C223.054 124.948 218.464 123.281 213.519 122.552C209.792 122.003 206.149 122.082 202.522 122.897ZM199.898 116.416C196.241 116.569 193.171 117.953 190.875 120.862C189.763 122.27 190.013 124.326 191.704 124.82C193.806 125.435 195.926 125.985 198.286 126.563C198.782 125.82 199.127 123.64 199.803 123.141C201.69 121.746 203.933 121.178 206.256 121.144C208.282 121.113 210.329 121.149 212.336 121.403C214.726 121.704 217.13 122.102 219.445 122.754C224.541 124.19 229.281 126.508 233.914 129.044C234.195 129.198 234.494 129.319 234.785 129.455C234.781 129.014 234.831 128.562 234.75 128.134C234.711 127.933 234.447 127.742 234.244 127.611C232.424 126.434 230.675 125.111 228.75 124.139C224.731 122.108 220.631 120.259 216.27 119.01C210.909 117.475 205.529 116.181 199.898 116.416ZM192.304 107.962C188.24 108.408 184.695 109.768 181.962 112.918C180.378 114.743 179.432 116.825 179.336 119.51C179.336 119.882 179.261 121.506 179.355 121.853C179.473 122.287 179.661 122.98 179.939 123.044C181.164 123.328 182.43 123.452 183.687 123.561C183.871 123.577 184.235 123.223 184.265 123.006C184.401 122.014 184.299 119.739 184.553 118.786C185.533 115.096 188.18 112.977 191.608 111.718C194.487 110.659 197.483 110.639 200.525 110.672C205.04 110.721 209.451 111.373 213.792 112.488C215.55 112.939 217.207 113.796 218.895 114.504C219.114 114.595 219.244 114.897 219.415 115.101C219.162 115.063 218.896 115.063 218.659 114.981C212.917 112.998 206.978 112.069 200.941 111.722C197.981 111.551 195.012 111.857 192.203 112.746C189.098 113.728 186.489 115.488 185.431 118.86C184.859 120.68 185.681 123.521 187.457 124.177C188.493 124.56 188.865 124.079 189.268 123.235C189.782 122.162 190.324 119.809 191.107 118.937C193.576 116.187 196.914 115.276 200.431 115.228C202.761 115.196 205.125 115.521 207.423 115.953C210.881 116.602 214.353 117.293 217.713 118.313C222.741 119.839 227.545 121.949 231.98 124.825C232.298 125.031 232.713 125.088 233.082 125.214C232.97 124.849 232.901 124.464 232.738 124.123C230.721 119.89 228.259 115.964 224.682 112.85C222.586 111.025 220.196 109.666 217.489 109.005C215.526 108.525 213.546 108.406 211.477 108.665C209.529 108.908 207.508 108.583 205.52 108.481C204.562 108.432 203.599 108.373 202.652 108.23C199.211 107.713 195.782 107.58 192.304 107.962ZM178.212 115.67C178.072 115.731 177.914 115.767 177.796 115.855C177.072 116.4 176.424 117.095 175.625 117.477C174.331 118.097 174.564 119.081 174.739 120.111C174.764 120.259 174.863 120.399 174.872 120.546C174.922 121.312 174.954 122.078 174.992 122.844C175.165 123.918 176.485 123.918 177.355 123.714C177.52 123.083 177.753 122.461 177.836 121.819C178.03 120.324 178.155 117.587 178.297 116.085C178.309 115.95 178.242 115.809 178.212 115.67ZM130.534 46.5241C130.763 46.8015 130.589 47.438 130.539 47.9101C130.508 48.2103 130.285 48.5063 130.305 48.7935C130.53 52.1185 130.872 55.438 131.008 58.7661C131.13 61.7331 131.029 64.7091 131.04 67.6811C131.041 68.0722 131.085 68.7905 131.178 68.802C131.908 68.8923 132.656 68.8579 133.395 68.8195C133.443 68.817 133.521 68.4576 133.502 68.273C133.444 67.7266 133.321 67.187 133.267 66.6405C132.929 63.2282 132.493 59.8206 132.305 56.3997C132.145 53.4777 132.217 50.5378 132.331 47.6115C132.348 47.1628 133.12 46.4348 133.596 46.389C134.228 46.3283 134.592 46.9559 134.522 47.7457C134.436 48.7288 134.428 49.7317 134.515 50.7147C134.81 54.0484 135.157 67.872 135.272 68.6929C135.284 68.7745 135.684 68.847 135.903 68.8473C141.971 68.8555 148.04 68.9031 154.107 68.8314C156.805 68.7995 159.501 68.512 162.199 68.3625C164.062 68.2592 165.938 68.2862 167.791 68.093C172.961 67.554 178.138 67.353 183.335 67.3267C185.958 67.3135 188.576 66.8362 191.202 66.6332C194.853 66.3509 198.505 66.0449 202.163 65.903C206.625 65.7298 211.092 65.7011 215.558 65.6498C216.239 65.642 216.552 65.6024 216.516 64.7611C216.375 61.4543 216.337 58.1432 216.241 54.8342C216.176 52.5563 216.09 50.2789 215.991 48.0022C215.962 47.3458 216.154 47.0372 216.878 47.0373C217.629 47.0373 217.728 47.4032 217.743 48.0303C217.795 50.2259 217.649 52.465 218.037 54.6046C218.616 57.8047 218.376 60.9968 218.475 64.1929C218.513 65.4145 219.087 65.8674 220.245 65.6379C220.784 65.531 221.331 65.3972 221.875 65.3965C233.186 65.3826 244.496 65.3658 255.806 65.3974C259.57 65.4079 269.494 65.5387 273.257 65.642C274.256 65.6695 275.254 65.779 276.25 65.8868C277.302 66.0009 278.126 67.0869 278.135 68.3819C278.15 70.6108 278.139 72.8399 278.139 75.0689C278.139 75.2753 278.128 75.4824 278.141 75.688C278.179 76.2983 278.468 77.2839 278.221 77.4436C277.611 77.8375 276.761 77.9669 275.999 78.0002C271.363 78.2031 260.565 78.3984 255.927 78.5022C249.977 78.6353 244.025 78.6881 238.073 78.76C230.512 78.8514 222.951 78.9135 215.39 79.0166C212.328 79.0583 209.267 79.1686 206.205 79.2596C203.763 79.3321 201.321 79.4337 198.878 79.5026C195.569 79.5959 192.259 79.6787 188.95 79.7509C184.774 79.8421 180.597 79.9143 176.421 80.0018C172.74 80.0789 169.059 80.1658 165.378 80.2484C161.698 80.331 158.016 80.3783 154.336 80.5065C151.018 80.6222 147.702 80.8057 144.387 80.9989C142.224 81.1249 140.06 81.2726 137.906 81.4995C135.272 81.777 132.65 82.1751 130.017 82.4685C128.109 82.6811 126.195 82.8658 124.279 82.9613C120.18 83.1653 116.075 83.2514 111.978 83.4883C109.557 83.6283 94.8285 84.0028 92.4084 84.1893C91.6281 84.2495 90.812 84.1123 90.0436 83.932C89.7314 83.8588 89.315 83.4597 89.2675 83.1582C89.0327 81.669 88.8848 80.1647 88.7468 78.662C88.6327 77.4195 88.4898 76.1696 88.5206 74.927C88.5438 73.9871 88.8019 73.0872 88.5907 72.0961C88.5286 71.8047 89.5992 70.9839 90.225 70.8872C92.1989 70.582 106.534 70.551 108.523 70.3286C111.034 70.0479 113.536 69.6809 116.042 69.3589C116.285 69.3276 116.536 69.3587 116.782 69.3482C120.594 69.1847 124.405 68.996 128.218 68.876C128.874 68.8553 128.812 68.5569 128.809 68.1295C128.797 66.4784 128.772 64.8264 128.813 63.1763C128.854 61.5587 128.969 59.9429 129.052 58.2025C128.731 55.7761 128.349 53.4799 128.113 51.1687C127.975 49.8235 127.993 48.4477 128.111 47.1006C128.144 46.728 128.74 46.2204 129.16 46.1179C129.581 46.0155 130.272 46.2061 130.534 46.5241ZM256.257 67.1344C244.403 67.1803 232.55 67.272 220.697 67.3731C214.663 67.4246 208.628 67.4677 202.598 67.6435C199.683 67.7284 196.777 68.1309 193.865 68.3533C190.337 68.6228 186.806 68.8559 183.276 69.1005C181.99 69.1897 180.703 69.2648 179.417 69.3497C175.68 69.5963 171.947 69.9097 168.208 70.0742C164.448 70.2396 160.682 70.2576 156.671 70.3401C155.715 70.4227 154.759 70.5661 153.802 70.5782C145.953 70.6778 138.103 70.7154 130.254 70.8534C126.936 70.9117 123.621 71.1628 120.305 71.3324C118.853 71.4066 117.399 71.4651 115.951 71.5847C112.165 71.8971 96.0614 72.2485 92.2757 72.5626C91.3823 72.6368 90.8694 72.859 90.9434 73.9589C91.11 76.4369 91.1735 78.9241 91.1936 81.4082C91.1995 82.1374 91.4018 82.2984 92.0786 82.2409C94.3605 82.0472 108.967 81.8975 111.251 81.7353C113.618 81.5673 115.984 81.3818 118.352 81.2447C121.585 81.0576 124.82 80.916 128.053 80.736C128.517 80.7101 128.973 80.5588 129.437 80.4995C131.438 80.2438 133.438 79.9712 135.445 79.7614C137.395 79.5575 139.35 79.3893 141.306 79.2644C145.536 78.9944 149.766 78.7079 154.001 78.5306C157.802 78.3714 161.609 78.3514 165.413 78.2661C168.97 78.1864 172.527 78.0957 176.084 78.0206C180.301 77.9315 184.518 77.8433 188.735 77.7739C194.397 77.6809 200.059 77.6194 205.721 77.518C208.535 77.4676 211.349 77.3632 214.162 77.2745C216.564 77.1988 218.964 77.0805 221.366 77.0344C226.697 76.932 232.029 76.8572 237.36 76.782C243.683 76.693 250.006 76.655 256.327 76.5193C260.759 76.4241 271.349 76.2101 275.779 76.0146C275.995 76.005 276.374 75.6667 276.378 75.4753C276.421 73.3711 276.404 71.2657 276.406 69.1607C276.408 68.2686 275.891 67.765 275.087 67.6325C274.143 67.4769 273.178 67.4061 272.22 67.3757C268.953 67.2721 259.524 67.1218 256.257 67.1344ZM221.958 45.2095C222.257 49.5231 222.569 53.8365 222.952 58.1432C223.076 59.5347 223.391 60.9135 223.683 62.2844C223.936 63.4697 223.237 64.3012 221.756 64.3333C221.446 63.4266 221.09 62.5966 220.974 61.7341C220.733 59.9593 220.539 58.1702 220.473 56.3815C220.334 52.6697 220.289 48.9544 220.209 45.2405C220.197 44.6743 220.086 44.0953 220.997 44.0632C221.911 44.0311 221.91 44.5229 221.958 45.2095Z" fill="#00160A"/>
<path fill-rule="evenodd" clip-rule="evenodd" d="M177.882 290.747C172.986 303.015 153.074 288.067 150.578 279.269C149.643 275.97 156.054 269.212 159.262 271.885C164.972 276.644 164.562 284.19 173.341 286.081C174.649 286.362 177.459 286.321 178.729 286.686C179.383 286.873 179.101 288.227 177.882 290.747Z" fill="#FBBC05"/>
<path fill-rule="evenodd" clip-rule="evenodd" d="M257.892 231.102C258.464 233.865 258.963 236.506 258.904 239.235C258.869 240.849 259.03 242.469 259.134 244.084C259.43 248.679 257.311 251.905 253.593 254.4C251.043 256.111 248.739 258.186 246.219 259.947C244.101 261.427 241.88 262.776 239.618 264.028C235.047 266.558 230.364 268.928 228.286 274.211C227.323 276.66 226.044 279.051 225.533 281.594C224.942 284.531 225.482 287.453 228.185 289.459C228.278 289.529 228.322 289.665 228.417 289.729C228.837 290.012 229.289 290.513 229.686 290.476C229.992 290.447 230.278 289.757 230.497 289.323C230.986 288.354 230.538 287.498 230.318 286.523C229.986 285.047 230.246 283.434 230.291 281.881C230.295 281.712 230.536 281.551 230.667 281.386C230.742 281.583 230.865 281.775 230.884 281.977C230.983 283.056 230.956 284.158 231.173 285.21C231.331 285.976 231.721 286.728 232.152 287.393C232.598 288.082 234.101 287.753 234.347 286.92C234.802 285.377 234.723 283.828 234.39 282.251C234.222 281.452 234.358 280.584 234.407 279.751C234.414 279.627 234.703 279.52 234.862 279.404C234.942 279.555 235.072 279.714 235.09 279.854C235.826 285.552 236.903 285.552 237.345 285.72C237.787 285.888 238.353 285.662 238.559 285.552C238.819 285.414 239.013 284.96 239.047 284.623C239.177 283.341 239.021 281.992 239.366 280.78C239.811 279.218 240.488 277.672 241.347 276.294C241.917 275.38 242.959 274.749 243.826 274.034C246.079 272.176 248.42 270.447 251.26 269.569C253.274 268.946 255.305 268.376 257.321 267.759C260.8 266.696 264.343 265.796 267.735 264.5C273.024 262.481 276.965 258.977 278.166 253.185C278.825 250.009 278.318 246.808 277.119 243.817C276.169 241.448 274.879 239.216 273.75 236.917C273.635 236.684 273.591 236.415 273.514 236.163C273.718 236.296 273.958 236.395 274.122 236.567C277.001 239.587 278.906 243.166 279.786 247.212C280.73 251.548 281.035 255.935 278.902 260.055C278.434 260.958 277.481 261.686 276.61 262.291C273.983 264.115 271.047 265.345 268.041 266.397C264.543 267.622 261.101 269.164 257.498 269.886C254.023 270.584 251.009 272.191 247.81 273.453C245.845 274.228 244.776 276.031 243.236 277.283C241.611 278.605 241.143 280.223 241.289 282.175C241.331 282.75 241.272 283.331 241.299 283.908C241.471 287.617 239.628 287.952 236.836 286.851C236.715 286.803 236.371 286.962 236.361 287.05C236.13 289.142 234.936 290.166 233.028 289.483C232.207 289.19 232.248 289.742 232.167 289.935C231.328 291.945 229.272 292.595 227.863 291.04C226.4 289.427 225.042 287.641 224.042 285.72C223.546 284.767 223.775 283.309 223.996 282.14C224.374 280.142 224.886 278.15 225.558 276.232C226.448 273.692 227.907 271.471 229.603 269.35C231.333 267.184 233.491 265.633 235.826 264.324C239.033 262.526 242.191 260.662 245.177 258.524C246.401 257.648 247.439 256.518 248.643 255.61C250.231 254.412 251.901 253.322 253.532 252.181C255.757 250.623 257.279 248.76 257.205 245.775C257.156 243.78 257.804 241.775 257.846 239.768C257.888 237.778 257.537 235.781 257.407 233.783C257.345 232.824 257.389 231.857 257.403 230.894C257.405 230.722 257.494 230.552 257.543 230.382C257.659 230.58 257.775 230.779 257.892 231.102Z" fill="#00160A"/>
<path fill-rule="evenodd" clip-rule="evenodd" d="M13.9007 96.8447C14.0174 96.5899 14.2355 96.3432 14.2365 96.3441C16.7832 98.5777 18.3924 101.359 19.4077 104.597C19.8448 105.991 20.8087 107.264 21.7122 108.457C23.4163 110.707 25.2552 112.855 27.0109 115.067C27.0803 115.155 26.9298 115.564 26.7799 115.654C25.773 116.259 23.9738 115.937 22.8902 114.843C21.9655 113.91 21.1527 112.859 20.3422 111.82C19.1259 110.261 17.4227 109.645 15.5923 109.228C12.6816 108.564 10.514 106.775 8.70727 104.518C5.65947 100.71 4.38429 96.2034 3.75734 91.4715C3.60565 90.3265 3.36702 89.1103 3.59433 88.0153C4.06396 85.7529 6.08586 84.5157 8.61641 85.2582C13.1577 86.5909 17.6759 88.075 22.0555 89.8598C24.9022 91.0199 26.0378 93.705 26.5689 96.6902C27.0173 99.211 26.4591 101.484 25.4634 103.723C25.1187 104.498 25.058 104.47 24.5497 103.743C23.5576 102.325 23.306 100.653 23.6129 99.0861C24.287 95.6447 22.7336 92.9295 19.9947 91.8998C16.8155 90.7045 13.6454 89.4659 10.4063 88.4546C7.20039 87.4536 7.24475 87.6698 7.83699 90.7781C8.64003 94.9928 10.1808 99.1003 11.7399 103.124C12.5713 105.27 14.2898 106.881 16.7241 107.533C17.5897 107.765 17.4708 107.28 17.3475 106.93C16.764 105.277 16.1433 103.634 15.4659 102.016C14.7807 100.38 13.8142 98.8407 13.9007 96.8447Z" fill="#FFB61D"/>
<path fill-rule="evenodd" clip-rule="evenodd" d="M265.261 227.2C262.089 226.221 259.109 226.661 256.137 227.835C255.439 228.111 254.462 227.952 253.711 227.701C253.365 227.584 254.451 225.727 255.322 225.396C256.356 225.003 257.419 224.571 258.503 224.444C261.806 224.059 264.868 224.94 267.776 226.483C269.055 227.161 270.404 227.706 271.676 228.397C272.22 228.692 272.671 229.181 273.113 229.633C273.235 229.758 273.262 230.208 273.18 230.259C272.975 230.384 272.641 230.467 272.432 230.385C271.123 229.866 269.829 229.309 268.541 228.741C267.461 228.265 266.395 227.756 265.261 227.2Z" fill="#00160A"/>
<path fill-rule="evenodd" clip-rule="evenodd" d="M167.417 51.2048C165.268 52.6928 163.234 54.2038 161.081 55.5219C158.731 56.9607 156.288 58.2505 153.844 59.5255C153.494 59.7079 152.641 59.5995 152.494 59.3486C152.238 58.9106 152.144 58.3094 152.967 57.9196C154.42 57.232 155.803 56.3786 157.155 55.5023C159.241 54.1502 161.27 52.7096 163.338 51.3277C164.462 50.5762 165.566 49.7634 166.78 49.1921C167.275 48.9591 168.419 49.0775 168.605 49.4085C169.161 50.3975 168.295 50.8329 167.417 51.2048Z" fill="#E7EAEE"/>
<path fill-rule="evenodd" clip-rule="evenodd" d="M182.775 206.517C183.497 205.876 184.149 205.287 184.824 204.725C185.02 204.561 185.28 204.473 185.512 204.349C185.611 204.563 185.768 204.769 185.8 204.992C186.012 206.47 186.039 208.038 187.411 209.02C187.993 209.437 188.675 209.871 189.357 209.964C191.893 210.307 194.892 210.047 196.624 207.329C197.326 206.228 197.11 205.108 197.222 203.975C197.251 203.676 197.454 203.195 197.66 203.146C198.494 202.948 198.201 203.658 198.177 204.001C198.083 205.366 198.431 206.714 197.506 208.065C196.388 209.697 194.915 210.739 193.132 210.96C191.385 211.177 189.542 211.304 187.764 210.572C186.172 209.917 185.408 208.764 185.063 207.192C185.017 206.983 184.931 206.783 184.864 206.579C184.701 206.685 184.54 206.792 184.376 206.897C182.651 207.998 181.011 209.323 178.813 209.275C178.499 209.268 178.193 208.871 177.882 208.655C178.164 208.541 178.448 208.432 178.727 208.312C180.056 207.736 181.384 207.157 182.775 206.517Z" fill="#00160A"/>
<path fill-rule="evenodd" clip-rule="evenodd" d="M235.288 51.9479C236.733 50.6682 238.086 49.4129 239.519 48.2575C239.903 47.9481 240.528 47.8652 241.052 47.8344C241.286 47.8205 241.745 48.1884 241.748 48.3878C241.753 48.7677 241.609 49.2734 241.338 49.5083C240.697 50.0642 239.892 50.4307 239.247 50.983C237.139 52.7872 235.098 54.6706 232.962 56.4395C232.669 56.682 231.848 56.6338 231.51 56.3898C231.056 56.0612 231.231 55.4575 231.676 55.0695C232.854 54.043 234.042 53.0289 235.288 51.9479Z" fill="#E7EAEE"/>
<path fill-rule="evenodd" clip-rule="evenodd" d="M195.222 272.221C194.013 272.386 192.932 272.626 191.84 272.697C190.554 272.78 189.252 272.79 187.971 272.674C187.557 272.636 187.189 272.099 186.8 271.79C187.18 271.603 187.544 271.315 187.945 271.247C190.071 270.886 192.197 270.477 194.341 270.288C196.152 270.128 197.988 270.226 199.812 270.266C200.02 270.27 200.374 270.632 200.381 270.837C200.388 271.044 200.077 271.411 199.855 271.454C198.359 271.747 196.85 271.973 195.222 272.221Z" fill="#00160A"/>
<path fill-rule="evenodd" clip-rule="evenodd" d="M106.357 51.0809C106.858 50.6887 107.255 50.2352 107.75 50.0652C108.185 49.9155 109.084 49.9467 109.157 50.1366C109.35 50.6379 109.441 51.1993 108.744 51.7303C106.622 53.347 104.626 55.1284 102.575 56.8384C102.369 57.01 102.13 57.2374 101.893 57.2546C101.477 57.2847 100.829 57.3133 100.683 57.0847C100.484 56.7714 100.477 56.0058 100.71 55.8003C102.528 54.1983 104.424 52.6841 106.357 51.0809Z" fill="#E7EAEE"/>
<path fill-rule="evenodd" clip-rule="evenodd" d="M240.8 56.7163C242.471 55.2515 244.171 53.9442 245.798 52.5521C246.39 52.0459 246.996 51.6608 247.558 52.2663C248.057 52.8027 247.753 53.4539 247.185 53.9293C245.559 55.29 243.976 56.7038 242.303 58.0036C241.98 58.2548 241.329 58.0837 240.829 58.1074C240.819 57.685 240.81 57.2625 240.8 56.7163Z" fill="#E7EAEE"/>
<path fill-rule="evenodd" clip-rule="evenodd" d="M184.632 211.719C185.066 212.277 185.75 212.78 185.739 213.267C185.72 214.084 185.48 214.936 184.536 215.455C183.145 216.22 181.964 215.918 180.823 215.076C179.828 214.342 179.88 213.023 180.882 211.63C181.299 211.05 182.917 210.818 183.643 211.219C183.941 211.385 184.261 211.512 184.632 211.719ZM184.323 212.4C183.983 212.225 183.659 212.005 183.3 211.885C182.469 211.606 181.81 211.806 181.36 212.626C180.921 213.429 181.31 214.005 181.904 214.394C182.298 214.651 182.893 214.794 183.348 214.712C183.846 214.624 184.463 214.32 184.697 213.917C184.878 213.607 184.549 212.999 184.323 212.4Z" fill="#00160A"/>
<path fill-rule="evenodd" clip-rule="evenodd" d="M169.894 57.3975C170.946 56.7581 171.908 56.1195 172.946 55.6446C173.218 55.5198 174.064 55.9093 174.061 56.0499C174.049 56.605 173.978 57.3837 173.611 57.6624C172.675 58.3745 171.605 58.9533 170.511 59.3941C170.107 59.5571 169.186 59.3381 169.027 59.0256C168.695 58.3728 169.028 57.7128 169.894 57.3975Z" fill="#E7EAEE"/>
</svg>
